<mxfile host="app.diagrams.net" modified="2023-06-01T12:09:34.632Z" agent="Mozilla/5.0 (Windows NT 10.0; Win64; x64) AppleWebKit/537.36 (KHTML, like Gecko) Chrome/114.0.0.0 Safari/537.36" etag="wpPaMeHpj9jdc0l_me0P" version="21.3.6" type="device">
  <diagram name="Page-1" id="AeTgSoCmPTxNKUQqTr5q">
    <mxGraphModel dx="3573" dy="2328" grid="1" gridSize="10" guides="1" tooltips="1" connect="1" arrows="1" fold="1" page="1" pageScale="1" pageWidth="1169" pageHeight="1654" math="0" shadow="0">
      <root>
        <mxCell id="0" />
        <mxCell id="1" parent="0" />
        <mxCell id="Xj1IAxDOlRbnsSGXoDNu-69" value="Owner" style="whiteSpace=wrap;html=1;align=center;" parent="1" vertex="1">
          <mxGeometry x="-1475" y="-1540" width="100" height="40" as="geometry" />
        </mxCell>
        <mxCell id="Xj1IAxDOlRbnsSGXoDNu-70" value="owner_email&amp;nbsp;" style="ellipse;whiteSpace=wrap;html=1;align=center;" parent="1" vertex="1">
          <mxGeometry x="-1590" y="-1591.5" width="87" height="30" as="geometry" />
        </mxCell>
        <mxCell id="Xj1IAxDOlRbnsSGXoDNu-71" value="&lt;u&gt;owner_id&lt;/u&gt;" style="ellipse;whiteSpace=wrap;html=1;align=center;" parent="1" vertex="1">
          <mxGeometry x="-1521.5" y="-1620" width="90" height="30" as="geometry" />
        </mxCell>
        <mxCell id="Xj1IAxDOlRbnsSGXoDNu-72" value="owner_password&amp;nbsp;" style="ellipse;whiteSpace=wrap;html=1;align=center;" parent="1" vertex="1">
          <mxGeometry x="-1355" y="-1500" width="105" height="30" as="geometry" />
        </mxCell>
        <mxCell id="Xj1IAxDOlRbnsSGXoDNu-74" value="" style="endArrow=none;html=1;rounded=0;entryX=0;entryY=0;entryDx=0;entryDy=0;exitX=1;exitY=1;exitDx=0;exitDy=0;" parent="1" source="Xj1IAxDOlRbnsSGXoDNu-70" target="Xj1IAxDOlRbnsSGXoDNu-69" edge="1">
          <mxGeometry relative="1" as="geometry">
            <mxPoint x="-1540" y="-1610" as="sourcePoint" />
            <mxPoint x="-1835" y="-1367" as="targetPoint" />
          </mxGeometry>
        </mxCell>
        <mxCell id="Xj1IAxDOlRbnsSGXoDNu-75" value="" style="endArrow=none;html=1;rounded=0;entryX=0.25;entryY=0;entryDx=0;entryDy=0;exitX=0.5;exitY=1;exitDx=0;exitDy=0;" parent="1" source="Xj1IAxDOlRbnsSGXoDNu-71" target="Xj1IAxDOlRbnsSGXoDNu-69" edge="1">
          <mxGeometry relative="1" as="geometry">
            <mxPoint x="-1795" y="-1386.87" as="sourcePoint" />
            <mxPoint x="-1725" y="-1387" as="targetPoint" />
          </mxGeometry>
        </mxCell>
        <mxCell id="Xj1IAxDOlRbnsSGXoDNu-76" value="Salary" style="whiteSpace=wrap;html=1;align=center;" parent="1" vertex="1">
          <mxGeometry x="-1736.5" y="-1374.25" width="100" height="40" as="geometry" />
        </mxCell>
        <mxCell id="Xj1IAxDOlRbnsSGXoDNu-77" value="month&amp;nbsp;" style="ellipse;whiteSpace=wrap;html=1;align=center;" parent="1" vertex="1">
          <mxGeometry x="-1744" y="-1421.25" width="73.5" height="15" as="geometry" />
        </mxCell>
        <mxCell id="Xj1IAxDOlRbnsSGXoDNu-78" value="bonus&amp;nbsp;" style="ellipse;whiteSpace=wrap;html=1;align=center;" parent="1" vertex="1">
          <mxGeometry x="-1817.5" y="-1410.5" width="73.5" height="23.75" as="geometry" />
        </mxCell>
        <mxCell id="Xj1IAxDOlRbnsSGXoDNu-79" value="ot_payment&amp;nbsp;" style="ellipse;whiteSpace=wrap;html=1;align=center;" parent="1" vertex="1">
          <mxGeometry x="-1858.25" y="-1375.5" width="90" height="30" as="geometry" />
        </mxCell>
        <mxCell id="Xj1IAxDOlRbnsSGXoDNu-80" value="&lt;u&gt;salary_id&amp;nbsp;&lt;/u&gt;" style="ellipse;whiteSpace=wrap;html=1;align=center;" parent="1" vertex="1">
          <mxGeometry x="-1636.5" y="-1407.75" width="90" height="21" as="geometry" />
        </mxCell>
        <mxCell id="Xj1IAxDOlRbnsSGXoDNu-81" value="deductions&amp;nbsp;" style="ellipse;whiteSpace=wrap;html=1;align=center;" parent="1" vertex="1">
          <mxGeometry x="-1850" y="-1320" width="73.5" height="21.75" as="geometry" />
        </mxCell>
        <mxCell id="Xj1IAxDOlRbnsSGXoDNu-82" value="net_salary&amp;nbsp;" style="ellipse;whiteSpace=wrap;html=1;align=center;" parent="1" vertex="1">
          <mxGeometry x="-1776.5" y="-1308.25" width="80.75" height="24.25" as="geometry" />
        </mxCell>
        <mxCell id="Xj1IAxDOlRbnsSGXoDNu-83" value="" style="endArrow=none;html=1;rounded=0;entryX=1;entryY=0;entryDx=0;entryDy=0;exitX=0.5;exitY=1;exitDx=0;exitDy=0;" parent="1" source="Xj1IAxDOlRbnsSGXoDNu-80" target="Xj1IAxDOlRbnsSGXoDNu-76" edge="1">
          <mxGeometry relative="1" as="geometry">
            <mxPoint x="-1780" y="-1450" as="sourcePoint" />
            <mxPoint x="-1726.5" y="-1464.25" as="targetPoint" />
            <Array as="points" />
          </mxGeometry>
        </mxCell>
        <mxCell id="Xj1IAxDOlRbnsSGXoDNu-84" value="" style="endArrow=none;html=1;rounded=0;entryX=0.5;entryY=0;entryDx=0;entryDy=0;exitX=0.5;exitY=1;exitDx=0;exitDy=0;" parent="1" source="Xj1IAxDOlRbnsSGXoDNu-77" target="Xj1IAxDOlRbnsSGXoDNu-76" edge="1">
          <mxGeometry relative="1" as="geometry">
            <mxPoint x="-1786.5" y="-1434.25" as="sourcePoint" />
            <mxPoint x="-1787.5" y="-1387.38" as="targetPoint" />
          </mxGeometry>
        </mxCell>
        <mxCell id="Xj1IAxDOlRbnsSGXoDNu-85" value="" style="endArrow=none;html=1;rounded=0;entryX=0;entryY=0;entryDx=0;entryDy=0;exitX=1;exitY=1;exitDx=0;exitDy=0;" parent="1" source="Xj1IAxDOlRbnsSGXoDNu-78" target="Xj1IAxDOlRbnsSGXoDNu-76" edge="1">
          <mxGeometry relative="1" as="geometry">
            <mxPoint x="-1795.5" y="-1394.25" as="sourcePoint" />
            <mxPoint x="-1796.5" y="-1347.38" as="targetPoint" />
          </mxGeometry>
        </mxCell>
        <mxCell id="Xj1IAxDOlRbnsSGXoDNu-86" value="" style="endArrow=none;html=1;rounded=0;entryX=0;entryY=0.75;entryDx=0;entryDy=0;exitX=1;exitY=0.5;exitDx=0;exitDy=0;" parent="1" source="Xj1IAxDOlRbnsSGXoDNu-79" target="Xj1IAxDOlRbnsSGXoDNu-76" edge="1">
          <mxGeometry relative="1" as="geometry">
            <mxPoint x="-1786.5" y="-1354.25" as="sourcePoint" />
            <mxPoint x="-1787.5" y="-1307.38" as="targetPoint" />
          </mxGeometry>
        </mxCell>
        <mxCell id="Xj1IAxDOlRbnsSGXoDNu-87" value="" style="endArrow=none;html=1;rounded=0;exitX=0.25;exitY=1;exitDx=0;exitDy=0;entryX=0.5;entryY=0;entryDx=0;entryDy=0;" parent="1" source="Xj1IAxDOlRbnsSGXoDNu-76" target="Xj1IAxDOlRbnsSGXoDNu-82" edge="1">
          <mxGeometry relative="1" as="geometry">
            <mxPoint x="-1656.5" y="-1328.25" as="sourcePoint" />
            <mxPoint x="-1746.5" y="-1278.25" as="targetPoint" />
          </mxGeometry>
        </mxCell>
        <mxCell id="Xj1IAxDOlRbnsSGXoDNu-89" value="manage" style="rhombus;whiteSpace=wrap;html=1;" parent="1" vertex="1">
          <mxGeometry x="-1458" y="-1393" width="80" height="40" as="geometry" />
        </mxCell>
        <mxCell id="Xj1IAxDOlRbnsSGXoDNu-91" value="" style="endArrow=none;html=1;rounded=0;entryX=0;entryY=1;entryDx=0;entryDy=0;exitX=1;exitY=0;exitDx=0;exitDy=0;" parent="1" source="Xj1IAxDOlRbnsSGXoDNu-81" target="Xj1IAxDOlRbnsSGXoDNu-76" edge="1">
          <mxGeometry relative="1" as="geometry">
            <mxPoint x="-1776.5" y="-1313.68" as="sourcePoint" />
            <mxPoint x="-1686.5" y="-1313.68" as="targetPoint" />
          </mxGeometry>
        </mxCell>
        <mxCell id="Xj1IAxDOlRbnsSGXoDNu-95" value="Employee" style="whiteSpace=wrap;html=1;align=center;" parent="1" vertex="1">
          <mxGeometry x="-1440" y="-1270" width="100" height="40" as="geometry" />
        </mxCell>
        <mxCell id="Xj1IAxDOlRbnsSGXoDNu-96" value="&lt;u&gt;emp_id&amp;nbsp;&lt;/u&gt;" style="ellipse;whiteSpace=wrap;html=1;align=center;" parent="1" vertex="1">
          <mxGeometry x="-1540" y="-1370" width="85" height="22.75" as="geometry" />
        </mxCell>
        <mxCell id="Xj1IAxDOlRbnsSGXoDNu-97" value="emp_title" style="ellipse;whiteSpace=wrap;html=1;align=center;" parent="1" vertex="1">
          <mxGeometry x="-1590" y="-1222.25" width="58.5" height="21.5" as="geometry" />
        </mxCell>
        <mxCell id="Xj1IAxDOlRbnsSGXoDNu-98" value="emp_full_name&amp;nbsp;" style="ellipse;whiteSpace=wrap;html=1;align=center;" parent="1" vertex="1">
          <mxGeometry x="-1380" y="-1414" width="97" height="24" as="geometry" />
        </mxCell>
        <mxCell id="Xj1IAxDOlRbnsSGXoDNu-99" value="emp_nic&amp;nbsp;&amp;nbsp;" style="ellipse;whiteSpace=wrap;html=1;align=center;" parent="1" vertex="1">
          <mxGeometry x="-1523" y="-1216.25" width="76.5" height="15.5" as="geometry" />
        </mxCell>
        <mxCell id="Xj1IAxDOlRbnsSGXoDNu-104" value="emp_contactno&amp;nbsp;" style="ellipse;whiteSpace=wrap;html=1;align=center;" parent="1" vertex="1">
          <mxGeometry x="-1330" y="-1214" width="110" height="17" as="geometry" />
        </mxCell>
        <mxCell id="Xj1IAxDOlRbnsSGXoDNu-105" value="emp_email&amp;nbsp;" style="ellipse;whiteSpace=wrap;html=1;align=center;" parent="1" vertex="1">
          <mxGeometry x="-1351.5" y="-1312.5" width="90" height="21" as="geometry" />
        </mxCell>
        <mxCell id="Xj1IAxDOlRbnsSGXoDNu-106" value="emp_address&amp;nbsp;" style="ellipse;whiteSpace=wrap;html=1;align=center;" parent="1" vertex="1">
          <mxGeometry x="-1260" y="-1302.5" width="85" height="21" as="geometry" />
        </mxCell>
        <mxCell id="Xj1IAxDOlRbnsSGXoDNu-107" value="exp_years&amp;nbsp;" style="ellipse;whiteSpace=wrap;html=1;align=center;" parent="1" vertex="1">
          <mxGeometry x="-1283" y="-1279.5" width="90" height="21" as="geometry" />
        </mxCell>
        <mxCell id="Xj1IAxDOlRbnsSGXoDNu-108" value="Welfare Allowance" style="whiteSpace=wrap;html=1;align=center;" parent="1" vertex="1">
          <mxGeometry x="-926.25" y="-1436.12" width="95" height="43.5" as="geometry" />
        </mxCell>
        <mxCell id="Xj1IAxDOlRbnsSGXoDNu-109" value="emp_qualification&amp;nbsp;" style="ellipse;whiteSpace=wrap;html=1;align=center;" parent="1" vertex="1">
          <mxGeometry x="-1513" y="-1188.5" width="110" height="21" as="geometry" />
        </mxCell>
        <mxCell id="Xj1IAxDOlRbnsSGXoDNu-110" value="emp_joint_date&amp;nbsp;" style="ellipse;whiteSpace=wrap;html=1;align=center;" parent="1" vertex="1">
          <mxGeometry x="-1555" y="-1314.25" width="90" height="21" as="geometry" />
        </mxCell>
        <mxCell id="Xj1IAxDOlRbnsSGXoDNu-112" value="emp_password&amp;nbsp;" style="ellipse;whiteSpace=wrap;html=1;align=center;" parent="1" vertex="1">
          <mxGeometry x="-1276.5" y="-1245.5" width="100" height="27" as="geometry" />
        </mxCell>
        <mxCell id="Xj1IAxDOlRbnsSGXoDNu-113" value="allowance_reason&amp;nbsp;" style="ellipse;whiteSpace=wrap;html=1;align=center;" parent="1" vertex="1">
          <mxGeometry x="-838.75" y="-1478.12" width="110" height="27" as="geometry" />
        </mxCell>
        <mxCell id="Xj1IAxDOlRbnsSGXoDNu-114" value="&lt;u&gt;allowance_id&amp;nbsp;&lt;/u&gt;" style="ellipse;whiteSpace=wrap;html=1;align=center;" parent="1" vertex="1">
          <mxGeometry x="-1006.25" y="-1484.12" width="90" height="21" as="geometry" />
        </mxCell>
        <mxCell id="Xj1IAxDOlRbnsSGXoDNu-115" value="allowance_amount&amp;nbsp;" style="ellipse;whiteSpace=wrap;html=1;align=center;" parent="1" vertex="1">
          <mxGeometry x="-929.25" y="-1507.12" width="110" height="29" as="geometry" />
        </mxCell>
        <mxCell id="Xj1IAxDOlRbnsSGXoDNu-117" value="Welfare Type" style="whiteSpace=wrap;html=1;align=center;" parent="1" vertex="1">
          <mxGeometry x="-556.81" y="-1438" width="100" height="40" as="geometry" />
        </mxCell>
        <mxCell id="Xj1IAxDOlRbnsSGXoDNu-118" value="&lt;u&gt;welfare_id&amp;nbsp;&lt;/u&gt;" style="ellipse;whiteSpace=wrap;html=1;align=center;" parent="1" vertex="1">
          <mxGeometry x="-461.81" y="-1389.25" width="110" height="27" as="geometry" />
        </mxCell>
        <mxCell id="Xj1IAxDOlRbnsSGXoDNu-119" value="welfare_amount" style="ellipse;whiteSpace=wrap;html=1;align=center;" parent="1" vertex="1">
          <mxGeometry x="-486.81" y="-1487" width="110" height="27" as="geometry" />
        </mxCell>
        <mxCell id="Xj1IAxDOlRbnsSGXoDNu-120" value="welfare_name&amp;nbsp;" style="ellipse;whiteSpace=wrap;html=1;align=center;" parent="1" vertex="1">
          <mxGeometry x="-644.31" y="-1484.25" width="110" height="27" as="geometry" />
        </mxCell>
        <mxCell id="Xj1IAxDOlRbnsSGXoDNu-121" value="Dependent" style="whiteSpace=wrap;html=1;align=center;" parent="1" vertex="1">
          <mxGeometry x="-2090" y="-1419.5" width="100" height="40" as="geometry" />
        </mxCell>
        <mxCell id="Xj1IAxDOlRbnsSGXoDNu-123" value="" style="endArrow=none;html=1;rounded=0;entryX=0.5;entryY=0;entryDx=0;entryDy=0;exitX=0.554;exitY=1.016;exitDx=0;exitDy=0;exitPerimeter=0;" parent="1" source="Xj1IAxDOlRbnsSGXoDNu-69" target="Xj1IAxDOlRbnsSGXoDNu-89" edge="1">
          <mxGeometry relative="1" as="geometry">
            <mxPoint x="-1425" y="-1500" as="sourcePoint" />
            <mxPoint x="-1420" y="-1400" as="targetPoint" />
            <Array as="points" />
          </mxGeometry>
        </mxCell>
        <mxCell id="Xj1IAxDOlRbnsSGXoDNu-125" value="dep_full_name&amp;nbsp;" style="ellipse;whiteSpace=wrap;html=1;align=center;" parent="1" vertex="1">
          <mxGeometry x="-2230" y="-1460" width="115.75" height="30" as="geometry" />
        </mxCell>
        <mxCell id="Xj1IAxDOlRbnsSGXoDNu-126" value="dep_relationship&amp;nbsp;" style="ellipse;whiteSpace=wrap;html=1;align=center;" parent="1" vertex="1">
          <mxGeometry x="-2124.25" y="-1484.25" width="100" height="30" as="geometry" />
        </mxCell>
        <mxCell id="Xj1IAxDOlRbnsSGXoDNu-127" value="dep_nic&amp;nbsp;" style="ellipse;whiteSpace=wrap;html=1;align=center;" parent="1" vertex="1">
          <mxGeometry x="-2214.25" y="-1425" width="90" height="30" as="geometry" />
        </mxCell>
        <mxCell id="Xj1IAxDOlRbnsSGXoDNu-129" value="dep_date_of_birth&amp;nbsp;" style="ellipse;whiteSpace=wrap;html=1;align=center;" parent="1" vertex="1">
          <mxGeometry x="-2190" y="-1379.5" width="110" height="30" as="geometry" />
        </mxCell>
        <mxCell id="Xj1IAxDOlRbnsSGXoDNu-131" value="dep_address&amp;nbsp;" style="ellipse;whiteSpace=wrap;html=1;align=center;" parent="1" vertex="1">
          <mxGeometry x="-2110" y="-1335.5" width="90" height="30" as="geometry" />
        </mxCell>
        <mxCell id="Xj1IAxDOlRbnsSGXoDNu-132" value="dep_contactno&amp;nbsp;" style="ellipse;whiteSpace=wrap;html=1;align=center;" parent="1" vertex="1">
          <mxGeometry x="-1976.5" y="-1436.25" width="100" height="30" as="geometry" />
        </mxCell>
        <mxCell id="Xj1IAxDOlRbnsSGXoDNu-133" value="" style="endArrow=none;html=1;rounded=0;exitX=1;exitY=1;exitDx=0;exitDy=0;" parent="1" source="Xj1IAxDOlRbnsSGXoDNu-110" edge="1">
          <mxGeometry relative="1" as="geometry">
            <mxPoint x="-1410" y="-1340" as="sourcePoint" />
            <mxPoint x="-1430" y="-1270" as="targetPoint" />
            <Array as="points" />
          </mxGeometry>
        </mxCell>
        <mxCell id="Xj1IAxDOlRbnsSGXoDNu-134" value="" style="endArrow=none;html=1;rounded=0;entryX=0;entryY=1;entryDx=0;entryDy=0;exitX=1;exitY=0;exitDx=0;exitDy=0;" parent="1" source="Xj1IAxDOlRbnsSGXoDNu-97" target="Xj1IAxDOlRbnsSGXoDNu-95" edge="1">
          <mxGeometry relative="1" as="geometry">
            <mxPoint x="-1505" y="-1276" as="sourcePoint" />
            <mxPoint x="-1472" y="-1224" as="targetPoint" />
            <Array as="points" />
          </mxGeometry>
        </mxCell>
        <mxCell id="Xj1IAxDOlRbnsSGXoDNu-135" value="" style="endArrow=none;html=1;rounded=0;entryX=0.383;entryY=0.994;entryDx=0;entryDy=0;exitX=0.5;exitY=0;exitDx=0;exitDy=0;entryPerimeter=0;" parent="1" source="22WwG2nmNLPpAlSexiYf-2" target="Xj1IAxDOlRbnsSGXoDNu-95" edge="1">
          <mxGeometry relative="1" as="geometry">
            <mxPoint x="-1520" y="-1307" as="sourcePoint" />
            <mxPoint x="-1487" y="-1255" as="targetPoint" />
            <Array as="points" />
          </mxGeometry>
        </mxCell>
        <mxCell id="Xj1IAxDOlRbnsSGXoDNu-136" value="" style="endArrow=none;html=1;rounded=0;entryX=0.209;entryY=0.994;entryDx=0;entryDy=0;exitX=0.5;exitY=0;exitDx=0;exitDy=0;entryPerimeter=0;" parent="1" source="Xj1IAxDOlRbnsSGXoDNu-99" target="Xj1IAxDOlRbnsSGXoDNu-95" edge="1">
          <mxGeometry relative="1" as="geometry">
            <mxPoint x="-1433" y="-1294" as="sourcePoint" />
            <mxPoint x="-1400" y="-1242" as="targetPoint" />
            <Array as="points" />
          </mxGeometry>
        </mxCell>
        <mxCell id="Xj1IAxDOlRbnsSGXoDNu-137" value="" style="endArrow=none;html=1;rounded=0;entryX=1;entryY=0;entryDx=0;entryDy=0;exitX=0;exitY=0.5;exitDx=0;exitDy=0;" parent="1" source="Xj1IAxDOlRbnsSGXoDNu-107" target="Xj1IAxDOlRbnsSGXoDNu-95" edge="1">
          <mxGeometry relative="1" as="geometry">
            <mxPoint x="-1270" y="-1307" as="sourcePoint" />
            <mxPoint x="-1237" y="-1255" as="targetPoint" />
            <Array as="points" />
          </mxGeometry>
        </mxCell>
        <mxCell id="Xj1IAxDOlRbnsSGXoDNu-138" value="" style="endArrow=none;html=1;rounded=0;exitX=0;exitY=1;exitDx=0;exitDy=0;entryX=0.75;entryY=1;entryDx=0;entryDy=0;" parent="1" source="Xj1IAxDOlRbnsSGXoDNu-105" target="P81za8iIwrM6wZIT5qn2-64" edge="1">
          <mxGeometry relative="1" as="geometry">
            <mxPoint x="-1290" y="-1368" as="sourcePoint" />
            <mxPoint x="-1370" y="-1270" as="targetPoint" />
            <Array as="points" />
          </mxGeometry>
        </mxCell>
        <mxCell id="Xj1IAxDOlRbnsSGXoDNu-139" value="" style="endArrow=none;html=1;rounded=0;entryX=0.821;entryY=0.005;entryDx=0;entryDy=0;exitX=0;exitY=0.5;exitDx=0;exitDy=0;entryPerimeter=0;" parent="1" source="Xj1IAxDOlRbnsSGXoDNu-106" target="Xj1IAxDOlRbnsSGXoDNu-95" edge="1">
          <mxGeometry relative="1" as="geometry">
            <mxPoint x="-1280" y="-1336.5" as="sourcePoint" />
            <mxPoint x="-1247" y="-1284.5" as="targetPoint" />
            <Array as="points" />
          </mxGeometry>
        </mxCell>
        <mxCell id="Xj1IAxDOlRbnsSGXoDNu-140" value="" style="endArrow=none;html=1;rounded=0;exitX=0;exitY=1;exitDx=0;exitDy=0;entryX=0.43;entryY=0.054;entryDx=0;entryDy=0;entryPerimeter=0;" parent="1" source="Xj1IAxDOlRbnsSGXoDNu-98" target="Xj1IAxDOlRbnsSGXoDNu-95" edge="1">
          <mxGeometry relative="1" as="geometry">
            <mxPoint x="-1380" y="-1418" as="sourcePoint" />
            <mxPoint x="-1400" y="-1270" as="targetPoint" />
            <Array as="points" />
          </mxGeometry>
        </mxCell>
        <mxCell id="Xj1IAxDOlRbnsSGXoDNu-142" value="" style="endArrow=none;html=1;rounded=0;entryX=0.25;entryY=0;entryDx=0;entryDy=0;exitX=1;exitY=0.5;exitDx=0;exitDy=0;" parent="1" source="Xj1IAxDOlRbnsSGXoDNu-96" target="Xj1IAxDOlRbnsSGXoDNu-95" edge="1">
          <mxGeometry relative="1" as="geometry">
            <mxPoint x="-1373" y="-1234" as="sourcePoint" />
            <mxPoint x="-1340" y="-1182" as="targetPoint" />
            <Array as="points" />
          </mxGeometry>
        </mxCell>
        <mxCell id="Xj1IAxDOlRbnsSGXoDNu-143" value="" style="endArrow=none;html=1;rounded=0;entryX=1;entryY=1;entryDx=0;entryDy=0;exitX=0;exitY=0.5;exitDx=0;exitDy=0;" parent="1" source="Xj1IAxDOlRbnsSGXoDNu-112" target="Xj1IAxDOlRbnsSGXoDNu-95" edge="1">
          <mxGeometry relative="1" as="geometry">
            <mxPoint x="-1270" y="-1276" as="sourcePoint" />
            <mxPoint x="-1237" y="-1224" as="targetPoint" />
            <Array as="points" />
          </mxGeometry>
        </mxCell>
        <mxCell id="Xj1IAxDOlRbnsSGXoDNu-144" value="" style="endArrow=none;html=1;rounded=0;entryX=0;entryY=0;entryDx=0;entryDy=0;exitX=0.75;exitY=1;exitDx=0;exitDy=0;" parent="1" source="Xj1IAxDOlRbnsSGXoDNu-95" target="22WwG2nmNLPpAlSexiYf-4" edge="1">
          <mxGeometry relative="1" as="geometry">
            <mxPoint x="-1353" y="-1214" as="sourcePoint" />
            <mxPoint x="-1320" y="-1162" as="targetPoint" />
            <Array as="points" />
          </mxGeometry>
        </mxCell>
        <mxCell id="Xj1IAxDOlRbnsSGXoDNu-145" value="" style="endArrow=none;html=1;rounded=0;entryX=0;entryY=0;entryDx=0;entryDy=0;exitX=1;exitY=0.75;exitDx=0;exitDy=0;" parent="1" target="Xj1IAxDOlRbnsSGXoDNu-108" edge="1">
          <mxGeometry relative="1" as="geometry">
            <mxPoint x="-966.25" y="-1463.12" as="sourcePoint" />
            <mxPoint x="-892.25" y="-1463.12" as="targetPoint" />
            <Array as="points" />
          </mxGeometry>
        </mxCell>
        <mxCell id="Xj1IAxDOlRbnsSGXoDNu-146" value="" style="endArrow=none;html=1;rounded=0;entryX=0.5;entryY=1;entryDx=0;entryDy=0;exitX=1;exitY=0;exitDx=0;exitDy=0;" parent="1" source="Xj1IAxDOlRbnsSGXoDNu-108" target="Xj1IAxDOlRbnsSGXoDNu-113" edge="1">
          <mxGeometry relative="1" as="geometry">
            <mxPoint x="-876.25" y="-1466.12" as="sourcePoint" />
            <mxPoint x="-802.25" y="-1466.12" as="targetPoint" />
            <Array as="points" />
          </mxGeometry>
        </mxCell>
        <mxCell id="Xj1IAxDOlRbnsSGXoDNu-147" value="" style="endArrow=none;html=1;rounded=0;entryX=0.5;entryY=0;entryDx=0;entryDy=0;exitX=0.5;exitY=1;exitDx=0;exitDy=0;" parent="1" source="Xj1IAxDOlRbnsSGXoDNu-115" target="Xj1IAxDOlRbnsSGXoDNu-108" edge="1">
          <mxGeometry relative="1" as="geometry">
            <mxPoint x="-906.25" y="-1487.12" as="sourcePoint" />
            <mxPoint x="-832.25" y="-1487.12" as="targetPoint" />
            <Array as="points" />
          </mxGeometry>
        </mxCell>
        <mxCell id="Xj1IAxDOlRbnsSGXoDNu-148" value="" style="endArrow=none;html=1;rounded=0;entryX=0.25;entryY=0;entryDx=0;entryDy=0;exitX=0.5;exitY=1;exitDx=0;exitDy=0;" parent="1" source="Xj1IAxDOlRbnsSGXoDNu-120" target="Xj1IAxDOlRbnsSGXoDNu-117" edge="1">
          <mxGeometry relative="1" as="geometry">
            <mxPoint x="-586.81" y="-1465" as="sourcePoint" />
            <mxPoint x="-512.81" y="-1465" as="targetPoint" />
            <Array as="points" />
          </mxGeometry>
        </mxCell>
        <mxCell id="Xj1IAxDOlRbnsSGXoDNu-149" value="" style="endArrow=none;html=1;rounded=0;entryX=1;entryY=1;entryDx=0;entryDy=0;exitX=0.5;exitY=0;exitDx=0;exitDy=0;" parent="1" source="Xj1IAxDOlRbnsSGXoDNu-118" target="Xj1IAxDOlRbnsSGXoDNu-117" edge="1">
          <mxGeometry relative="1" as="geometry">
            <mxPoint x="-556.81" y="-1516" as="sourcePoint" />
            <mxPoint x="-482.81" y="-1516" as="targetPoint" />
            <Array as="points" />
          </mxGeometry>
        </mxCell>
        <mxCell id="Xj1IAxDOlRbnsSGXoDNu-150" value="" style="endArrow=none;html=1;rounded=0;entryX=0.5;entryY=1;entryDx=0;entryDy=0;exitX=0.656;exitY=0.005;exitDx=0;exitDy=0;exitPerimeter=0;" parent="1" source="Xj1IAxDOlRbnsSGXoDNu-117" target="Xj1IAxDOlRbnsSGXoDNu-119" edge="1">
          <mxGeometry relative="1" as="geometry">
            <mxPoint x="-506.81" y="-1475" as="sourcePoint" />
            <mxPoint x="-432.81" y="-1475" as="targetPoint" />
            <Array as="points" />
          </mxGeometry>
        </mxCell>
        <mxCell id="Xj1IAxDOlRbnsSGXoDNu-153" value="" style="endArrow=none;html=1;rounded=0;exitX=0.5;exitY=1;exitDx=0;exitDy=0;entryX=0.25;entryY=0;entryDx=0;entryDy=0;" parent="1" source="Xj1IAxDOlRbnsSGXoDNu-126" target="Xj1IAxDOlRbnsSGXoDNu-121" edge="1">
          <mxGeometry relative="1" as="geometry">
            <mxPoint x="-2105" y="-1470.5" as="sourcePoint" />
            <mxPoint x="-2140" y="-1414.5" as="targetPoint" />
          </mxGeometry>
        </mxCell>
        <mxCell id="Xj1IAxDOlRbnsSGXoDNu-154" value="" style="endArrow=none;html=1;rounded=0;exitX=1;exitY=1;exitDx=0;exitDy=0;entryX=0;entryY=0.25;entryDx=0;entryDy=0;" parent="1" source="Xj1IAxDOlRbnsSGXoDNu-125" target="Xj1IAxDOlRbnsSGXoDNu-121" edge="1">
          <mxGeometry relative="1" as="geometry">
            <mxPoint x="-2150" y="-1435.5" as="sourcePoint" />
            <mxPoint x="-2185" y="-1379.5" as="targetPoint" />
          </mxGeometry>
        </mxCell>
        <mxCell id="Xj1IAxDOlRbnsSGXoDNu-155" value="" style="endArrow=none;html=1;rounded=0;exitX=1;exitY=0.5;exitDx=0;exitDy=0;entryX=0;entryY=1;entryDx=0;entryDy=0;" parent="1" source="Xj1IAxDOlRbnsSGXoDNu-121" target="Xj1IAxDOlRbnsSGXoDNu-132" edge="1">
          <mxGeometry relative="1" as="geometry">
            <mxPoint x="-2070" y="-1385.5" as="sourcePoint" />
            <mxPoint x="-2110" y="-1296.5" as="targetPoint" />
          </mxGeometry>
        </mxCell>
        <mxCell id="Xj1IAxDOlRbnsSGXoDNu-156" value="" style="endArrow=none;html=1;rounded=0;exitX=0.5;exitY=1;exitDx=0;exitDy=0;entryX=0.5;entryY=0;entryDx=0;entryDy=0;" parent="1" source="Xj1IAxDOlRbnsSGXoDNu-121" target="Xj1IAxDOlRbnsSGXoDNu-131" edge="1">
          <mxGeometry relative="1" as="geometry">
            <mxPoint x="-2115" y="-1382.5" as="sourcePoint" />
            <mxPoint x="-2150" y="-1326.5" as="targetPoint" />
          </mxGeometry>
        </mxCell>
        <mxCell id="Xj1IAxDOlRbnsSGXoDNu-157" value="" style="endArrow=none;html=1;rounded=0;exitX=0;exitY=0.75;exitDx=0;exitDy=0;entryX=0.5;entryY=0;entryDx=0;entryDy=0;" parent="1" source="Xj1IAxDOlRbnsSGXoDNu-121" target="Xj1IAxDOlRbnsSGXoDNu-129" edge="1">
          <mxGeometry relative="1" as="geometry">
            <mxPoint x="-2135" y="-1419.5" as="sourcePoint" />
            <mxPoint x="-2170" y="-1363.5" as="targetPoint" />
          </mxGeometry>
        </mxCell>
        <mxCell id="Xj1IAxDOlRbnsSGXoDNu-158" value="" style="endArrow=none;html=1;rounded=0;exitX=0;exitY=0.5;exitDx=0;exitDy=0;entryX=1;entryY=0.5;entryDx=0;entryDy=0;" parent="1" source="Xj1IAxDOlRbnsSGXoDNu-121" target="Xj1IAxDOlRbnsSGXoDNu-127" edge="1">
          <mxGeometry relative="1" as="geometry">
            <mxPoint x="-2135" y="-1457.5" as="sourcePoint" />
            <mxPoint x="-2170" y="-1401.5" as="targetPoint" />
          </mxGeometry>
        </mxCell>
        <mxCell id="Xj1IAxDOlRbnsSGXoDNu-159" value="Attendence" style="whiteSpace=wrap;html=1;align=center;" parent="1" vertex="1">
          <mxGeometry x="-642.5" y="-1266" width="100" height="46" as="geometry" />
        </mxCell>
        <mxCell id="Xj1IAxDOlRbnsSGXoDNu-160" value="arrival_time&amp;nbsp;" style="ellipse;whiteSpace=wrap;html=1;align=center;" parent="1" vertex="1">
          <mxGeometry x="-735" y="-1307" width="90" height="30" as="geometry" />
        </mxCell>
        <mxCell id="Xj1IAxDOlRbnsSGXoDNu-164" value="attendance_date" style="ellipse;whiteSpace=wrap;html=1;align=center;" parent="1" vertex="1">
          <mxGeometry x="-530" y="-1248" width="105" height="30" as="geometry" />
        </mxCell>
        <mxCell id="Xj1IAxDOlRbnsSGXoDNu-165" value="leaving_time&amp;nbsp;" style="ellipse;whiteSpace=wrap;html=1;align=center;" parent="1" vertex="1">
          <mxGeometry x="-642.5" y="-1334.25" width="90" height="30" as="geometry" />
        </mxCell>
        <mxCell id="Xj1IAxDOlRbnsSGXoDNu-166" value="&lt;u&gt;attendance_id&amp;nbsp;&lt;/u&gt;" style="ellipse;whiteSpace=wrap;html=1;align=center;" parent="1" vertex="1">
          <mxGeometry x="-545" y="-1317" width="90" height="30" as="geometry" />
        </mxCell>
        <mxCell id="Xj1IAxDOlRbnsSGXoDNu-167" value="" style="endArrow=none;html=1;rounded=0;exitX=0.75;exitY=0;exitDx=0;exitDy=0;entryX=0;entryY=1;entryDx=0;entryDy=0;" parent="1" source="Xj1IAxDOlRbnsSGXoDNu-159" target="Xj1IAxDOlRbnsSGXoDNu-166" edge="1">
          <mxGeometry relative="1" as="geometry">
            <mxPoint x="-652.5" y="-1259.5" as="sourcePoint" />
            <mxPoint x="-702.5" y="-1253.5" as="targetPoint" />
          </mxGeometry>
        </mxCell>
        <mxCell id="Xj1IAxDOlRbnsSGXoDNu-168" value="" style="endArrow=none;html=1;rounded=0;exitX=1;exitY=0.5;exitDx=0;exitDy=0;entryX=0;entryY=0;entryDx=0;entryDy=0;" parent="1" source="Xj1IAxDOlRbnsSGXoDNu-159" target="Xj1IAxDOlRbnsSGXoDNu-164" edge="1">
          <mxGeometry relative="1" as="geometry">
            <mxPoint x="-677.5" y="-1349.5" as="sourcePoint" />
            <mxPoint x="-712.5" y="-1293.5" as="targetPoint" />
          </mxGeometry>
        </mxCell>
        <mxCell id="Xj1IAxDOlRbnsSGXoDNu-169" value="" style="endArrow=none;html=1;rounded=0;exitX=0;exitY=0;exitDx=0;exitDy=0;entryX=0.5;entryY=1;entryDx=0;entryDy=0;" parent="1" source="Xj1IAxDOlRbnsSGXoDNu-159" target="Xj1IAxDOlRbnsSGXoDNu-160" edge="1">
          <mxGeometry relative="1" as="geometry">
            <mxPoint x="-652.5" y="-1379.5" as="sourcePoint" />
            <mxPoint x="-687.5" y="-1323.5" as="targetPoint" />
          </mxGeometry>
        </mxCell>
        <mxCell id="Xj1IAxDOlRbnsSGXoDNu-170" value="" style="endArrow=none;html=1;rounded=0;exitX=0.5;exitY=1;exitDx=0;exitDy=0;entryX=0.25;entryY=0;entryDx=0;entryDy=0;" parent="1" source="Xj1IAxDOlRbnsSGXoDNu-165" target="Xj1IAxDOlRbnsSGXoDNu-159" edge="1">
          <mxGeometry relative="1" as="geometry">
            <mxPoint x="-667.5" y="-1379.5" as="sourcePoint" />
            <mxPoint x="-702.5" y="-1323.5" as="targetPoint" />
          </mxGeometry>
        </mxCell>
        <mxCell id="Xj1IAxDOlRbnsSGXoDNu-174" value="leave_type&amp;nbsp;" style="ellipse;whiteSpace=wrap;html=1;align=center;" parent="1" vertex="1">
          <mxGeometry x="-380" y="-1214" width="80" height="26" as="geometry" />
        </mxCell>
        <mxCell id="Xj1IAxDOlRbnsSGXoDNu-175" value="no_of_days" style="ellipse;whiteSpace=wrap;html=1;align=center;" parent="1" vertex="1">
          <mxGeometry x="-290" y="-1200" width="70" height="30" as="geometry" />
        </mxCell>
        <mxCell id="Xj1IAxDOlRbnsSGXoDNu-178" value="leave_from" style="ellipse;whiteSpace=wrap;html=1;align=center;" parent="1" vertex="1">
          <mxGeometry x="-390" y="-1114.5" width="70" height="24.5" as="geometry" />
        </mxCell>
        <mxCell id="Xj1IAxDOlRbnsSGXoDNu-180" value="" style="endArrow=none;html=1;rounded=0;entryX=1;entryY=0;entryDx=0;entryDy=0;exitX=0.25;exitY=1;exitDx=0;exitDy=0;" parent="1" source="Xj1IAxDOlRbnsSGXoDNu-186" target="Xj1IAxDOlRbnsSGXoDNu-178" edge="1">
          <mxGeometry relative="1" as="geometry">
            <mxPoint x="-389.5" y="-1059.5" as="sourcePoint" />
            <mxPoint x="-460" y="-1083.5" as="targetPoint" />
          </mxGeometry>
        </mxCell>
        <mxCell id="Xj1IAxDOlRbnsSGXoDNu-181" value="" style="endArrow=none;html=1;rounded=0;exitX=0.25;exitY=0;exitDx=0;exitDy=0;entryX=0.5;entryY=1;entryDx=0;entryDy=0;" parent="1" source="Xj1IAxDOlRbnsSGXoDNu-186" target="Xj1IAxDOlRbnsSGXoDNu-174" edge="1">
          <mxGeometry relative="1" as="geometry">
            <mxPoint x="-390" y="-1069.5" as="sourcePoint" />
            <mxPoint x="-435" y="-1113.5" as="targetPoint" />
          </mxGeometry>
        </mxCell>
        <mxCell id="Xj1IAxDOlRbnsSGXoDNu-183" value="" style="endArrow=none;html=1;rounded=0;exitX=0.5;exitY=1;exitDx=0;exitDy=0;entryX=0.75;entryY=0;entryDx=0;entryDy=0;" parent="1" source="Xj1IAxDOlRbnsSGXoDNu-175" target="Xj1IAxDOlRbnsSGXoDNu-186" edge="1">
          <mxGeometry relative="1" as="geometry">
            <mxPoint x="-347.5" y="-1145.5" as="sourcePoint" />
            <mxPoint x="-347" y="-1067.5" as="targetPoint" />
          </mxGeometry>
        </mxCell>
        <mxCell id="Xj1IAxDOlRbnsSGXoDNu-186" value="Leave" style="whiteSpace=wrap;html=1;align=center;" parent="1" vertex="1">
          <mxGeometry x="-340" y="-1165" width="100" height="40" as="geometry" />
        </mxCell>
        <mxCell id="Xj1IAxDOlRbnsSGXoDNu-187" value="Purchase Order" style="whiteSpace=wrap;html=1;align=center;" parent="1" vertex="1">
          <mxGeometry x="-2050" y="-970" width="100" height="40" as="geometry" />
        </mxCell>
        <mxCell id="Xj1IAxDOlRbnsSGXoDNu-188" value="po_status&amp;nbsp;" style="ellipse;whiteSpace=wrap;html=1;align=center;" parent="1" vertex="1">
          <mxGeometry x="-1940" y="-1000" width="75.75" height="17.75" as="geometry" />
        </mxCell>
        <mxCell id="Xj1IAxDOlRbnsSGXoDNu-189" value="&lt;u&gt;po_id&amp;nbsp;&lt;/u&gt;" style="ellipse;whiteSpace=wrap;html=1;align=center;" parent="1" vertex="1">
          <mxGeometry x="-2180" y="-970" width="90" height="21" as="geometry" />
        </mxCell>
        <mxCell id="Xj1IAxDOlRbnsSGXoDNu-190" value="order_date&amp;nbsp;" style="ellipse;whiteSpace=wrap;html=1;align=center;" parent="1" vertex="1">
          <mxGeometry x="-2124.25" y="-1012" width="90" height="29" as="geometry" />
        </mxCell>
        <mxCell id="Xj1IAxDOlRbnsSGXoDNu-191" value="" style="endArrow=none;html=1;rounded=0;exitX=1;exitY=0.5;exitDx=0;exitDy=0;" parent="1" source="Xj1IAxDOlRbnsSGXoDNu-189" edge="1">
          <mxGeometry relative="1" as="geometry">
            <mxPoint x="-2090" y="-997" as="sourcePoint" />
            <mxPoint x="-2050" y="-950" as="targetPoint" />
            <Array as="points" />
          </mxGeometry>
        </mxCell>
        <mxCell id="Xj1IAxDOlRbnsSGXoDNu-192" value="" style="endArrow=none;html=1;rounded=0;entryX=0.5;entryY=1;entryDx=0;entryDy=0;exitX=1;exitY=0;exitDx=0;exitDy=0;" parent="1" source="Xj1IAxDOlRbnsSGXoDNu-187" target="Xj1IAxDOlRbnsSGXoDNu-188" edge="1">
          <mxGeometry relative="1" as="geometry">
            <mxPoint x="-2000" y="-1000" as="sourcePoint" />
            <mxPoint x="-1926" y="-1000" as="targetPoint" />
            <Array as="points" />
          </mxGeometry>
        </mxCell>
        <mxCell id="Xj1IAxDOlRbnsSGXoDNu-193" value="" style="endArrow=none;html=1;rounded=0;entryX=0.25;entryY=0;entryDx=0;entryDy=0;exitX=1;exitY=1;exitDx=0;exitDy=0;" parent="1" source="Xj1IAxDOlRbnsSGXoDNu-190" target="Xj1IAxDOlRbnsSGXoDNu-187" edge="1">
          <mxGeometry relative="1" as="geometry">
            <mxPoint x="-2030" y="-1021" as="sourcePoint" />
            <mxPoint x="-1956" y="-1021" as="targetPoint" />
            <Array as="points" />
          </mxGeometry>
        </mxCell>
        <mxCell id="Xj1IAxDOlRbnsSGXoDNu-194" value="total_amount&amp;nbsp;" style="ellipse;whiteSpace=wrap;html=1;align=center;" parent="1" vertex="1">
          <mxGeometry x="-2150" y="-924" width="90" height="21" as="geometry" />
        </mxCell>
        <mxCell id="Xj1IAxDOlRbnsSGXoDNu-195" value="" style="endArrow=none;html=1;rounded=0;entryX=0;entryY=1;entryDx=0;entryDy=0;exitX=1;exitY=0;exitDx=0;exitDy=0;" parent="1" source="Xj1IAxDOlRbnsSGXoDNu-194" target="Xj1IAxDOlRbnsSGXoDNu-187" edge="1">
          <mxGeometry relative="1" as="geometry">
            <mxPoint x="-2110" y="-977" as="sourcePoint" />
            <mxPoint x="-2070" y="-950" as="targetPoint" />
            <Array as="points" />
          </mxGeometry>
        </mxCell>
        <mxCell id="Xj1IAxDOlRbnsSGXoDNu-196" value="GRN" style="whiteSpace=wrap;html=1;align=center;" parent="1" vertex="1">
          <mxGeometry x="-1730" y="-791" width="110" height="40" as="geometry" />
        </mxCell>
        <mxCell id="Xj1IAxDOlRbnsSGXoDNu-198" value="received_date&amp;nbsp;" style="ellipse;whiteSpace=wrap;html=1;align=center;" parent="1" vertex="1">
          <mxGeometry x="-1848" y="-803.5" width="90" height="21" as="geometry" />
        </mxCell>
        <mxCell id="Xj1IAxDOlRbnsSGXoDNu-199" value="total_amount&amp;nbsp;" style="ellipse;whiteSpace=wrap;html=1;align=center;" parent="1" vertex="1">
          <mxGeometry x="-1789" y="-841" width="92.5" height="29" as="geometry" />
        </mxCell>
        <mxCell id="Xj1IAxDOlRbnsSGXoDNu-200" value="" style="endArrow=none;html=1;rounded=0;entryX=0;entryY=0;entryDx=0;entryDy=0;exitX=1;exitY=0.5;exitDx=0;exitDy=0;" parent="1" source="Xj1IAxDOlRbnsSGXoDNu-198" target="Xj1IAxDOlRbnsSGXoDNu-196" edge="1">
          <mxGeometry relative="1" as="geometry">
            <mxPoint x="-1745" y="-797" as="sourcePoint" />
            <mxPoint x="-1671" y="-797" as="targetPoint" />
            <Array as="points" />
          </mxGeometry>
        </mxCell>
        <mxCell id="Xj1IAxDOlRbnsSGXoDNu-202" value="" style="endArrow=none;html=1;rounded=0;entryX=0.5;entryY=0;entryDx=0;entryDy=0;exitX=0.799;exitY=0.919;exitDx=0;exitDy=0;exitPerimeter=0;" parent="1" source="Xj1IAxDOlRbnsSGXoDNu-199" target="Xj1IAxDOlRbnsSGXoDNu-196" edge="1">
          <mxGeometry relative="1" as="geometry">
            <mxPoint x="-1685" y="-821" as="sourcePoint" />
            <mxPoint x="-1611" y="-821" as="targetPoint" />
            <Array as="points" />
          </mxGeometry>
        </mxCell>
        <mxCell id="Xj1IAxDOlRbnsSGXoDNu-203" value="&lt;u&gt;grn_id&amp;nbsp;&lt;/u&gt;" style="ellipse;whiteSpace=wrap;html=1;align=center;" parent="1" vertex="1">
          <mxGeometry x="-1848" y="-770" width="90" height="21" as="geometry" />
        </mxCell>
        <mxCell id="Xj1IAxDOlRbnsSGXoDNu-204" value="" style="endArrow=none;html=1;rounded=0;entryX=0;entryY=0.5;entryDx=0;entryDy=0;exitX=1;exitY=0;exitDx=0;exitDy=0;" parent="1" source="Xj1IAxDOlRbnsSGXoDNu-203" target="Xj1IAxDOlRbnsSGXoDNu-196" edge="1">
          <mxGeometry relative="1" as="geometry">
            <mxPoint x="-1765" y="-777" as="sourcePoint" />
            <mxPoint x="-1725" y="-750" as="targetPoint" />
            <Array as="points" />
          </mxGeometry>
        </mxCell>
        <mxCell id="Xj1IAxDOlRbnsSGXoDNu-205" value="Pharmacist" style="whiteSpace=wrap;html=1;align=center;" parent="1" vertex="1">
          <mxGeometry x="-1526.5" y="-1029.25" width="100" height="40" as="geometry" />
        </mxCell>
        <mxCell id="Xj1IAxDOlRbnsSGXoDNu-206" value="license_no&amp;nbsp;" style="ellipse;whiteSpace=wrap;html=1;align=center;" parent="1" vertex="1">
          <mxGeometry x="-1646.5" y="-1075.25" width="110" height="29" as="geometry" />
        </mxCell>
        <mxCell id="Xj1IAxDOlRbnsSGXoDNu-207" value="" style="endArrow=none;html=1;rounded=0;entryX=0;entryY=0;entryDx=0;entryDy=0;exitX=0.5;exitY=1;exitDx=0;exitDy=0;" parent="1" source="Xj1IAxDOlRbnsSGXoDNu-206" target="Xj1IAxDOlRbnsSGXoDNu-205" edge="1">
          <mxGeometry relative="1" as="geometry">
            <mxPoint x="-1726.5" y="-1117.25" as="sourcePoint" />
            <mxPoint x="-1703.5" y="-1068.25" as="targetPoint" />
            <Array as="points" />
          </mxGeometry>
        </mxCell>
        <mxCell id="Xj1IAxDOlRbnsSGXoDNu-208" value="Cashier" style="whiteSpace=wrap;html=1;align=center;" parent="1" vertex="1">
          <mxGeometry x="-1360" y="-1031" width="100" height="40" as="geometry" />
        </mxCell>
        <mxCell id="Xj1IAxDOlRbnsSGXoDNu-209" value="cashHandleLimit&amp;nbsp;" style="ellipse;whiteSpace=wrap;html=1;align=center;" parent="1" vertex="1">
          <mxGeometry x="-1330" y="-1065.5" width="110" height="29" as="geometry" />
        </mxCell>
        <mxCell id="Xj1IAxDOlRbnsSGXoDNu-210" value="" style="endArrow=none;html=1;rounded=0;entryX=0.5;entryY=0;entryDx=0;entryDy=0;exitX=0.279;exitY=0.889;exitDx=0;exitDy=0;exitPerimeter=0;" parent="1" source="Xj1IAxDOlRbnsSGXoDNu-209" target="Xj1IAxDOlRbnsSGXoDNu-208" edge="1">
          <mxGeometry relative="1" as="geometry">
            <mxPoint x="-1560" y="-1119" as="sourcePoint" />
            <mxPoint x="-1537" y="-1070" as="targetPoint" />
            <Array as="points" />
          </mxGeometry>
        </mxCell>
        <mxCell id="Xj1IAxDOlRbnsSGXoDNu-211" value="Invoice" style="whiteSpace=wrap;html=1;align=center;" parent="1" vertex="1">
          <mxGeometry x="-825" y="-770" width="100" height="40" as="geometry" />
        </mxCell>
        <mxCell id="Xj1IAxDOlRbnsSGXoDNu-212" value="&lt;u&gt;invoice_id&lt;/u&gt;" style="ellipse;whiteSpace=wrap;html=1;align=center;" parent="1" vertex="1">
          <mxGeometry x="-755" y="-828.5" width="75" height="32" as="geometry" />
        </mxCell>
        <mxCell id="Xj1IAxDOlRbnsSGXoDNu-213" value="" style="endArrow=none;html=1;rounded=0;entryX=0.75;entryY=0;entryDx=0;entryDy=0;exitX=0;exitY=1;exitDx=0;exitDy=0;" parent="1" source="Xj1IAxDOlRbnsSGXoDNu-212" target="Xj1IAxDOlRbnsSGXoDNu-211" edge="1">
          <mxGeometry relative="1" as="geometry">
            <mxPoint x="-1070" y="-858" as="sourcePoint" />
            <mxPoint x="-1047" y="-809" as="targetPoint" />
            <Array as="points" />
          </mxGeometry>
        </mxCell>
        <mxCell id="Xj1IAxDOlRbnsSGXoDNu-214" value="Order" style="whiteSpace=wrap;html=1;align=center;" parent="1" vertex="1">
          <mxGeometry x="-1185" y="-770" width="100" height="40" as="geometry" />
        </mxCell>
        <mxCell id="Xj1IAxDOlRbnsSGXoDNu-215" value="" style="endArrow=none;html=1;rounded=0;entryX=0.5;entryY=1;entryDx=0;entryDy=0;exitX=0.5;exitY=1;exitDx=0;exitDy=0;" parent="1" source="Xj1IAxDOlRbnsSGXoDNu-216" target="Xj1IAxDOlRbnsSGXoDNu-214" edge="1">
          <mxGeometry relative="1" as="geometry">
            <mxPoint x="-1176" y="-827.5" as="sourcePoint" />
            <mxPoint x="-1342" y="-821.5" as="targetPoint" />
            <Array as="points" />
          </mxGeometry>
        </mxCell>
        <mxCell id="Xj1IAxDOlRbnsSGXoDNu-216" value="&lt;span style=&quot;color: rgb(0, 0, 0); font-family: Helvetica; font-size: 12px; font-style: normal; font-variant-ligatures: normal; font-variant-caps: normal; font-weight: 400; letter-spacing: normal; orphans: 2; text-align: left; text-indent: 0px; text-transform: none; widows: 2; word-spacing: 0px; -webkit-text-stroke-width: 0px; background-color: rgb(251, 251, 251); text-decoration-thickness: initial; text-decoration-style: initial; text-decoration-color: initial; float: none; display: inline !important;&quot;&gt;order_total&lt;span&gt;&amp;nbsp;&lt;/span&gt;&lt;/span&gt;&lt;br&gt;" style="ellipse;whiteSpace=wrap;html=1;align=center;" parent="1" vertex="1">
          <mxGeometry x="-1264" y="-710" width="85" height="29" as="geometry" />
        </mxCell>
        <mxCell id="Xj1IAxDOlRbnsSGXoDNu-217" value="Item" style="whiteSpace=wrap;html=1;align=center;" parent="1" vertex="1">
          <mxGeometry x="-580" y="-556" width="100" height="40" as="geometry" />
        </mxCell>
        <mxCell id="Xj1IAxDOlRbnsSGXoDNu-218" value="item_brand&amp;nbsp;" style="ellipse;whiteSpace=wrap;html=1;align=center;" parent="1" vertex="1">
          <mxGeometry x="-536.81" y="-633.5" width="80" height="20" as="geometry" />
        </mxCell>
        <mxCell id="Xj1IAxDOlRbnsSGXoDNu-219" value="item_unit_cost&amp;nbsp;" style="ellipse;whiteSpace=wrap;html=1;align=center;" parent="1" vertex="1">
          <mxGeometry x="-395" y="-553" width="90" height="26" as="geometry" />
        </mxCell>
        <mxCell id="Xj1IAxDOlRbnsSGXoDNu-220" value="item_manufacturer&amp;nbsp;" style="ellipse;whiteSpace=wrap;html=1;align=center;" parent="1" vertex="1">
          <mxGeometry x="-333.25" y="-583" width="110" height="30" as="geometry" />
        </mxCell>
        <mxCell id="Xj1IAxDOlRbnsSGXoDNu-221" value="item_description&amp;nbsp;" style="ellipse;whiteSpace=wrap;html=1;align=center;" parent="1" vertex="1">
          <mxGeometry x="-390" y="-511" width="100" height="26" as="geometry" />
        </mxCell>
        <mxCell id="Xj1IAxDOlRbnsSGXoDNu-222" value="&lt;u&gt;item_id&amp;nbsp;&lt;/u&gt;" style="ellipse;whiteSpace=wrap;html=1;align=center;" parent="1" vertex="1">
          <mxGeometry x="-629" y="-504" width="65" height="23" as="geometry" />
        </mxCell>
        <mxCell id="Xj1IAxDOlRbnsSGXoDNu-223" value="" style="endArrow=none;html=1;rounded=0;exitX=0;exitY=1;exitDx=0;exitDy=0;entryX=0.5;entryY=0;entryDx=0;entryDy=0;" parent="1" source="Xj1IAxDOlRbnsSGXoDNu-217" target="Xj1IAxDOlRbnsSGXoDNu-222" edge="1">
          <mxGeometry relative="1" as="geometry">
            <mxPoint x="-590" y="-536" as="sourcePoint" />
            <mxPoint x="-640" y="-530" as="targetPoint" />
          </mxGeometry>
        </mxCell>
        <mxCell id="Xj1IAxDOlRbnsSGXoDNu-224" value="" style="endArrow=none;html=1;rounded=0;exitX=1;exitY=0.5;exitDx=0;exitDy=0;entryX=0;entryY=0;entryDx=0;entryDy=0;" parent="1" source="Xj1IAxDOlRbnsSGXoDNu-217" target="Xj1IAxDOlRbnsSGXoDNu-230" edge="1">
          <mxGeometry relative="1" as="geometry">
            <mxPoint x="-615" y="-626" as="sourcePoint" />
            <mxPoint x="-650" y="-570" as="targetPoint" />
          </mxGeometry>
        </mxCell>
        <mxCell id="Xj1IAxDOlRbnsSGXoDNu-225" value="" style="endArrow=none;html=1;rounded=0;entryX=0.5;entryY=1;entryDx=0;entryDy=0;exitX=0.75;exitY=0;exitDx=0;exitDy=0;" parent="1" source="Xj1IAxDOlRbnsSGXoDNu-217" target="Xj1IAxDOlRbnsSGXoDNu-218" edge="1">
          <mxGeometry relative="1" as="geometry">
            <mxPoint x="-590" y="-656" as="sourcePoint" />
            <mxPoint x="-625" y="-600" as="targetPoint" />
          </mxGeometry>
        </mxCell>
        <mxCell id="Xj1IAxDOlRbnsSGXoDNu-227" value="" style="endArrow=none;html=1;rounded=0;exitX=0;exitY=0.5;exitDx=0;exitDy=0;entryX=1;entryY=0.25;entryDx=0;entryDy=0;" parent="1" source="Xj1IAxDOlRbnsSGXoDNu-219" target="Xj1IAxDOlRbnsSGXoDNu-217" edge="1">
          <mxGeometry relative="1" as="geometry">
            <mxPoint x="-537.5" y="-632" as="sourcePoint" />
            <mxPoint x="-572.5" y="-576" as="targetPoint" />
          </mxGeometry>
        </mxCell>
        <mxCell id="Xj1IAxDOlRbnsSGXoDNu-228" value="" style="endArrow=none;html=1;rounded=0;exitX=0;exitY=0.5;exitDx=0;exitDy=0;entryX=1;entryY=0;entryDx=0;entryDy=0;" parent="1" source="Xj1IAxDOlRbnsSGXoDNu-220" target="Xj1IAxDOlRbnsSGXoDNu-217" edge="1">
          <mxGeometry relative="1" as="geometry">
            <mxPoint x="-465" y="-619" as="sourcePoint" />
            <mxPoint x="-500" y="-563" as="targetPoint" />
          </mxGeometry>
        </mxCell>
        <mxCell id="Xj1IAxDOlRbnsSGXoDNu-229" value="" style="endArrow=none;html=1;rounded=0;exitX=0;exitY=0.5;exitDx=0;exitDy=0;entryX=1;entryY=0.25;entryDx=0;entryDy=0;" parent="1" source="Xj1IAxDOlRbnsSGXoDNu-221" target="Xj1IAxDOlRbnsSGXoDNu-217" edge="1">
          <mxGeometry relative="1" as="geometry">
            <mxPoint x="-425" y="-586" as="sourcePoint" />
            <mxPoint x="-460" y="-530" as="targetPoint" />
          </mxGeometry>
        </mxCell>
        <mxCell id="Xj1IAxDOlRbnsSGXoDNu-230" value="item_name&amp;nbsp;" style="ellipse;whiteSpace=wrap;html=1;align=center;" parent="1" vertex="1">
          <mxGeometry x="-486.81" y="-505" width="90" height="30" as="geometry" />
        </mxCell>
        <mxCell id="Xj1IAxDOlRbnsSGXoDNu-231" value="Supplier" style="whiteSpace=wrap;html=1;align=center;" parent="1" vertex="1">
          <mxGeometry x="-2118.25" y="-566" width="100" height="40" as="geometry" />
        </mxCell>
        <mxCell id="Xj1IAxDOlRbnsSGXoDNu-232" value="sup_nic&amp;nbsp;" style="ellipse;whiteSpace=wrap;html=1;align=center;" parent="1" vertex="1">
          <mxGeometry x="-2170" y="-625" width="90" height="24" as="geometry" />
        </mxCell>
        <mxCell id="Xj1IAxDOlRbnsSGXoDNu-233" value="sup_contactno&amp;nbsp;" style="ellipse;whiteSpace=wrap;html=1;align=center;" parent="1" vertex="1">
          <mxGeometry x="-2252.5" y="-609" width="90" height="30" as="geometry" />
        </mxCell>
        <mxCell id="Xj1IAxDOlRbnsSGXoDNu-234" value="sup_email&amp;nbsp;" style="ellipse;whiteSpace=wrap;html=1;align=center;" parent="1" vertex="1">
          <mxGeometry x="-2114.25" y="-649" width="74.25" height="24" as="geometry" />
        </mxCell>
        <mxCell id="Xj1IAxDOlRbnsSGXoDNu-235" value="sup_com_name&amp;nbsp;" style="ellipse;whiteSpace=wrap;html=1;align=center;" parent="1" vertex="1">
          <mxGeometry x="-1993.25" y="-592" width="100" height="26" as="geometry" />
        </mxCell>
        <mxCell id="Xj1IAxDOlRbnsSGXoDNu-236" value="&lt;u&gt;sup_id&amp;nbsp;&lt;/u&gt;" style="ellipse;whiteSpace=wrap;html=1;align=center;" parent="1" vertex="1">
          <mxGeometry x="-2140" y="-511" width="90" height="30" as="geometry" />
        </mxCell>
        <mxCell id="Xj1IAxDOlRbnsSGXoDNu-237" value="" style="endArrow=none;html=1;rounded=0;exitX=0;exitY=0.5;exitDx=0;exitDy=0;entryX=0.5;entryY=0;entryDx=0;entryDy=0;" parent="1" source="Xj1IAxDOlRbnsSGXoDNu-231" target="Xj1IAxDOlRbnsSGXoDNu-243" edge="1">
          <mxGeometry relative="1" as="geometry">
            <mxPoint x="-2128.25" y="-546" as="sourcePoint" />
            <mxPoint x="-2173.25" y="-490" as="targetPoint" />
          </mxGeometry>
        </mxCell>
        <mxCell id="Xj1IAxDOlRbnsSGXoDNu-238" value="" style="endArrow=none;html=1;rounded=0;exitX=0.75;exitY=1;exitDx=0;exitDy=0;entryX=0.756;entryY=0.05;entryDx=0;entryDy=0;entryPerimeter=0;" parent="1" source="Xj1IAxDOlRbnsSGXoDNu-231" target="Xj1IAxDOlRbnsSGXoDNu-236" edge="1">
          <mxGeometry relative="1" as="geometry">
            <mxPoint x="-2153.25" y="-636" as="sourcePoint" />
            <mxPoint x="-2073.25" y="-480" as="targetPoint" />
          </mxGeometry>
        </mxCell>
        <mxCell id="Xj1IAxDOlRbnsSGXoDNu-239" value="" style="endArrow=none;html=1;rounded=0;entryX=0.5;entryY=1;entryDx=0;entryDy=0;exitX=0.25;exitY=0;exitDx=0;exitDy=0;" parent="1" source="Xj1IAxDOlRbnsSGXoDNu-231" target="Xj1IAxDOlRbnsSGXoDNu-232" edge="1">
          <mxGeometry relative="1" as="geometry">
            <mxPoint x="-2093.25" y="-580" as="sourcePoint" />
            <mxPoint x="-2163.25" y="-610" as="targetPoint" />
          </mxGeometry>
        </mxCell>
        <mxCell id="Xj1IAxDOlRbnsSGXoDNu-240" value="" style="endArrow=none;html=1;rounded=0;exitX=1;exitY=1;exitDx=0;exitDy=0;entryX=0;entryY=0;entryDx=0;entryDy=0;" parent="1" source="Xj1IAxDOlRbnsSGXoDNu-233" target="Xj1IAxDOlRbnsSGXoDNu-231" edge="1">
          <mxGeometry relative="1" as="geometry">
            <mxPoint x="-2075.75" y="-642" as="sourcePoint" />
            <mxPoint x="-2110.75" y="-586" as="targetPoint" />
          </mxGeometry>
        </mxCell>
        <mxCell id="Xj1IAxDOlRbnsSGXoDNu-241" value="" style="endArrow=none;html=1;rounded=0;exitX=0.5;exitY=1;exitDx=0;exitDy=0;entryX=0.75;entryY=0;entryDx=0;entryDy=0;" parent="1" source="Xj1IAxDOlRbnsSGXoDNu-234" target="Xj1IAxDOlRbnsSGXoDNu-231" edge="1">
          <mxGeometry relative="1" as="geometry">
            <mxPoint x="-2003.25" y="-629" as="sourcePoint" />
            <mxPoint x="-2038.25" y="-573" as="targetPoint" />
          </mxGeometry>
        </mxCell>
        <mxCell id="Xj1IAxDOlRbnsSGXoDNu-242" value="" style="endArrow=none;html=1;rounded=0;exitX=0;exitY=0.5;exitDx=0;exitDy=0;entryX=1;entryY=0.25;entryDx=0;entryDy=0;" parent="1" source="Xj1IAxDOlRbnsSGXoDNu-235" target="Xj1IAxDOlRbnsSGXoDNu-231" edge="1">
          <mxGeometry relative="1" as="geometry">
            <mxPoint x="-1963.25" y="-596" as="sourcePoint" />
            <mxPoint x="-1998.25" y="-540" as="targetPoint" />
          </mxGeometry>
        </mxCell>
        <mxCell id="Xj1IAxDOlRbnsSGXoDNu-243" value="sup_fname&amp;nbsp;" style="ellipse;whiteSpace=wrap;html=1;align=center;" parent="1" vertex="1">
          <mxGeometry x="-2240" y="-516" width="90" height="30" as="geometry" />
        </mxCell>
        <mxCell id="Xj1IAxDOlRbnsSGXoDNu-246" value="sup_business_address&amp;nbsp;" style="ellipse;whiteSpace=wrap;html=1;align=center;" parent="1" vertex="1">
          <mxGeometry x="-2067.5" y="-481" width="135" height="26" as="geometry" />
        </mxCell>
        <mxCell id="Xj1IAxDOlRbnsSGXoDNu-247" value="" style="endArrow=none;html=1;rounded=0;exitX=0.5;exitY=0;exitDx=0;exitDy=0;entryX=1;entryY=1;entryDx=0;entryDy=0;" parent="1" source="Xj1IAxDOlRbnsSGXoDNu-246" target="Xj1IAxDOlRbnsSGXoDNu-231" edge="1">
          <mxGeometry relative="1" as="geometry">
            <mxPoint x="-1953.25" y="-586" as="sourcePoint" />
            <mxPoint x="-2008.25" y="-546" as="targetPoint" />
            <Array as="points" />
          </mxGeometry>
        </mxCell>
        <mxCell id="Xj1IAxDOlRbnsSGXoDNu-248" value="Item Stock" style="whiteSpace=wrap;html=1;align=center;" parent="1" vertex="1">
          <mxGeometry x="-1550" y="-362" width="100" height="40" as="geometry" />
        </mxCell>
        <mxCell id="Xj1IAxDOlRbnsSGXoDNu-249" value="stock_quantity&amp;nbsp;" style="ellipse;whiteSpace=wrap;html=1;align=center;" parent="1" vertex="1">
          <mxGeometry x="-1640" y="-385" width="90" height="23" as="geometry" />
        </mxCell>
        <mxCell id="Xj1IAxDOlRbnsSGXoDNu-251" value="stock_location&amp;nbsp;" style="ellipse;whiteSpace=wrap;html=1;align=center;" parent="1" vertex="1">
          <mxGeometry x="-1682.63" y="-329" width="90" height="30" as="geometry" />
        </mxCell>
        <mxCell id="Xj1IAxDOlRbnsSGXoDNu-252" value="&lt;u&gt;stock_id&amp;nbsp;&lt;/u&gt;" style="ellipse;whiteSpace=wrap;html=1;align=center;" parent="1" vertex="1">
          <mxGeometry x="-1580" y="-406" width="90" height="21" as="geometry" />
        </mxCell>
        <mxCell id="Xj1IAxDOlRbnsSGXoDNu-255" value="" style="endArrow=none;html=1;rounded=0;entryX=0.5;entryY=0;entryDx=0;entryDy=0;exitX=0.5;exitY=1;exitDx=0;exitDy=0;" parent="1" source="Xj1IAxDOlRbnsSGXoDNu-252" target="Xj1IAxDOlRbnsSGXoDNu-248" edge="1">
          <mxGeometry relative="1" as="geometry">
            <mxPoint x="-1650.63" y="-453.8699999999999" as="sourcePoint" />
            <mxPoint x="-1590.63" y="-454" as="targetPoint" />
            <Array as="points" />
          </mxGeometry>
        </mxCell>
        <mxCell id="Xj1IAxDOlRbnsSGXoDNu-256" value="" style="endArrow=none;html=1;rounded=0;exitX=1;exitY=1;exitDx=0;exitDy=0;entryX=0;entryY=0;entryDx=0;entryDy=0;" parent="1" source="Xj1IAxDOlRbnsSGXoDNu-249" target="Xj1IAxDOlRbnsSGXoDNu-248" edge="1">
          <mxGeometry relative="1" as="geometry">
            <mxPoint x="-1650.63" y="-424" as="sourcePoint" />
            <mxPoint x="-1540" y="-360" as="targetPoint" />
          </mxGeometry>
        </mxCell>
        <mxCell id="Xj1IAxDOlRbnsSGXoDNu-258" value="" style="endArrow=none;html=1;rounded=0;entryX=0;entryY=0.5;entryDx=0;entryDy=0;exitX=1;exitY=0.5;exitDx=0;exitDy=0;" parent="1" source="Xj1IAxDOlRbnsSGXoDNu-251" target="Xj1IAxDOlRbnsSGXoDNu-248" edge="1">
          <mxGeometry relative="1" as="geometry">
            <mxPoint x="-1650.63" y="-344" as="sourcePoint" />
            <mxPoint x="-1651.63" y="-297.1300000000001" as="targetPoint" />
          </mxGeometry>
        </mxCell>
        <mxCell id="Xj1IAxDOlRbnsSGXoDNu-261" value="Damaged Item" style="whiteSpace=wrap;html=1;align=center;" parent="1" vertex="1">
          <mxGeometry x="-410" y="-337" width="100" height="40" as="geometry" />
        </mxCell>
        <mxCell id="Xj1IAxDOlRbnsSGXoDNu-262" value="added_date&amp;nbsp;" style="ellipse;whiteSpace=wrap;html=1;align=center;" parent="1" vertex="1">
          <mxGeometry x="-490" y="-284" width="101.25" height="34" as="geometry" />
        </mxCell>
        <mxCell id="Xj1IAxDOlRbnsSGXoDNu-263" value="damage_qty" style="ellipse;whiteSpace=wrap;html=1;align=center;" parent="1" vertex="1">
          <mxGeometry x="-960" y="-284" width="90" height="30" as="geometry" />
        </mxCell>
        <mxCell id="Xj1IAxDOlRbnsSGXoDNu-264" value="added_reason" style="ellipse;whiteSpace=wrap;html=1;align=center;" parent="1" vertex="1">
          <mxGeometry x="-310" y="-275" width="90" height="21" as="geometry" />
        </mxCell>
        <mxCell id="Xj1IAxDOlRbnsSGXoDNu-265" value="" style="endArrow=none;html=1;rounded=0;entryX=1;entryY=1;entryDx=0;entryDy=0;exitX=0.5;exitY=0;exitDx=0;exitDy=0;" parent="1" source="Xj1IAxDOlRbnsSGXoDNu-264" target="Xj1IAxDOlRbnsSGXoDNu-261" edge="1">
          <mxGeometry relative="1" as="geometry">
            <mxPoint x="-445" y="-425.8699999999999" as="sourcePoint" />
            <mxPoint x="-385" y="-426" as="targetPoint" />
            <Array as="points" />
          </mxGeometry>
        </mxCell>
        <mxCell id="Xj1IAxDOlRbnsSGXoDNu-266" value="" style="endArrow=none;html=1;rounded=0;entryX=0.25;entryY=1;entryDx=0;entryDy=0;exitX=0.5;exitY=0;exitDx=0;exitDy=0;" parent="1" source="Xj1IAxDOlRbnsSGXoDNu-262" target="Xj1IAxDOlRbnsSGXoDNu-261" edge="1">
          <mxGeometry relative="1" as="geometry">
            <mxPoint x="-490" y="-375" as="sourcePoint" />
            <mxPoint x="-446" y="-349.1300000000001" as="targetPoint" />
          </mxGeometry>
        </mxCell>
        <mxCell id="Xj1IAxDOlRbnsSGXoDNu-268" value="" style="endArrow=none;html=1;rounded=0;entryX=0.5;entryY=1;entryDx=0;entryDy=0;exitX=0.5;exitY=0;exitDx=0;exitDy=0;" parent="1" source="Xj1IAxDOlRbnsSGXoDNu-263" target="P81za8iIwrM6wZIT5qn2-12" edge="1">
          <mxGeometry relative="1" as="geometry">
            <mxPoint x="-745" y="-238" as="sourcePoint" />
            <mxPoint x="-746" y="-191.1300000000001" as="targetPoint" />
          </mxGeometry>
        </mxCell>
        <mxCell id="lxu4mpjRyPGzEQz0qGZ8-1" value="emp_basic_salary" style="ellipse;whiteSpace=wrap;html=1;align=center;" parent="1" vertex="1">
          <mxGeometry x="-1560" y="-1340.12" width="113.5" height="22.25" as="geometry" />
        </mxCell>
        <mxCell id="lxu4mpjRyPGzEQz0qGZ8-2" value="" style="endArrow=none;html=1;rounded=0;exitX=1;exitY=1;exitDx=0;exitDy=0;entryX=0.25;entryY=0;entryDx=0;entryDy=0;" parent="1" source="lxu4mpjRyPGzEQz0qGZ8-1" target="Xj1IAxDOlRbnsSGXoDNu-95" edge="1">
          <mxGeometry width="50" height="50" relative="1" as="geometry">
            <mxPoint x="-1340" y="-1250" as="sourcePoint" />
            <mxPoint x="-1290" y="-1300" as="targetPoint" />
          </mxGeometry>
        </mxCell>
        <mxCell id="lxu4mpjRyPGzEQz0qGZ8-3" value="Assistant Pharmacist" style="whiteSpace=wrap;html=1;align=center;" parent="1" vertex="1">
          <mxGeometry x="-1135" y="-1031" width="130" height="40" as="geometry" />
        </mxCell>
        <mxCell id="lxu4mpjRyPGzEQz0qGZ8-5" value="" style="endArrow=none;html=1;rounded=0;entryX=0.75;entryY=0;entryDx=0;entryDy=0;exitX=0;exitY=1;exitDx=0;exitDy=0;" parent="1" source="lxu4mpjRyPGzEQz0qGZ8-13" target="lxu4mpjRyPGzEQz0qGZ8-3" edge="1">
          <mxGeometry relative="1" as="geometry">
            <mxPoint x="-1145.52" y="-1075.623" as="sourcePoint" />
            <mxPoint x="-1312" y="-1070" as="targetPoint" />
            <Array as="points" />
          </mxGeometry>
        </mxCell>
        <mxCell id="lxu4mpjRyPGzEQz0qGZ8-6" value="" style="endArrow=none;html=1;rounded=0;entryX=0;entryY=0;entryDx=0;entryDy=0;exitX=1;exitY=1;exitDx=0;exitDy=0;" parent="1" source="Xj1IAxDOlRbnsSGXoDNu-69" target="Xj1IAxDOlRbnsSGXoDNu-72" edge="1">
          <mxGeometry width="50" height="50" relative="1" as="geometry">
            <mxPoint x="-1415" y="-1430" as="sourcePoint" />
            <mxPoint x="-1365" y="-1480" as="targetPoint" />
          </mxGeometry>
        </mxCell>
        <mxCell id="lxu4mpjRyPGzEQz0qGZ8-7" value="" style="endArrow=none;html=1;rounded=0;exitX=0.5;exitY=1;exitDx=0;exitDy=0;entryX=0.25;entryY=0;entryDx=0;entryDy=0;" parent="1" source="Xj1IAxDOlRbnsSGXoDNu-89" target="Xj1IAxDOlRbnsSGXoDNu-95" edge="1">
          <mxGeometry width="50" height="50" relative="1" as="geometry">
            <mxPoint x="-1360" y="-1270" as="sourcePoint" />
            <mxPoint x="-1310" y="-1320" as="targetPoint" />
          </mxGeometry>
        </mxCell>
        <mxCell id="lxu4mpjRyPGzEQz0qGZ8-8" value="d" style="ellipse;whiteSpace=wrap;html=1;aspect=fixed;" parent="1" vertex="1">
          <mxGeometry x="-1405" y="-1144.5" width="30" height="30" as="geometry" />
        </mxCell>
        <mxCell id="lxu4mpjRyPGzEQz0qGZ8-9" value="" style="endArrow=none;html=1;rounded=0;entryX=0.5;entryY=1;entryDx=0;entryDy=0;exitX=0.5;exitY=0;exitDx=0;exitDy=0;" parent="1" source="lxu4mpjRyPGzEQz0qGZ8-8" target="Xj1IAxDOlRbnsSGXoDNu-95" edge="1">
          <mxGeometry width="50" height="50" relative="1" as="geometry">
            <mxPoint x="-1380" y="-1140" as="sourcePoint" />
            <mxPoint x="-1310" y="-1080" as="targetPoint" />
          </mxGeometry>
        </mxCell>
        <mxCell id="lxu4mpjRyPGzEQz0qGZ8-11" value="med_council_reg_no" style="ellipse;whiteSpace=wrap;html=1;align=center;" parent="1" vertex="1">
          <mxGeometry x="-1570" y="-1110" width="127" height="24.5" as="geometry" />
        </mxCell>
        <mxCell id="lxu4mpjRyPGzEQz0qGZ8-12" value="" style="endArrow=none;html=1;rounded=0;entryX=0.25;entryY=0;entryDx=0;entryDy=0;exitX=0.5;exitY=1;exitDx=0;exitDy=0;" parent="1" source="lxu4mpjRyPGzEQz0qGZ8-11" target="Xj1IAxDOlRbnsSGXoDNu-205" edge="1">
          <mxGeometry width="50" height="50" relative="1" as="geometry">
            <mxPoint x="-1556.5" y="-1086.25" as="sourcePoint" />
            <mxPoint x="-1506.5" y="-1136.25" as="targetPoint" />
          </mxGeometry>
        </mxCell>
        <mxCell id="lxu4mpjRyPGzEQz0qGZ8-13" value="med_council_reg_no" style="ellipse;whiteSpace=wrap;html=1;align=center;" parent="1" vertex="1">
          <mxGeometry x="-1049.5" y="-1085.5" width="127" height="29" as="geometry" />
        </mxCell>
        <mxCell id="lxu4mpjRyPGzEQz0qGZ8-14" value="" style="endArrow=none;html=1;rounded=0;exitX=0.5;exitY=0;exitDx=0;exitDy=0;entryX=0;entryY=0.5;entryDx=0;entryDy=0;" parent="1" source="Xj1IAxDOlRbnsSGXoDNu-205" target="lxu4mpjRyPGzEQz0qGZ8-8" edge="1">
          <mxGeometry width="50" height="50" relative="1" as="geometry">
            <mxPoint x="-1290" y="-1010" as="sourcePoint" />
            <mxPoint x="-1240" y="-1060" as="targetPoint" />
          </mxGeometry>
        </mxCell>
        <mxCell id="lxu4mpjRyPGzEQz0qGZ8-15" value="" style="endArrow=none;html=1;rounded=0;exitX=1;exitY=1;exitDx=0;exitDy=0;entryX=0.25;entryY=0;entryDx=0;entryDy=0;" parent="1" source="lxu4mpjRyPGzEQz0qGZ8-8" target="Xj1IAxDOlRbnsSGXoDNu-208" edge="1">
          <mxGeometry width="50" height="50" relative="1" as="geometry">
            <mxPoint x="-1290" y="-1010" as="sourcePoint" />
            <mxPoint x="-1240" y="-1060" as="targetPoint" />
          </mxGeometry>
        </mxCell>
        <mxCell id="lxu4mpjRyPGzEQz0qGZ8-16" value="" style="endArrow=none;html=1;rounded=0;entryX=1;entryY=0.5;entryDx=0;entryDy=0;exitX=0.25;exitY=0;exitDx=0;exitDy=0;" parent="1" source="lxu4mpjRyPGzEQz0qGZ8-3" target="lxu4mpjRyPGzEQz0qGZ8-8" edge="1">
          <mxGeometry width="50" height="50" relative="1" as="geometry">
            <mxPoint x="-1290" y="-1010" as="sourcePoint" />
            <mxPoint x="-1240" y="-1060" as="targetPoint" />
          </mxGeometry>
        </mxCell>
        <mxCell id="lxu4mpjRyPGzEQz0qGZ8-17" value="has" style="rhombus;whiteSpace=wrap;html=1;" parent="1" vertex="1">
          <mxGeometry x="-1011.25" y="-1345.62" width="80" height="40" as="geometry" />
        </mxCell>
        <mxCell id="lxu4mpjRyPGzEQz0qGZ8-18" value="view" style="rhombus;whiteSpace=wrap;html=1;" parent="1" vertex="1">
          <mxGeometry x="-270" y="-1430" width="80" height="40" as="geometry" />
        </mxCell>
        <mxCell id="lxu4mpjRyPGzEQz0qGZ8-19" value="has" style="rhombus;whiteSpace=wrap;html=1;" parent="1" vertex="1">
          <mxGeometry x="-955" y="-1267" width="80" height="40" as="geometry" />
        </mxCell>
        <mxCell id="lxu4mpjRyPGzEQz0qGZ8-20" value="has" style="rhombus;whiteSpace=wrap;html=1;" parent="1" vertex="1">
          <mxGeometry x="-937.5" y="-1169.5" width="80" height="40" as="geometry" />
        </mxCell>
        <mxCell id="lxu4mpjRyPGzEQz0qGZ8-21" value="manage" style="rhombus;whiteSpace=wrap;html=1;" parent="1" vertex="1">
          <mxGeometry x="-1165" y="-1541.5" width="80" height="40" as="geometry" />
        </mxCell>
        <mxCell id="lxu4mpjRyPGzEQz0qGZ8-22" value="manage" style="rhombus;whiteSpace=wrap;html=1;" parent="1" vertex="1">
          <mxGeometry x="-740" y="-1605" width="70" height="40" as="geometry" />
        </mxCell>
        <mxCell id="lxu4mpjRyPGzEQz0qGZ8-23" value="" style="endArrow=none;html=1;rounded=0;exitX=1;exitY=0.5;exitDx=0;exitDy=0;entryX=0;entryY=0.5;entryDx=0;entryDy=0;" parent="1" source="Xj1IAxDOlRbnsSGXoDNu-95" target="lxu4mpjRyPGzEQz0qGZ8-19" edge="1">
          <mxGeometry width="50" height="50" relative="1" as="geometry">
            <mxPoint x="-1150" y="-1230" as="sourcePoint" />
            <mxPoint x="-1100" y="-1280" as="targetPoint" />
          </mxGeometry>
        </mxCell>
        <mxCell id="lxu4mpjRyPGzEQz0qGZ8-24" value="" style="endArrow=none;html=1;rounded=0;exitX=0.75;exitY=1;exitDx=0;exitDy=0;entryX=0;entryY=0.5;entryDx=0;entryDy=0;" parent="1" source="Xj1IAxDOlRbnsSGXoDNu-95" target="lxu4mpjRyPGzEQz0qGZ8-20" edge="1">
          <mxGeometry width="50" height="50" relative="1" as="geometry">
            <mxPoint x="-1150" y="-1230" as="sourcePoint" />
            <mxPoint x="-1100" y="-1280" as="targetPoint" />
            <Array as="points">
              <mxPoint x="-1365" y="-1150" />
              <mxPoint x="-1010" y="-1150" />
            </Array>
          </mxGeometry>
        </mxCell>
        <mxCell id="lxu4mpjRyPGzEQz0qGZ8-27" value="" style="endArrow=none;html=1;rounded=0;entryX=0;entryY=0.5;entryDx=0;entryDy=0;" parent="1" target="lxu4mpjRyPGzEQz0qGZ8-17" edge="1">
          <mxGeometry width="50" height="50" relative="1" as="geometry">
            <mxPoint x="-1360" y="-1270" as="sourcePoint" />
            <mxPoint x="-1120" y="-1380" as="targetPoint" />
            <Array as="points">
              <mxPoint x="-1360" y="-1330" />
            </Array>
          </mxGeometry>
        </mxCell>
        <mxCell id="lxu4mpjRyPGzEQz0qGZ8-30" value="" style="endArrow=none;html=1;rounded=0;exitX=1;exitY=0.5;exitDx=0;exitDy=0;" parent="1" source="lxu4mpjRyPGzEQz0qGZ8-17" edge="1">
          <mxGeometry width="50" height="50" relative="1" as="geometry">
            <mxPoint x="-911.25" y="-1252.62" as="sourcePoint" />
            <mxPoint x="-871.25" y="-1392.62" as="targetPoint" />
            <Array as="points">
              <mxPoint x="-871.25" y="-1325.62" />
            </Array>
          </mxGeometry>
        </mxCell>
        <mxCell id="lxu4mpjRyPGzEQz0qGZ8-31" value="has" style="rhombus;whiteSpace=wrap;html=1;" parent="1" vertex="1">
          <mxGeometry x="-720" y="-1436.12" width="82.5" height="52.62" as="geometry" />
        </mxCell>
        <mxCell id="lxu4mpjRyPGzEQz0qGZ8-33" value="" style="endArrow=none;html=1;rounded=0;entryX=0;entryY=0.75;entryDx=0;entryDy=0;" parent="1" target="Xj1IAxDOlRbnsSGXoDNu-117" edge="1">
          <mxGeometry width="50" height="50" relative="1" as="geometry">
            <mxPoint x="-640" y="-1408" as="sourcePoint" />
            <mxPoint x="-766.81" y="-1358" as="targetPoint" />
          </mxGeometry>
        </mxCell>
        <mxCell id="lxu4mpjRyPGzEQz0qGZ8-34" value="" style="endArrow=none;html=1;rounded=0;exitX=1;exitY=0.5;exitDx=0;exitDy=0;entryX=0;entryY=0.5;entryDx=0;entryDy=0;" parent="1" source="Xj1IAxDOlRbnsSGXoDNu-69" target="lxu4mpjRyPGzEQz0qGZ8-21" edge="1">
          <mxGeometry width="50" height="50" relative="1" as="geometry">
            <mxPoint x="-1060" y="-1280" as="sourcePoint" />
            <mxPoint x="-1010" y="-1330" as="targetPoint" />
          </mxGeometry>
        </mxCell>
        <mxCell id="lxu4mpjRyPGzEQz0qGZ8-35" value="" style="endArrow=none;html=1;rounded=0;exitX=1;exitY=0.5;exitDx=0;exitDy=0;entryX=0;entryY=0.5;entryDx=0;entryDy=0;" parent="1" source="lxu4mpjRyPGzEQz0qGZ8-21" target="Xj1IAxDOlRbnsSGXoDNu-108" edge="1">
          <mxGeometry width="50" height="50" relative="1" as="geometry">
            <mxPoint x="-1060" y="-1280" as="sourcePoint" />
            <mxPoint x="-1010" y="-1330" as="targetPoint" />
            <Array as="points">
              <mxPoint x="-1085" y="-1414" />
            </Array>
          </mxGeometry>
        </mxCell>
        <mxCell id="lxu4mpjRyPGzEQz0qGZ8-36" value="manage" style="rhombus;whiteSpace=wrap;html=1;" parent="1" vertex="1">
          <mxGeometry x="-140" y="-1165" width="80" height="40" as="geometry" />
        </mxCell>
        <mxCell id="lxu4mpjRyPGzEQz0qGZ8-38" value="" style="endArrow=none;html=1;rounded=0;exitX=0.75;exitY=0;exitDx=0;exitDy=0;entryX=0.5;entryY=0;entryDx=0;entryDy=0;" parent="1" source="Xj1IAxDOlRbnsSGXoDNu-69" target="lxu4mpjRyPGzEQz0qGZ8-18" edge="1">
          <mxGeometry width="50" height="50" relative="1" as="geometry">
            <mxPoint x="-990" y="-1250" as="sourcePoint" />
            <mxPoint x="-940" y="-1300" as="targetPoint" />
            <Array as="points">
              <mxPoint x="-1400" y="-1620" />
              <mxPoint x="-230" y="-1620" />
            </Array>
          </mxGeometry>
        </mxCell>
        <mxCell id="lxu4mpjRyPGzEQz0qGZ8-39" value="" style="endArrow=none;html=1;rounded=0;entryX=0;entryY=0.5;entryDx=0;entryDy=0;exitX=1;exitY=0.25;exitDx=0;exitDy=0;" parent="1" source="Xj1IAxDOlRbnsSGXoDNu-69" target="22WwG2nmNLPpAlSexiYf-14" edge="1">
          <mxGeometry width="50" height="50" relative="1" as="geometry">
            <mxPoint x="-990" y="-1250" as="sourcePoint" />
            <mxPoint x="-940" y="-1300" as="targetPoint" />
            <Array as="points">
              <mxPoint x="-1340" y="-1530" />
              <mxPoint x="-1340" y="-1580" />
            </Array>
          </mxGeometry>
        </mxCell>
        <mxCell id="lxu4mpjRyPGzEQz0qGZ8-40" value="" style="endArrow=none;html=1;rounded=0;entryX=0.5;entryY=0;entryDx=0;entryDy=0;exitX=1;exitY=0.5;exitDx=0;exitDy=0;" parent="1" source="22WwG2nmNLPpAlSexiYf-14" target="Xj1IAxDOlRbnsSGXoDNu-117" edge="1">
          <mxGeometry width="50" height="50" relative="1" as="geometry">
            <mxPoint x="-890" y="-1190" as="sourcePoint" />
            <mxPoint x="-840" y="-1240" as="targetPoint" />
            <Array as="points">
              <mxPoint x="-507" y="-1585" />
            </Array>
          </mxGeometry>
        </mxCell>
        <mxCell id="lxu4mpjRyPGzEQz0qGZ8-41" value="" style="endArrow=none;html=1;rounded=0;exitX=0.5;exitY=0;exitDx=0;exitDy=0;entryX=1;entryY=0.5;entryDx=0;entryDy=0;" parent="1" source="Xj1IAxDOlRbnsSGXoDNu-69" target="lxu4mpjRyPGzEQz0qGZ8-36" edge="1">
          <mxGeometry width="50" height="50" relative="1" as="geometry">
            <mxPoint x="-890" y="-1190" as="sourcePoint" />
            <mxPoint x="-840" y="-1240" as="targetPoint" />
            <Array as="points">
              <mxPoint x="-1425" y="-1640" />
              <mxPoint x="-40" y="-1640" />
              <mxPoint x="-40" y="-1145" />
            </Array>
          </mxGeometry>
        </mxCell>
        <mxCell id="lxu4mpjRyPGzEQz0qGZ8-43" value="" style="endArrow=none;html=1;rounded=0;exitX=1;exitY=0.25;exitDx=0;exitDy=0;entryX=0.5;entryY=1;entryDx=0;entryDy=0;" parent="1" source="Xj1IAxDOlRbnsSGXoDNu-159" target="lxu4mpjRyPGzEQz0qGZ8-18" edge="1">
          <mxGeometry width="50" height="50" relative="1" as="geometry">
            <mxPoint x="-260" y="-1080" as="sourcePoint" />
            <mxPoint x="-210" y="-1130" as="targetPoint" />
            <Array as="points">
              <mxPoint x="-230" y="-1256" />
            </Array>
          </mxGeometry>
        </mxCell>
        <mxCell id="lxu4mpjRyPGzEQz0qGZ8-44" value="" style="endArrow=none;html=1;rounded=0;exitX=1;exitY=0.5;exitDx=0;exitDy=0;entryX=0;entryY=0.5;entryDx=0;entryDy=0;" parent="1" source="Xj1IAxDOlRbnsSGXoDNu-186" target="lxu4mpjRyPGzEQz0qGZ8-36" edge="1">
          <mxGeometry width="50" height="50" relative="1" as="geometry">
            <mxPoint x="-260" y="-910" as="sourcePoint" />
            <mxPoint x="-210" y="-960" as="targetPoint" />
          </mxGeometry>
        </mxCell>
        <mxCell id="lxu4mpjRyPGzEQz0qGZ8-45" value="has" style="rhombus;whiteSpace=wrap;html=1;" parent="1" vertex="1">
          <mxGeometry x="-1687.5" y="-1290" width="77.5" height="40" as="geometry" />
        </mxCell>
        <mxCell id="lxu4mpjRyPGzEQz0qGZ8-46" value="" style="endArrow=none;html=1;rounded=0;exitX=0.5;exitY=1;exitDx=0;exitDy=0;entryX=0;entryY=0.5;entryDx=0;entryDy=0;" parent="1" source="Xj1IAxDOlRbnsSGXoDNu-76" target="lxu4mpjRyPGzEQz0qGZ8-45" edge="1">
          <mxGeometry width="50" height="50" relative="1" as="geometry">
            <mxPoint x="-1570" y="-1260" as="sourcePoint" />
            <mxPoint x="-1520" y="-1310" as="targetPoint" />
          </mxGeometry>
        </mxCell>
        <mxCell id="lxu4mpjRyPGzEQz0qGZ8-47" value="" style="endArrow=none;html=1;rounded=0;exitX=0.5;exitY=1;exitDx=0;exitDy=0;" parent="1" source="lxu4mpjRyPGzEQz0qGZ8-45" edge="1">
          <mxGeometry width="50" height="50" relative="1" as="geometry">
            <mxPoint x="-1640" y="-1184" as="sourcePoint" />
            <mxPoint x="-1440" y="-1250" as="targetPoint" />
            <Array as="points" />
          </mxGeometry>
        </mxCell>
        <mxCell id="lxu4mpjRyPGzEQz0qGZ8-48" value="depend" style="rhombus;whiteSpace=wrap;html=1;" parent="1" vertex="1">
          <mxGeometry x="-1800" y="-1254" width="80" height="40" as="geometry" />
        </mxCell>
        <mxCell id="lxu4mpjRyPGzEQz0qGZ8-49" value="" style="endArrow=none;html=1;rounded=0;exitX=1;exitY=0.5;exitDx=0;exitDy=0;" parent="1" source="lxu4mpjRyPGzEQz0qGZ8-48" edge="1">
          <mxGeometry width="50" height="50" relative="1" as="geometry">
            <mxPoint x="-1610" y="-1280" as="sourcePoint" />
            <mxPoint x="-1440" y="-1234" as="targetPoint" />
            <Array as="points" />
          </mxGeometry>
        </mxCell>
        <mxCell id="lxu4mpjRyPGzEQz0qGZ8-50" value="" style="endArrow=none;html=1;rounded=0;exitX=0.75;exitY=1;exitDx=0;exitDy=0;entryX=0;entryY=0.5;entryDx=0;entryDy=0;" parent="1" source="Xj1IAxDOlRbnsSGXoDNu-121" target="lxu4mpjRyPGzEQz0qGZ8-48" edge="1">
          <mxGeometry width="50" height="50" relative="1" as="geometry">
            <mxPoint x="-1610" y="-1280" as="sourcePoint" />
            <mxPoint x="-1560" y="-1330" as="targetPoint" />
            <Array as="points">
              <mxPoint x="-2015" y="-1234" />
            </Array>
          </mxGeometry>
        </mxCell>
        <mxCell id="lxu4mpjRyPGzEQz0qGZ8-51" value="" style="endArrow=none;html=1;rounded=0;exitX=1;exitY=0.5;exitDx=0;exitDy=0;entryX=0;entryY=1;entryDx=0;entryDy=0;" parent="1" source="GRMg15ix3z7OLPMcoAcn-46" target="Xj1IAxDOlRbnsSGXoDNu-69" edge="1">
          <mxGeometry width="50" height="50" relative="1" as="geometry">
            <mxPoint x="-1810" y="-1360" as="sourcePoint" />
            <mxPoint x="-1760" y="-1410" as="targetPoint" />
            <Array as="points">
              <mxPoint x="-1630" y="-1485" />
              <mxPoint x="-1630" y="-1500" />
            </Array>
          </mxGeometry>
        </mxCell>
        <mxCell id="lxu4mpjRyPGzEQz0qGZ8-53" value="" style="endArrow=none;html=1;rounded=0;exitX=0.75;exitY=0;exitDx=0;exitDy=0;entryX=0;entryY=0.5;entryDx=0;entryDy=0;" parent="1" source="Xj1IAxDOlRbnsSGXoDNu-121" target="GRMg15ix3z7OLPMcoAcn-46" edge="1">
          <mxGeometry width="50" height="50" relative="1" as="geometry">
            <mxPoint x="-2015" y="-1419" as="sourcePoint" />
            <mxPoint x="-1475" y="-1510" as="targetPoint" />
            <Array as="points">
              <mxPoint x="-2015" y="-1483" />
            </Array>
          </mxGeometry>
        </mxCell>
        <mxCell id="lxu4mpjRyPGzEQz0qGZ8-52" value="manage" style="rhombus;whiteSpace=wrap;html=1;" parent="1" vertex="1">
          <mxGeometry x="-1760" y="-1505" width="80" height="40" as="geometry" />
        </mxCell>
        <mxCell id="lxu4mpjRyPGzEQz0qGZ8-54" value="" style="endArrow=none;html=1;rounded=0;exitX=0;exitY=0.5;exitDx=0;exitDy=0;entryX=0;entryY=0.5;entryDx=0;entryDy=0;" parent="1" source="lxu4mpjRyPGzEQz0qGZ8-59" target="Xj1IAxDOlRbnsSGXoDNu-69" edge="1">
          <mxGeometry width="50" height="50" relative="1" as="geometry">
            <mxPoint x="-2030" y="-1060" as="sourcePoint" />
            <mxPoint x="-1980" y="-1110" as="targetPoint" />
            <Array as="points">
              <mxPoint x="-2300" y="-1170" />
              <mxPoint x="-2300" y="-1520" />
              <mxPoint x="-1940" y="-1520" />
              <mxPoint x="-1570" y="-1520" />
            </Array>
          </mxGeometry>
        </mxCell>
        <mxCell id="lxu4mpjRyPGzEQz0qGZ8-55" value="" style="endArrow=none;html=1;rounded=0;entryX=0;entryY=0;entryDx=0;entryDy=0;exitX=0;exitY=0.5;exitDx=0;exitDy=0;" parent="1" source="lxu4mpjRyPGzEQz0qGZ8-63" target="Xj1IAxDOlRbnsSGXoDNu-69" edge="1">
          <mxGeometry width="50" height="50" relative="1" as="geometry">
            <mxPoint x="-1700" y="-1260" as="sourcePoint" />
            <mxPoint x="-1650" y="-1310" as="targetPoint" />
            <Array as="points">
              <mxPoint x="-2320" y="-556" />
              <mxPoint x="-2320" y="-1540" />
              <mxPoint x="-1870" y="-1540" />
            </Array>
          </mxGeometry>
        </mxCell>
        <mxCell id="lxu4mpjRyPGzEQz0qGZ8-62" value="" style="endArrow=none;html=1;rounded=0;exitX=0.5;exitY=0;exitDx=0;exitDy=0;entryX=0.555;entryY=0.954;entryDx=0;entryDy=0;entryPerimeter=0;" parent="1" source="Xj1IAxDOlRbnsSGXoDNu-187" target="lxu4mpjRyPGzEQz0qGZ8-59" edge="1">
          <mxGeometry width="50" height="50" relative="1" as="geometry">
            <mxPoint x="-2000" y="-970" as="sourcePoint" />
            <mxPoint x="-1475" y="-1520" as="targetPoint" />
            <Array as="points" />
          </mxGeometry>
        </mxCell>
        <mxCell id="lxu4mpjRyPGzEQz0qGZ8-59" value="manage" style="rhombus;whiteSpace=wrap;html=1;" parent="1" vertex="1">
          <mxGeometry x="-2045" y="-1190" width="80" height="40" as="geometry" />
        </mxCell>
        <mxCell id="lxu4mpjRyPGzEQz0qGZ8-64" value="" style="endArrow=none;html=1;rounded=0;entryX=1;entryY=0.5;entryDx=0;entryDy=0;exitX=0;exitY=0.25;exitDx=0;exitDy=0;" parent="1" source="Xj1IAxDOlRbnsSGXoDNu-231" target="lxu4mpjRyPGzEQz0qGZ8-63" edge="1">
          <mxGeometry width="50" height="50" relative="1" as="geometry">
            <mxPoint x="-2093.25" y="-566" as="sourcePoint" />
            <mxPoint x="-1548.25" y="-1530" as="targetPoint" />
            <Array as="points" />
          </mxGeometry>
        </mxCell>
        <mxCell id="lxu4mpjRyPGzEQz0qGZ8-63" value="manage" style="rhombus;whiteSpace=wrap;html=1;" parent="1" vertex="1">
          <mxGeometry x="-2333.25" y="-576" width="80" height="40" as="geometry" />
        </mxCell>
        <mxCell id="lxu4mpjRyPGzEQz0qGZ8-65" value="" style="endArrow=none;html=1;rounded=0;exitX=0.5;exitY=0;exitDx=0;exitDy=0;entryX=1;entryY=0;entryDx=0;entryDy=0;" parent="1" source="lxu4mpjRyPGzEQz0qGZ8-66" target="P81za8iIwrM6wZIT5qn2-100" edge="1">
          <mxGeometry width="50" height="50" relative="1" as="geometry">
            <mxPoint x="-2020" y="-870" as="sourcePoint" />
            <mxPoint x="-1985" y="-930" as="targetPoint" />
          </mxGeometry>
        </mxCell>
        <mxCell id="lxu4mpjRyPGzEQz0qGZ8-67" value="" style="endArrow=none;html=1;rounded=0;exitX=0.852;exitY=0.003;exitDx=0;exitDy=0;exitPerimeter=0;" parent="1" target="lxu4mpjRyPGzEQz0qGZ8-66" edge="1" source="Xj1IAxDOlRbnsSGXoDNu-231">
          <mxGeometry width="50" height="50" relative="1" as="geometry">
            <mxPoint x="-2033" y="-570" as="sourcePoint" />
            <mxPoint x="-2000" y="-930" as="targetPoint" />
          </mxGeometry>
        </mxCell>
        <mxCell id="lxu4mpjRyPGzEQz0qGZ8-66" value="has" style="rhombus;whiteSpace=wrap;html=1;" parent="1" vertex="1">
          <mxGeometry x="-2073.25" y="-794.25" width="80" height="40" as="geometry" />
        </mxCell>
        <mxCell id="lxu4mpjRyPGzEQz0qGZ8-72" value="" style="endArrow=none;html=1;rounded=0;exitX=0.5;exitY=0;exitDx=0;exitDy=0;entryX=0;entryY=0.5;entryDx=0;entryDy=0;" parent="1" source="lxu4mpjRyPGzEQz0qGZ8-73" target="Xj1IAxDOlRbnsSGXoDNu-205" edge="1">
          <mxGeometry width="50" height="50" relative="1" as="geometry">
            <mxPoint x="-1650" y="-1030" as="sourcePoint" />
            <mxPoint x="-1530" y="-1010" as="targetPoint" />
            <Array as="points">
              <mxPoint x="-1753" y="-1009" />
            </Array>
          </mxGeometry>
        </mxCell>
        <mxCell id="lxu4mpjRyPGzEQz0qGZ8-74" value="" style="endArrow=none;html=1;rounded=0;exitX=1;exitY=0.5;exitDx=0;exitDy=0;entryX=0;entryY=0.5;entryDx=0;entryDy=0;" parent="1" source="Xj1IAxDOlRbnsSGXoDNu-187" target="lxu4mpjRyPGzEQz0qGZ8-73" edge="1">
          <mxGeometry width="50" height="50" relative="1" as="geometry">
            <mxPoint x="-1950" y="-950" as="sourcePoint" />
            <mxPoint x="-1526" y="-1009" as="targetPoint" />
          </mxGeometry>
        </mxCell>
        <mxCell id="lxu4mpjRyPGzEQz0qGZ8-73" value="generate" style="rhombus;whiteSpace=wrap;html=1;" parent="1" vertex="1">
          <mxGeometry x="-1793" y="-978.75" width="80" height="57.5" as="geometry" />
        </mxCell>
        <mxCell id="lxu4mpjRyPGzEQz0qGZ8-75" value="" style="endArrow=none;html=1;rounded=0;exitX=1;exitY=0.5;exitDx=0;exitDy=0;entryX=-0.008;entryY=0.425;entryDx=0;entryDy=0;entryPerimeter=0;" parent="1" source="lxu4mpjRyPGzEQz0qGZ8-20" target="Xj1IAxDOlRbnsSGXoDNu-186" edge="1">
          <mxGeometry width="50" height="50" relative="1" as="geometry">
            <mxPoint x="-1280" y="-1000" as="sourcePoint" />
            <mxPoint x="-622" y="-1020" as="targetPoint" />
            <Array as="points" />
          </mxGeometry>
        </mxCell>
        <mxCell id="lxu4mpjRyPGzEQz0qGZ8-79" value="" style="endArrow=none;html=1;rounded=0;exitX=0.5;exitY=0;exitDx=0;exitDy=0;entryX=0;entryY=1;entryDx=0;entryDy=0;" parent="1" source="lxu4mpjRyPGzEQz0qGZ8-87" target="Xj1IAxDOlRbnsSGXoDNu-205" edge="1">
          <mxGeometry width="50" height="50" relative="1" as="geometry">
            <mxPoint x="-1360" y="-820" as="sourcePoint" />
            <mxPoint x="-1310" y="-870" as="targetPoint" />
            <Array as="points" />
          </mxGeometry>
        </mxCell>
        <mxCell id="lxu4mpjRyPGzEQz0qGZ8-83" value="" style="endArrow=none;html=1;rounded=0;exitX=1;exitY=0.5;exitDx=0;exitDy=0;entryX=0.004;entryY=0.384;entryDx=0;entryDy=0;entryPerimeter=0;" parent="1" source="lxu4mpjRyPGzEQz0qGZ8-84" target="Xj1IAxDOlRbnsSGXoDNu-217" edge="1">
          <mxGeometry width="50" height="50" relative="1" as="geometry">
            <mxPoint x="-1250" y="-640" as="sourcePoint" />
            <mxPoint x="-1550" y="-430" as="targetPoint" />
          </mxGeometry>
        </mxCell>
        <mxCell id="lxu4mpjRyPGzEQz0qGZ8-85" value="" style="endArrow=none;html=1;rounded=0;exitX=0.75;exitY=1;exitDx=0;exitDy=0;entryX=0.5;entryY=0;entryDx=0;entryDy=0;" parent="1" source="Xj1IAxDOlRbnsSGXoDNu-196" target="lxu4mpjRyPGzEQz0qGZ8-84" edge="1">
          <mxGeometry width="50" height="50" relative="1" as="geometry">
            <mxPoint x="-1630" y="-730" as="sourcePoint" />
            <mxPoint x="-1836.25" y="-429" as="targetPoint" />
            <Array as="points" />
          </mxGeometry>
        </mxCell>
        <mxCell id="lxu4mpjRyPGzEQz0qGZ8-84" value="has" style="rhombus;whiteSpace=wrap;html=1;" parent="1" vertex="1">
          <mxGeometry x="-1685.5" y="-563" width="73.5" height="40" as="geometry" />
        </mxCell>
        <mxCell id="lxu4mpjRyPGzEQz0qGZ8-86" value="" style="endArrow=none;html=1;rounded=0;exitX=0.5;exitY=0;exitDx=0;exitDy=0;entryX=0.5;entryY=1;entryDx=0;entryDy=0;" parent="1" source="lxu4mpjRyPGzEQz0qGZ8-89" target="Xj1IAxDOlRbnsSGXoDNu-205" edge="1">
          <mxGeometry width="50" height="50" relative="1" as="geometry">
            <mxPoint x="-1050" y="-690" as="sourcePoint" />
            <mxPoint x="-1000" y="-740" as="targetPoint" />
          </mxGeometry>
        </mxCell>
        <mxCell id="lxu4mpjRyPGzEQz0qGZ8-88" value="" style="endArrow=none;html=1;rounded=0;exitX=1;exitY=0.5;exitDx=0;exitDy=0;entryX=0;entryY=0.5;entryDx=0;entryDy=0;" parent="1" source="Xj1IAxDOlRbnsSGXoDNu-196" target="lxu4mpjRyPGzEQz0qGZ8-87" edge="1">
          <mxGeometry width="50" height="50" relative="1" as="geometry">
            <mxPoint x="-1605" y="-750" as="sourcePoint" />
            <mxPoint x="-1501" y="-989" as="targetPoint" />
            <Array as="points" />
          </mxGeometry>
        </mxCell>
        <mxCell id="lxu4mpjRyPGzEQz0qGZ8-87" value="generate" style="rhombus;whiteSpace=wrap;html=1;" parent="1" vertex="1">
          <mxGeometry x="-1565" y="-791" width="80" height="40" as="geometry" />
        </mxCell>
        <mxCell id="lxu4mpjRyPGzEQz0qGZ8-90" value="" style="endArrow=none;html=1;rounded=0;entryX=0.5;entryY=1;entryDx=0;entryDy=0;exitX=0.75;exitY=0;exitDx=0;exitDy=0;" parent="1" source="Xj1IAxDOlRbnsSGXoDNu-248" target="lxu4mpjRyPGzEQz0qGZ8-89" edge="1">
          <mxGeometry width="50" height="50" relative="1" as="geometry">
            <mxPoint x="-1510.13" y="-425" as="sourcePoint" />
            <mxPoint x="-1510.13" y="-1004" as="targetPoint" />
          </mxGeometry>
        </mxCell>
        <mxCell id="lxu4mpjRyPGzEQz0qGZ8-89" value="manage" style="rhombus;whiteSpace=wrap;html=1;" parent="1" vertex="1">
          <mxGeometry x="-1515" y="-440" width="80" height="40" as="geometry" />
        </mxCell>
        <mxCell id="lxu4mpjRyPGzEQz0qGZ8-91" value="" style="endArrow=none;html=1;rounded=0;exitX=1;exitY=0.5;exitDx=0;exitDy=0;entryX=0;entryY=0.5;entryDx=0;entryDy=0;" parent="1" source="P81za8iIwrM6wZIT5qn2-12" target="Xj1IAxDOlRbnsSGXoDNu-261" edge="1">
          <mxGeometry width="50" height="50" relative="1" as="geometry">
            <mxPoint x="-588.5" y="-760" as="sourcePoint" />
            <mxPoint x="-538.5" y="-810" as="targetPoint" />
          </mxGeometry>
        </mxCell>
        <mxCell id="lxu4mpjRyPGzEQz0qGZ8-92" value="" style="endArrow=none;html=1;rounded=0;exitX=1;exitY=0.5;exitDx=0;exitDy=0;entryX=0;entryY=0;entryDx=0;entryDy=0;" parent="1" source="lxu4mpjRyPGzEQz0qGZ8-93" target="Xj1IAxDOlRbnsSGXoDNu-217" edge="1">
          <mxGeometry width="50" height="50" relative="1" as="geometry">
            <mxPoint x="-950" y="-700" as="sourcePoint" />
            <mxPoint x="-900" y="-750" as="targetPoint" />
            <Array as="points" />
          </mxGeometry>
        </mxCell>
        <mxCell id="lxu4mpjRyPGzEQz0qGZ8-94" value="" style="endArrow=none;html=1;rounded=0;exitX=1;exitY=1;exitDx=0;exitDy=0;entryX=0;entryY=0.5;entryDx=0;entryDy=0;" parent="1" source="Xj1IAxDOlRbnsSGXoDNu-205" target="lxu4mpjRyPGzEQz0qGZ8-93" edge="1">
          <mxGeometry width="50" height="50" relative="1" as="geometry">
            <mxPoint x="-1451" y="-989" as="sourcePoint" />
            <mxPoint x="-580" y="-546" as="targetPoint" />
            <Array as="points">
              <mxPoint x="-1426" y="-800" />
              <mxPoint x="-1426" y="-556" />
            </Array>
          </mxGeometry>
        </mxCell>
        <mxCell id="lxu4mpjRyPGzEQz0qGZ8-93" value="manage" style="rhombus;whiteSpace=wrap;html=1;" parent="1" vertex="1">
          <mxGeometry x="-1011.25" y="-569" width="80" height="26" as="geometry" />
        </mxCell>
        <mxCell id="lxu4mpjRyPGzEQz0qGZ8-95" value="" style="endArrow=none;html=1;rounded=0;exitX=1;exitY=0.5;exitDx=0;exitDy=0;entryX=0.006;entryY=0.88;entryDx=0;entryDy=0;entryPerimeter=0;" parent="1" source="lxu4mpjRyPGzEQz0qGZ8-96" target="Xj1IAxDOlRbnsSGXoDNu-214" edge="1">
          <mxGeometry width="50" height="50" relative="1" as="geometry">
            <mxPoint x="-950" y="-700" as="sourcePoint" />
            <mxPoint x="-1190" y="-735" as="targetPoint" />
            <Array as="points" />
          </mxGeometry>
        </mxCell>
        <mxCell id="lxu4mpjRyPGzEQz0qGZ8-97" value="" style="endArrow=none;html=1;rounded=0;exitX=1;exitY=0;exitDx=0;exitDy=0;entryX=0;entryY=0.5;entryDx=0;entryDy=0;" parent="1" source="Xj1IAxDOlRbnsSGXoDNu-205" target="lxu4mpjRyPGzEQz0qGZ8-96" edge="1">
          <mxGeometry width="50" height="50" relative="1" as="geometry">
            <mxPoint x="-1426" y="-999" as="sourcePoint" />
            <mxPoint x="-1165" y="-763" as="targetPoint" />
            <Array as="points">
              <mxPoint x="-1400" y="-1030" />
            </Array>
          </mxGeometry>
        </mxCell>
        <mxCell id="lxu4mpjRyPGzEQz0qGZ8-96" value="generate" style="rhombus;whiteSpace=wrap;html=1;" parent="1" vertex="1">
          <mxGeometry x="-1403" y="-755.5" width="80" height="40" as="geometry" />
        </mxCell>
        <mxCell id="lxu4mpjRyPGzEQz0qGZ8-99" value="" style="endArrow=none;html=1;rounded=0;exitX=1;exitY=0.5;exitDx=0;exitDy=0;" parent="1" source="lxu4mpjRyPGzEQz0qGZ8-101" edge="1">
          <mxGeometry width="50" height="50" relative="1" as="geometry">
            <mxPoint x="-950" y="-700" as="sourcePoint" />
            <mxPoint x="-1105" y="-770" as="targetPoint" />
          </mxGeometry>
        </mxCell>
        <mxCell id="lxu4mpjRyPGzEQz0qGZ8-102" value="" style="endArrow=none;html=1;rounded=0;exitX=0.5;exitY=1;exitDx=0;exitDy=0;entryX=0;entryY=0.5;entryDx=0;entryDy=0;" parent="1" source="Xj1IAxDOlRbnsSGXoDNu-208" target="lxu4mpjRyPGzEQz0qGZ8-101" edge="1">
          <mxGeometry width="50" height="50" relative="1" as="geometry">
            <mxPoint x="-1310" y="-991" as="sourcePoint" />
            <mxPoint x="-1090" y="-783" as="targetPoint" />
            <Array as="points">
              <mxPoint x="-1310" y="-904" />
            </Array>
          </mxGeometry>
        </mxCell>
        <mxCell id="lxu4mpjRyPGzEQz0qGZ8-101" value="handle" style="rhombus;whiteSpace=wrap;html=1;" parent="1" vertex="1">
          <mxGeometry x="-1170" y="-924" width="65" height="40" as="geometry" />
        </mxCell>
        <mxCell id="lxu4mpjRyPGzEQz0qGZ8-103" value="" style="endArrow=none;html=1;rounded=0;entryX=0.25;entryY=0;entryDx=0;entryDy=0;" parent="1" target="Xj1IAxDOlRbnsSGXoDNu-211" edge="1">
          <mxGeometry width="50" height="50" relative="1" as="geometry">
            <mxPoint x="-800" y="-920" as="sourcePoint" />
            <mxPoint x="-900" y="-750" as="targetPoint" />
            <Array as="points" />
          </mxGeometry>
        </mxCell>
        <mxCell id="lxu4mpjRyPGzEQz0qGZ8-106" value="" style="endArrow=none;html=1;rounded=0;entryX=0;entryY=0.5;entryDx=0;entryDy=0;exitX=1;exitY=0.5;exitDx=0;exitDy=0;" parent="1" source="Xj1IAxDOlRbnsSGXoDNu-208" target="lxu4mpjRyPGzEQz0qGZ8-105" edge="1">
          <mxGeometry width="50" height="50" relative="1" as="geometry">
            <mxPoint x="-1260" y="-1011" as="sourcePoint" />
            <mxPoint x="-870" y="-760" as="targetPoint" />
            <Array as="points">
              <mxPoint x="-1190" y="-1011" />
              <mxPoint x="-1190" y="-944" />
            </Array>
          </mxGeometry>
        </mxCell>
        <mxCell id="lxu4mpjRyPGzEQz0qGZ8-105" value="generate" style="rhombus;whiteSpace=wrap;html=1;" parent="1" vertex="1">
          <mxGeometry x="-840" y="-961.25" width="80" height="40" as="geometry" />
        </mxCell>
        <mxCell id="lxu4mpjRyPGzEQz0qGZ8-107" value="" style="endArrow=none;html=1;rounded=0;exitX=1;exitY=0.5;exitDx=0;exitDy=0;entryX=0;entryY=0.75;entryDx=0;entryDy=0;" parent="1" source="lxu4mpjRyPGzEQz0qGZ8-108" target="Xj1IAxDOlRbnsSGXoDNu-211" edge="1">
          <mxGeometry width="50" height="50" relative="1" as="geometry">
            <mxPoint x="-950" y="-540" as="sourcePoint" />
            <mxPoint x="-900" y="-590" as="targetPoint" />
          </mxGeometry>
        </mxCell>
        <mxCell id="lxu4mpjRyPGzEQz0qGZ8-109" value="" style="endArrow=none;html=1;rounded=0;exitX=1;exitY=0.75;exitDx=0;exitDy=0;entryX=0;entryY=0.5;entryDx=0;entryDy=0;" parent="1" source="Xj1IAxDOlRbnsSGXoDNu-214" target="lxu4mpjRyPGzEQz0qGZ8-108" edge="1">
          <mxGeometry width="50" height="50" relative="1" as="geometry">
            <mxPoint x="-1065" y="-763" as="sourcePoint" />
            <mxPoint x="-870" y="-740" as="targetPoint" />
          </mxGeometry>
        </mxCell>
        <mxCell id="lxu4mpjRyPGzEQz0qGZ8-108" value="has" style="rhombus;whiteSpace=wrap;html=1;" parent="1" vertex="1">
          <mxGeometry x="-990" y="-760" width="80" height="40" as="geometry" />
        </mxCell>
        <mxCell id="lxu4mpjRyPGzEQz0qGZ8-111" value="" style="endArrow=none;html=1;rounded=0;exitX=0.5;exitY=1;exitDx=0;exitDy=0;entryX=0.389;entryY=-0.009;entryDx=0;entryDy=0;entryPerimeter=0;" parent="1" source="lxu4mpjRyPGzEQz0qGZ8-112" target="Xj1IAxDOlRbnsSGXoDNu-217" edge="1">
          <mxGeometry width="50" height="50" relative="1" as="geometry">
            <mxPoint x="-850" y="-580" as="sourcePoint" />
            <mxPoint x="-560" y="-560" as="targetPoint" />
            <Array as="points" />
          </mxGeometry>
        </mxCell>
        <mxCell id="lxu4mpjRyPGzEQz0qGZ8-113" value="" style="endArrow=none;html=1;rounded=0;entryX=0.5;entryY=0;entryDx=0;entryDy=0;" parent="1" target="lxu4mpjRyPGzEQz0qGZ8-112" edge="1">
          <mxGeometry width="50" height="50" relative="1" as="geometry">
            <mxPoint x="-1040" y="-990" as="sourcePoint" />
            <mxPoint x="-530" y="-556" as="targetPoint" />
            <Array as="points">
              <mxPoint x="-1040" y="-970" />
              <mxPoint x="-542" y="-970" />
            </Array>
          </mxGeometry>
        </mxCell>
        <mxCell id="lxu4mpjRyPGzEQz0qGZ8-112" value="manage" style="rhombus;whiteSpace=wrap;html=1;" parent="1" vertex="1">
          <mxGeometry x="-582.5" y="-794.25" width="80" height="40" as="geometry" />
        </mxCell>
        <mxCell id="lxu4mpjRyPGzEQz0qGZ8-114" value="" style="endArrow=none;html=1;rounded=0;exitX=1;exitY=0.5;exitDx=0;exitDy=0;entryX=0.5;entryY=1;entryDx=0;entryDy=0;" parent="1" source="lxu4mpjRyPGzEQz0qGZ8-115" target="Xj1IAxDOlRbnsSGXoDNu-217" edge="1">
          <mxGeometry width="50" height="50" relative="1" as="geometry">
            <mxPoint x="-880" y="-610" as="sourcePoint" />
            <mxPoint x="-830" y="-660" as="targetPoint" />
            <Array as="points">
              <mxPoint x="-530" y="-460" />
              <mxPoint x="-530" y="-480" />
            </Array>
          </mxGeometry>
        </mxCell>
        <mxCell id="lxu4mpjRyPGzEQz0qGZ8-116" value="" style="endArrow=none;html=1;rounded=0;exitX=1;exitY=0.5;exitDx=0;exitDy=0;entryX=0.5;entryY=1;entryDx=0;entryDy=0;" parent="1" source="Xj1IAxDOlRbnsSGXoDNu-248" target="lxu4mpjRyPGzEQz0qGZ8-115" edge="1">
          <mxGeometry width="50" height="50" relative="1" as="geometry">
            <mxPoint x="-1460" y="-395" as="sourcePoint" />
            <mxPoint x="-530" y="-516" as="targetPoint" />
            <Array as="points">
              <mxPoint x="-890" y="-342" />
            </Array>
          </mxGeometry>
        </mxCell>
        <mxCell id="lxu4mpjRyPGzEQz0qGZ8-115" value="has" style="rhombus;whiteSpace=wrap;html=1;" parent="1" vertex="1">
          <mxGeometry x="-930" y="-485" width="80" height="40" as="geometry" />
        </mxCell>
        <mxCell id="lxu4mpjRyPGzEQz0qGZ8-117" value="" style="endArrow=none;html=1;rounded=0;entryX=1;entryY=0;entryDx=0;entryDy=0;exitX=1;exitY=0.5;exitDx=0;exitDy=0;" parent="1" source="P81za8iIwrM6wZIT5qn2-49" target="lxu4mpjRyPGzEQz0qGZ8-3" edge="1">
          <mxGeometry width="50" height="50" relative="1" as="geometry">
            <mxPoint x="-850" y="-570" as="sourcePoint" />
            <mxPoint x="-800" y="-620" as="targetPoint" />
            <Array as="points">
              <mxPoint x="-20" y="-30" />
              <mxPoint x="-30" y="-1030" />
              <mxPoint x="-930" y="-1031" />
            </Array>
          </mxGeometry>
        </mxCell>
        <mxCell id="lxu4mpjRyPGzEQz0qGZ8-118" value="" style="endArrow=none;html=1;rounded=0;exitX=1;exitY=0.5;exitDx=0;exitDy=0;entryX=1;entryY=1;entryDx=0;entryDy=0;" parent="1" source="P81za8iIwrM6wZIT5qn2-47" target="lxu4mpjRyPGzEQz0qGZ8-3" edge="1">
          <mxGeometry width="50" height="50" relative="1" as="geometry">
            <mxPoint x="-850" y="-530" as="sourcePoint" />
            <mxPoint x="-800" y="-580" as="targetPoint" />
            <Array as="points">
              <mxPoint x="-80" y="-220" />
              <mxPoint x="-80" y="-991" />
            </Array>
          </mxGeometry>
        </mxCell>
        <mxCell id="lxu4mpjRyPGzEQz0qGZ8-119" value="" style="endArrow=none;html=1;rounded=0;exitX=1;exitY=0.5;exitDx=0;exitDy=0;entryX=0;entryY=0.25;entryDx=0;entryDy=0;" parent="1" source="lxu4mpjRyPGzEQz0qGZ8-120" target="Xj1IAxDOlRbnsSGXoDNu-217" edge="1">
          <mxGeometry width="50" height="50" relative="1" as="geometry">
            <mxPoint x="-1050" y="-690" as="sourcePoint" />
            <mxPoint x="-1000" y="-740" as="targetPoint" />
            <Array as="points">
              <mxPoint x="-580" y="-670" />
            </Array>
          </mxGeometry>
        </mxCell>
        <mxCell id="lxu4mpjRyPGzEQz0qGZ8-121" value="" style="endArrow=none;html=1;rounded=0;exitX=0.75;exitY=1;exitDx=0;exitDy=0;entryX=0;entryY=0.5;entryDx=0;entryDy=0;" parent="1" source="Xj1IAxDOlRbnsSGXoDNu-214" target="lxu4mpjRyPGzEQz0qGZ8-120" edge="1">
          <mxGeometry width="50" height="50" relative="1" as="geometry">
            <mxPoint x="-1065" y="-743" as="sourcePoint" />
            <mxPoint x="-580" y="-546" as="targetPoint" />
            <Array as="points">
              <mxPoint x="-1110" y="-670" />
            </Array>
          </mxGeometry>
        </mxCell>
        <mxCell id="lxu4mpjRyPGzEQz0qGZ8-120" value="consist" style="rhombus;whiteSpace=wrap;html=1;" parent="1" vertex="1">
          <mxGeometry x="-930" y="-690" width="80" height="40" as="geometry" />
        </mxCell>
        <mxCell id="lxu4mpjRyPGzEQz0qGZ8-122" value="" style="endArrow=none;html=1;curved=1;" parent="1" edge="1">
          <mxGeometry width="50" height="50" relative="1" as="geometry">
            <mxPoint x="-1300" y="-1098" as="sourcePoint" />
            <mxPoint x="-1300" y="-1108" as="targetPoint" />
            <Array as="points">
              <mxPoint x="-1280" y="-1098" />
            </Array>
          </mxGeometry>
        </mxCell>
        <mxCell id="lxu4mpjRyPGzEQz0qGZ8-123" value="" style="endArrow=none;html=1;curved=1;" parent="1" edge="1">
          <mxGeometry width="50" height="50" relative="1" as="geometry">
            <mxPoint x="-1360" y="-1062.25" as="sourcePoint" />
            <mxPoint x="-1350" y="-1072.25" as="targetPoint" />
            <Array as="points">
              <mxPoint x="-1340" y="-1054" />
            </Array>
          </mxGeometry>
        </mxCell>
        <mxCell id="lxu4mpjRyPGzEQz0qGZ8-124" value="" style="endArrow=none;html=1;curved=1;" parent="1" edge="1">
          <mxGeometry width="50" height="50" relative="1" as="geometry">
            <mxPoint x="-1450" y="-1079.56" as="sourcePoint" />
            <mxPoint x="-1440" y="-1069.56" as="targetPoint" />
            <Array as="points">
              <mxPoint x="-1456.5" y="-1058.44" />
            </Array>
          </mxGeometry>
        </mxCell>
        <mxCell id="P81za8iIwrM6wZIT5qn2-6" value="" style="endArrow=none;html=1;rounded=0;exitX=0;exitY=0.5;exitDx=0;exitDy=0;" parent="1" source="P81za8iIwrM6wZIT5qn2-7" edge="1">
          <mxGeometry width="50" height="50" relative="1" as="geometry">
            <mxPoint x="-1676" y="-1324" as="sourcePoint" />
            <mxPoint x="-1650" y="-1370" as="targetPoint" />
            <Array as="points" />
          </mxGeometry>
        </mxCell>
        <mxCell id="P81za8iIwrM6wZIT5qn2-8" value="" style="endArrow=none;html=1;rounded=0;exitX=0.25;exitY=1;exitDx=0;exitDy=0;entryX=1;entryY=0.5;entryDx=0;entryDy=0;" parent="1" source="Xj1IAxDOlRbnsSGXoDNu-69" target="P81za8iIwrM6wZIT5qn2-7" edge="1">
          <mxGeometry width="50" height="50" relative="1" as="geometry">
            <mxPoint x="-1475" y="-1500" as="sourcePoint" />
            <mxPoint x="-1661" y="-1374" as="targetPoint" />
            <Array as="points">
              <mxPoint x="-1450" y="-1455" />
            </Array>
          </mxGeometry>
        </mxCell>
        <mxCell id="P81za8iIwrM6wZIT5qn2-7" value="handle" style="rhombus;whiteSpace=wrap;html=1;" parent="1" vertex="1">
          <mxGeometry x="-1650" y="-1476.25" width="80" height="40" as="geometry" />
        </mxCell>
        <mxCell id="P81za8iIwrM6wZIT5qn2-13" value="" style="endArrow=none;html=1;rounded=0;exitX=0.75;exitY=1;exitDx=0;exitDy=0;entryX=0;entryY=0.5;entryDx=0;entryDy=0;" parent="1" source="Xj1IAxDOlRbnsSGXoDNu-205" target="P81za8iIwrM6wZIT5qn2-18" edge="1">
          <mxGeometry width="50" height="50" relative="1" as="geometry">
            <mxPoint x="-1452" y="-989" as="sourcePoint" />
            <mxPoint x="-1030" y="-311" as="targetPoint" />
            <Array as="points">
              <mxPoint x="-1450" y="-770" />
              <mxPoint x="-1450" y="-430" />
            </Array>
          </mxGeometry>
        </mxCell>
        <mxCell id="P81za8iIwrM6wZIT5qn2-12" value="has" style="rhombus;whiteSpace=wrap;html=1;" parent="1" vertex="1">
          <mxGeometry x="-1015" y="-333.5" width="80" height="31" as="geometry" />
        </mxCell>
        <mxCell id="P81za8iIwrM6wZIT5qn2-15" value="purchase_quantity&amp;nbsp;" style="ellipse;whiteSpace=wrap;html=1;align=center;" parent="1" vertex="1">
          <mxGeometry x="-1858.25" y="-347" width="115" height="30" as="geometry" />
        </mxCell>
        <mxCell id="P81za8iIwrM6wZIT5qn2-16" value="" style="endArrow=none;html=1;rounded=0;entryX=1;entryY=0;entryDx=0;entryDy=0;exitX=0;exitY=0.5;exitDx=0;exitDy=0;" parent="1" source="GRMg15ix3z7OLPMcoAcn-52" target="P81za8iIwrM6wZIT5qn2-15" edge="1">
          <mxGeometry relative="1" as="geometry">
            <mxPoint x="-1730" y="-470" as="sourcePoint" />
            <mxPoint x="-1813" y="-159" as="targetPoint" />
            <Array as="points" />
          </mxGeometry>
        </mxCell>
        <mxCell id="P81za8iIwrM6wZIT5qn2-18" value="manage" style="rhombus;whiteSpace=wrap;html=1;" parent="1" vertex="1">
          <mxGeometry x="-720" y="-450" width="80" height="49" as="geometry" />
        </mxCell>
        <mxCell id="P81za8iIwrM6wZIT5qn2-20" value="" style="endArrow=none;html=1;rounded=0;entryX=0;entryY=0;entryDx=0;entryDy=0;exitX=0.5;exitY=1;exitDx=0;exitDy=0;" parent="1" source="P81za8iIwrM6wZIT5qn2-18" target="Xj1IAxDOlRbnsSGXoDNu-261" edge="1">
          <mxGeometry width="50" height="50" relative="1" as="geometry">
            <mxPoint x="-682.5" y="-440" as="sourcePoint" />
            <mxPoint x="-858.5" y="-530" as="targetPoint" />
            <Array as="points">
              <mxPoint x="-680" y="-340" />
            </Array>
          </mxGeometry>
        </mxCell>
        <mxCell id="P81za8iIwrM6wZIT5qn2-21" value="" style="endArrow=none;html=1;rounded=0;exitX=1;exitY=1;exitDx=0;exitDy=0;entryX=0;entryY=0.5;entryDx=0;entryDy=0;" parent="1" source="Xj1IAxDOlRbnsSGXoDNu-248" target="P81za8iIwrM6wZIT5qn2-12" edge="1">
          <mxGeometry width="50" height="50" relative="1" as="geometry">
            <mxPoint x="-1270" y="-490" as="sourcePoint" />
            <mxPoint x="-1220" y="-540" as="targetPoint" />
            <Array as="points" />
          </mxGeometry>
        </mxCell>
        <mxCell id="P81za8iIwrM6wZIT5qn2-26" value="&lt;span style=&quot;color: rgb(0, 0, 0); font-family: Helvetica; font-size: 12px; font-style: normal; font-variant-ligatures: normal; font-variant-caps: normal; font-weight: 400; letter-spacing: normal; orphans: 2; text-align: left; text-indent: 0px; text-transform: none; widows: 2; word-spacing: 0px; -webkit-text-stroke-width: 0px; background-color: rgb(251, 251, 251); text-decoration-thickness: initial; text-decoration-style: initial; text-decoration-color: initial; float: none; display: inline !important;&quot;&gt;&lt;u&gt;order_id&lt;/u&gt;&lt;/span&gt;" style="ellipse;whiteSpace=wrap;html=1;align=center;" parent="1" vertex="1">
          <mxGeometry x="-1240" y="-827" width="60" height="21.5" as="geometry" />
        </mxCell>
        <mxCell id="P81za8iIwrM6wZIT5qn2-27" value="" style="endArrow=none;html=1;rounded=0;exitX=0.5;exitY=1;exitDx=0;exitDy=0;entryX=0.25;entryY=0;entryDx=0;entryDy=0;" parent="1" source="P81za8iIwrM6wZIT5qn2-26" target="Xj1IAxDOlRbnsSGXoDNu-214" edge="1">
          <mxGeometry width="50" height="50" relative="1" as="geometry">
            <mxPoint x="-1130" y="-760" as="sourcePoint" />
            <mxPoint x="-1080" y="-810" as="targetPoint" />
          </mxGeometry>
        </mxCell>
        <mxCell id="P81za8iIwrM6wZIT5qn2-28" value="" style="endArrow=none;html=1;rounded=0;exitX=1;exitY=0.25;exitDx=0;exitDy=0;entryX=0.5;entryY=1;entryDx=0;entryDy=0;" parent="1" source="Xj1IAxDOlRbnsSGXoDNu-214" target="P81za8iIwrM6wZIT5qn2-29" edge="1">
          <mxGeometry width="50" height="50" relative="1" as="geometry">
            <mxPoint x="-1130" y="-760" as="sourcePoint" />
            <mxPoint x="-1080" y="-810" as="targetPoint" />
          </mxGeometry>
        </mxCell>
        <mxCell id="P81za8iIwrM6wZIT5qn2-29" value="&lt;span style=&quot;color: rgb(0, 0, 0); font-family: Helvetica; font-size: 12px; font-style: normal; font-variant-ligatures: normal; font-variant-caps: normal; font-weight: 400; letter-spacing: normal; orphans: 2; text-align: left; text-indent: 0px; text-transform: none; widows: 2; word-spacing: 0px; -webkit-text-stroke-width: 0px; background-color: rgb(251, 251, 251); text-decoration-thickness: initial; text-decoration-style: initial; text-decoration-color: initial; float: none; display: inline !important;&quot;&gt;order_date&lt;span&gt;&amp;nbsp;&lt;/span&gt;&lt;/span&gt;" style="ellipse;whiteSpace=wrap;html=1;align=center;" parent="1" vertex="1">
          <mxGeometry x="-1090" y="-823.25" width="80" height="29" as="geometry" />
        </mxCell>
        <mxCell id="P81za8iIwrM6wZIT5qn2-32" value="total_amount" style="ellipse;whiteSpace=wrap;html=1;align=center;" parent="1" vertex="1">
          <mxGeometry x="-705" y="-775.5" width="75" height="32" as="geometry" />
        </mxCell>
        <mxCell id="P81za8iIwrM6wZIT5qn2-33" value="paid_amount" style="ellipse;whiteSpace=wrap;html=1;align=center;" parent="1" vertex="1">
          <mxGeometry x="-780" y="-720" width="85" height="32" as="geometry" />
        </mxCell>
        <mxCell id="P81za8iIwrM6wZIT5qn2-35" value="" style="endArrow=none;html=1;rounded=0;entryX=0;entryY=0.5;entryDx=0;entryDy=0;exitX=1;exitY=0.75;exitDx=0;exitDy=0;" parent="1" source="Xj1IAxDOlRbnsSGXoDNu-211" target="P81za8iIwrM6wZIT5qn2-32" edge="1">
          <mxGeometry width="50" height="50" relative="1" as="geometry">
            <mxPoint x="-830" y="-830" as="sourcePoint" />
            <mxPoint x="-780" y="-880" as="targetPoint" />
          </mxGeometry>
        </mxCell>
        <mxCell id="P81za8iIwrM6wZIT5qn2-37" value="" style="endArrow=none;html=1;rounded=0;exitX=0.5;exitY=0;exitDx=0;exitDy=0;entryX=0.75;entryY=1;entryDx=0;entryDy=0;" parent="1" source="P81za8iIwrM6wZIT5qn2-33" target="Xj1IAxDOlRbnsSGXoDNu-211" edge="1">
          <mxGeometry width="50" height="50" relative="1" as="geometry">
            <mxPoint x="-830" y="-830" as="sourcePoint" />
            <mxPoint x="-780" y="-880" as="targetPoint" />
          </mxGeometry>
        </mxCell>
        <mxCell id="P81za8iIwrM6wZIT5qn2-41" value="leave_to" style="ellipse;whiteSpace=wrap;html=1;align=center;" parent="1" vertex="1">
          <mxGeometry x="-315" y="-1109.75" width="80" height="24.25" as="geometry" />
        </mxCell>
        <mxCell id="P81za8iIwrM6wZIT5qn2-43" value="" style="endArrow=none;html=1;rounded=0;entryX=0.5;entryY=1;entryDx=0;entryDy=0;exitX=0.5;exitY=0;exitDx=0;exitDy=0;" parent="1" source="P81za8iIwrM6wZIT5qn2-41" target="Xj1IAxDOlRbnsSGXoDNu-186" edge="1">
          <mxGeometry width="50" height="50" relative="1" as="geometry">
            <mxPoint x="-277.5" y="-909.5" as="sourcePoint" />
            <mxPoint x="-227.5" y="-959.5" as="targetPoint" />
          </mxGeometry>
        </mxCell>
        <mxCell id="P81za8iIwrM6wZIT5qn2-44" value="leave_reason" style="ellipse;whiteSpace=wrap;html=1;align=center;" parent="1" vertex="1">
          <mxGeometry x="-235" y="-1115.5" width="95" height="25.5" as="geometry" />
        </mxCell>
        <mxCell id="P81za8iIwrM6wZIT5qn2-45" value="" style="endArrow=none;html=1;rounded=0;entryX=0.5;entryY=0;entryDx=0;entryDy=0;exitX=1;exitY=1;exitDx=0;exitDy=0;" parent="1" source="Xj1IAxDOlRbnsSGXoDNu-186" target="P81za8iIwrM6wZIT5qn2-44" edge="1">
          <mxGeometry width="50" height="50" relative="1" as="geometry">
            <mxPoint x="-277.5" y="-909.5" as="sourcePoint" />
            <mxPoint x="-227.5" y="-959.5" as="targetPoint" />
          </mxGeometry>
        </mxCell>
        <mxCell id="P81za8iIwrM6wZIT5qn2-48" value="" style="endArrow=none;html=1;rounded=0;exitX=0.5;exitY=1;exitDx=0;exitDy=0;entryX=0;entryY=0.5;entryDx=0;entryDy=0;" parent="1" source="Xj1IAxDOlRbnsSGXoDNu-261" target="P81za8iIwrM6wZIT5qn2-47" edge="1">
          <mxGeometry width="50" height="50" relative="1" as="geometry">
            <mxPoint x="-643.5" y="-261" as="sourcePoint" />
            <mxPoint x="-643.5" y="-981" as="targetPoint" />
            <Array as="points">
              <mxPoint x="-360" y="-220" />
            </Array>
          </mxGeometry>
        </mxCell>
        <mxCell id="P81za8iIwrM6wZIT5qn2-47" value="manage" style="rhombus;whiteSpace=wrap;html=1;" parent="1" vertex="1">
          <mxGeometry x="-190" y="-240" width="80" height="40" as="geometry" />
        </mxCell>
        <mxCell id="P81za8iIwrM6wZIT5qn2-50" value="" style="endArrow=none;html=1;rounded=0;entryX=0;entryY=0.5;entryDx=0;entryDy=0;exitX=0.75;exitY=1;exitDx=0;exitDy=0;" parent="1" source="Xj1IAxDOlRbnsSGXoDNu-248" target="P81za8iIwrM6wZIT5qn2-49" edge="1">
          <mxGeometry width="50" height="50" relative="1" as="geometry">
            <mxPoint x="-1485" y="-375" as="sourcePoint" />
            <mxPoint x="-1005" y="-1031" as="targetPoint" />
            <Array as="points">
              <mxPoint x="-1475" y="-300" />
              <mxPoint x="-1060" y="-300" />
              <mxPoint x="-1060" y="-30" />
            </Array>
          </mxGeometry>
        </mxCell>
        <mxCell id="P81za8iIwrM6wZIT5qn2-49" value="manage" style="rhombus;whiteSpace=wrap;html=1;" parent="1" vertex="1">
          <mxGeometry x="-748.5" y="-50" width="80" height="40" as="geometry" />
        </mxCell>
        <mxCell id="P81za8iIwrM6wZIT5qn2-51" value="1" style="text;html=1;strokeColor=none;fillColor=none;align=center;verticalAlign=middle;whiteSpace=wrap;rounded=0;" parent="1" vertex="1">
          <mxGeometry x="-1443" y="-1569" width="50" height="20" as="geometry" />
        </mxCell>
        <mxCell id="P81za8iIwrM6wZIT5qn2-52" value="m" style="text;html=1;strokeColor=none;fillColor=none;align=center;verticalAlign=middle;whiteSpace=wrap;rounded=0;" parent="1" vertex="1">
          <mxGeometry x="-240" y="-1169.5" width="50" height="20" as="geometry" />
        </mxCell>
        <mxCell id="P81za8iIwrM6wZIT5qn2-53" value="1" style="text;html=1;strokeColor=none;fillColor=none;align=center;verticalAlign=middle;whiteSpace=wrap;rounded=0;" parent="1" vertex="1">
          <mxGeometry x="-1410" y="-1560" width="50" height="20" as="geometry" />
        </mxCell>
        <mxCell id="P81za8iIwrM6wZIT5qn2-54" value="m" style="text;html=1;strokeColor=none;fillColor=none;align=center;verticalAlign=middle;whiteSpace=wrap;rounded=0;" parent="1" vertex="1">
          <mxGeometry x="-542.5" y="-1279.5" width="50" height="20" as="geometry" />
        </mxCell>
        <mxCell id="P81za8iIwrM6wZIT5qn2-55" value="m" style="text;html=1;strokeColor=none;fillColor=none;align=center;verticalAlign=middle;whiteSpace=wrap;rounded=0;" parent="1" vertex="1">
          <mxGeometry x="-556.81" y="-1465" width="50" height="20" as="geometry" />
        </mxCell>
        <mxCell id="P81za8iIwrM6wZIT5qn2-57" value="1" style="text;html=1;strokeColor=none;fillColor=none;align=center;verticalAlign=middle;whiteSpace=wrap;rounded=0;" parent="1" vertex="1">
          <mxGeometry x="-1380" y="-1549" width="50" height="20" as="geometry" />
        </mxCell>
        <mxCell id="P81za8iIwrM6wZIT5qn2-58" value="1" style="text;html=1;strokeColor=none;fillColor=none;align=center;verticalAlign=middle;whiteSpace=wrap;rounded=0;" parent="1" vertex="1">
          <mxGeometry x="-1380" y="-1520.5" width="50" height="20" as="geometry" />
        </mxCell>
        <mxCell id="P81za8iIwrM6wZIT5qn2-59" value="m" style="text;html=1;strokeColor=none;fillColor=none;align=center;verticalAlign=middle;whiteSpace=wrap;rounded=0;" parent="1" vertex="1">
          <mxGeometry x="-956.25" y="-1411.87" width="32" height="20" as="geometry" />
        </mxCell>
        <mxCell id="P81za8iIwrM6wZIT5qn2-60" value="m" style="text;html=1;strokeColor=none;fillColor=none;align=center;verticalAlign=middle;whiteSpace=wrap;rounded=0;" parent="1" vertex="1">
          <mxGeometry x="-841.25" y="-1437.62" width="50" height="20" as="geometry" />
        </mxCell>
        <mxCell id="P81za8iIwrM6wZIT5qn2-61" value="1" style="text;html=1;strokeColor=none;fillColor=none;align=center;verticalAlign=middle;whiteSpace=wrap;rounded=0;" parent="1" vertex="1">
          <mxGeometry x="-598.31" y="-1409.25" width="50" height="20" as="geometry" />
        </mxCell>
        <mxCell id="P81za8iIwrM6wZIT5qn2-64" value="1" style="text;html=1;strokeColor=none;fillColor=none;align=center;verticalAlign=middle;whiteSpace=wrap;rounded=0;" parent="1" vertex="1">
          <mxGeometry x="-1393" y="-1290" width="50" height="20" as="geometry" />
        </mxCell>
        <mxCell id="P81za8iIwrM6wZIT5qn2-67" value="m" style="text;html=1;strokeColor=none;fillColor=none;align=center;verticalAlign=middle;whiteSpace=wrap;rounded=0;" parent="1" vertex="1">
          <mxGeometry x="-923.75" y="-1393.12" width="50" height="20" as="geometry" />
        </mxCell>
        <mxCell id="P81za8iIwrM6wZIT5qn2-68" value="1" style="text;html=1;strokeColor=none;fillColor=none;align=center;verticalAlign=middle;whiteSpace=wrap;rounded=0;" parent="1" vertex="1">
          <mxGeometry x="-1350" y="-1266" width="50" height="20" as="geometry" />
        </mxCell>
        <mxCell id="P81za8iIwrM6wZIT5qn2-69" value="m" style="text;html=1;strokeColor=none;fillColor=none;align=center;verticalAlign=middle;whiteSpace=wrap;rounded=0;" parent="1" vertex="1">
          <mxGeometry x="-680" y="-1236.25" width="30" height="20" as="geometry" />
        </mxCell>
        <mxCell id="P81za8iIwrM6wZIT5qn2-70" value="1" style="text;html=1;strokeColor=none;fillColor=none;align=center;verticalAlign=middle;whiteSpace=wrap;rounded=0;" parent="1" vertex="1">
          <mxGeometry x="-1375" y="-1218.5" width="50" height="20" as="geometry" />
        </mxCell>
        <mxCell id="P81za8iIwrM6wZIT5qn2-71" value="m" style="text;html=1;strokeColor=none;fillColor=none;align=center;verticalAlign=middle;whiteSpace=wrap;rounded=0;" parent="1" vertex="1">
          <mxGeometry x="-395" y="-1170" width="50" height="20" as="geometry" />
        </mxCell>
        <mxCell id="P81za8iIwrM6wZIT5qn2-72" value="supervise" style="rhombus;whiteSpace=wrap;html=1;" parent="1" vertex="1">
          <mxGeometry x="-1161.5" y="-1139.5" width="80" height="40" as="geometry" />
        </mxCell>
        <mxCell id="P81za8iIwrM6wZIT5qn2-73" value="" style="endArrow=none;html=1;rounded=0;entryX=0;entryY=0.5;entryDx=0;entryDy=0;" parent="1" target="P81za8iIwrM6wZIT5qn2-72" edge="1">
          <mxGeometry width="50" height="50" relative="1" as="geometry">
            <mxPoint x="-1450" y="-1030" as="sourcePoint" />
            <mxPoint x="-1110" y="-1190" as="targetPoint" />
            <Array as="points">
              <mxPoint x="-1290" y="-1119" />
            </Array>
          </mxGeometry>
        </mxCell>
        <mxCell id="P81za8iIwrM6wZIT5qn2-74" value="" style="endArrow=none;html=1;rounded=0;entryX=0.411;entryY=-0.027;entryDx=0;entryDy=0;exitX=1;exitY=0.5;exitDx=0;exitDy=0;entryPerimeter=0;" parent="1" source="P81za8iIwrM6wZIT5qn2-72" target="lxu4mpjRyPGzEQz0qGZ8-3" edge="1">
          <mxGeometry width="50" height="50" relative="1" as="geometry">
            <mxPoint x="-1160" y="-1140" as="sourcePoint" />
            <mxPoint x="-1110" y="-1190" as="targetPoint" />
          </mxGeometry>
        </mxCell>
        <mxCell id="P81za8iIwrM6wZIT5qn2-75" value="1" style="text;html=1;strokeColor=none;fillColor=none;align=center;verticalAlign=middle;whiteSpace=wrap;rounded=0;" parent="1" vertex="1">
          <mxGeometry x="-1471.5" y="-1051" width="50" height="20" as="geometry" />
        </mxCell>
        <mxCell id="P81za8iIwrM6wZIT5qn2-76" value="1" style="text;html=1;strokeColor=none;fillColor=none;align=center;verticalAlign=middle;whiteSpace=wrap;rounded=0;" parent="1" vertex="1">
          <mxGeometry x="-1479.75" y="-1274" width="35" height="20" as="geometry" />
        </mxCell>
        <mxCell id="P81za8iIwrM6wZIT5qn2-77" value="m" style="text;html=1;strokeColor=none;fillColor=none;align=center;verticalAlign=middle;whiteSpace=wrap;rounded=0;" parent="1" vertex="1">
          <mxGeometry x="-1095" y="-1056.5" width="50" height="20" as="geometry" />
        </mxCell>
        <mxCell id="P81za8iIwrM6wZIT5qn2-78" value="1" style="text;html=1;strokeColor=none;fillColor=none;align=center;verticalAlign=middle;whiteSpace=wrap;rounded=0;" parent="1" vertex="1">
          <mxGeometry x="-1425" y="-1487" width="50" height="20" as="geometry" />
        </mxCell>
        <mxCell id="P81za8iIwrM6wZIT5qn2-80" value="m" style="text;html=1;strokeColor=none;fillColor=none;align=center;verticalAlign=middle;whiteSpace=wrap;rounded=0;" parent="1" vertex="1">
          <mxGeometry x="-2050" y="-1438.5" width="41.5" height="20" as="geometry" />
        </mxCell>
        <mxCell id="P81za8iIwrM6wZIT5qn2-83" value="1" style="text;html=1;strokeColor=none;fillColor=none;align=center;verticalAlign=middle;whiteSpace=wrap;rounded=0;" parent="1" vertex="1">
          <mxGeometry x="-1485" y="-1496.25" width="50" height="20" as="geometry" />
        </mxCell>
        <mxCell id="P81za8iIwrM6wZIT5qn2-87" value="1" style="text;html=1;strokeColor=none;fillColor=none;align=center;verticalAlign=middle;whiteSpace=wrap;rounded=0;" parent="1" vertex="1">
          <mxGeometry x="-1490" y="-1254" width="50" height="20" as="geometry" />
        </mxCell>
        <mxCell id="P81za8iIwrM6wZIT5qn2-88" value="m" style="text;html=1;strokeColor=none;fillColor=none;align=center;verticalAlign=middle;whiteSpace=wrap;rounded=0;" parent="1" vertex="1">
          <mxGeometry x="-1676.5" y="-1334.25" width="50" height="20" as="geometry" />
        </mxCell>
        <mxCell id="P81za8iIwrM6wZIT5qn2-89" value="m" style="text;html=1;strokeColor=none;fillColor=none;align=center;verticalAlign=middle;whiteSpace=wrap;rounded=0;" parent="1" vertex="1">
          <mxGeometry x="-2015.75" y="-1379.5" width="41.5" height="20" as="geometry" />
        </mxCell>
        <mxCell id="P81za8iIwrM6wZIT5qn2-90" value="m" style="text;html=1;strokeColor=none;fillColor=none;align=center;verticalAlign=middle;whiteSpace=wrap;rounded=0;" parent="1" vertex="1">
          <mxGeometry x="-1418.25" y="-1322" width="36.5" height="17" as="geometry" />
        </mxCell>
        <mxCell id="P81za8iIwrM6wZIT5qn2-91" value="1" style="text;html=1;strokeColor=none;fillColor=none;align=center;verticalAlign=middle;whiteSpace=wrap;rounded=0;" parent="1" vertex="1">
          <mxGeometry x="-1510" y="-1520" width="38.5" height="16.5" as="geometry" />
        </mxCell>
        <mxCell id="P81za8iIwrM6wZIT5qn2-92" value="1" style="text;html=1;strokeColor=none;fillColor=none;align=center;verticalAlign=middle;whiteSpace=wrap;rounded=0;" parent="1" vertex="1">
          <mxGeometry x="-1531.5" y="-1540" width="50" height="20" as="geometry" />
        </mxCell>
        <mxCell id="P81za8iIwrM6wZIT5qn2-93" value="1" style="text;html=1;strokeColor=none;fillColor=none;align=center;verticalAlign=middle;whiteSpace=wrap;rounded=0;" parent="1" vertex="1">
          <mxGeometry x="-1540" y="-1561.5" width="50" height="20" as="geometry" />
        </mxCell>
        <mxCell id="P81za8iIwrM6wZIT5qn2-94" value="m" style="text;html=1;strokeColor=none;fillColor=none;align=center;verticalAlign=middle;whiteSpace=wrap;rounded=0;" parent="1" vertex="1">
          <mxGeometry x="-2005.75" y="-987.5" width="41.5" height="20" as="geometry" />
        </mxCell>
        <mxCell id="P81za8iIwrM6wZIT5qn2-95" value="1" style="text;html=1;strokeColor=none;fillColor=none;align=center;verticalAlign=middle;whiteSpace=wrap;rounded=0;" parent="1" vertex="1">
          <mxGeometry x="-1571.5" y="-1029.25" width="50" height="20" as="geometry" />
        </mxCell>
        <mxCell id="P81za8iIwrM6wZIT5qn2-96" value="m" style="text;html=1;strokeColor=none;fillColor=none;align=center;verticalAlign=middle;whiteSpace=wrap;rounded=0;" parent="1" vertex="1">
          <mxGeometry x="-1955" y="-969.5" width="41.5" height="20" as="geometry" />
        </mxCell>
        <mxCell id="P81za8iIwrM6wZIT5qn2-100" value="m" style="text;html=1;strokeColor=none;fillColor=none;align=center;verticalAlign=middle;whiteSpace=wrap;rounded=0;" parent="1" vertex="1">
          <mxGeometry x="-2057.25" y="-930" width="27.25" height="20" as="geometry" />
        </mxCell>
        <mxCell id="P81za8iIwrM6wZIT5qn2-101" value="1" style="text;html=1;strokeColor=none;fillColor=none;align=center;verticalAlign=middle;whiteSpace=wrap;rounded=0;" parent="1" vertex="1">
          <mxGeometry x="-2035" y="-588" width="29.25" height="20" as="geometry" />
        </mxCell>
        <mxCell id="P81za8iIwrM6wZIT5qn2-103" value="1" style="text;html=1;strokeColor=none;fillColor=none;align=center;verticalAlign=middle;whiteSpace=wrap;rounded=0;" parent="1" vertex="1">
          <mxGeometry x="-1566.5" y="-989.25" width="50" height="20" as="geometry" />
        </mxCell>
        <mxCell id="P81za8iIwrM6wZIT5qn2-106" value="m" style="text;html=1;strokeColor=none;fillColor=none;align=center;verticalAlign=middle;whiteSpace=wrap;rounded=0;" parent="1" vertex="1">
          <mxGeometry x="-1620" y="-795.5" width="41.5" height="20" as="geometry" />
        </mxCell>
        <mxCell id="P81za8iIwrM6wZIT5qn2-112" value="1" style="text;html=1;strokeColor=none;fillColor=none;align=center;verticalAlign=middle;whiteSpace=wrap;rounded=0;" parent="1" vertex="1">
          <mxGeometry x="-1451.5" y="-342" width="30" height="20" as="geometry" />
        </mxCell>
        <mxCell id="P81za8iIwrM6wZIT5qn2-113" value="n" style="text;html=1;strokeColor=none;fillColor=none;align=center;verticalAlign=middle;whiteSpace=wrap;rounded=0;" parent="1" vertex="1">
          <mxGeometry x="-449.5" y="-336.5" width="31.5" height="20" as="geometry" />
        </mxCell>
        <mxCell id="P81za8iIwrM6wZIT5qn2-114" value="1" style="text;html=1;strokeColor=none;fillColor=none;align=center;verticalAlign=middle;whiteSpace=wrap;rounded=0;" parent="1" vertex="1">
          <mxGeometry x="-1485" y="-990.25" width="50" height="20" as="geometry" />
        </mxCell>
        <mxCell id="P81za8iIwrM6wZIT5qn2-117" value="m" style="text;html=1;strokeColor=none;fillColor=none;align=center;verticalAlign=middle;whiteSpace=wrap;rounded=0;" parent="1" vertex="1">
          <mxGeometry x="-1513" y="-989.25" width="41.5" height="20" as="geometry" />
        </mxCell>
        <mxCell id="P81za8iIwrM6wZIT5qn2-118" value="1" style="text;html=1;strokeColor=none;fillColor=none;align=center;verticalAlign=middle;whiteSpace=wrap;rounded=0;" parent="1" vertex="1">
          <mxGeometry x="-1460" y="-990.25" width="50" height="20" as="geometry" />
        </mxCell>
        <mxCell id="P81za8iIwrM6wZIT5qn2-119" value="1" style="text;html=1;strokeColor=none;fillColor=none;align=center;verticalAlign=middle;whiteSpace=wrap;rounded=0;" parent="1" vertex="1">
          <mxGeometry x="-1356.5" y="-987.5" width="50" height="20" as="geometry" />
        </mxCell>
        <mxCell id="P81za8iIwrM6wZIT5qn2-120" value="m" style="text;html=1;strokeColor=none;fillColor=none;align=center;verticalAlign=middle;whiteSpace=wrap;rounded=0;" parent="1" vertex="1">
          <mxGeometry x="-370" y="-297" width="41.5" height="20" as="geometry" />
        </mxCell>
        <mxCell id="P81za8iIwrM6wZIT5qn2-121" value="m" style="text;html=1;strokeColor=none;fillColor=none;align=center;verticalAlign=middle;whiteSpace=wrap;rounded=0;" parent="1" vertex="1">
          <mxGeometry x="-380" y="-357" width="25" height="20" as="geometry" />
        </mxCell>
        <mxCell id="P81za8iIwrM6wZIT5qn2-122" value="m" style="text;html=1;strokeColor=none;fillColor=none;align=center;verticalAlign=middle;whiteSpace=wrap;rounded=0;" parent="1" vertex="1">
          <mxGeometry x="-552.5" y="-579" width="41.5" height="20" as="geometry" />
        </mxCell>
        <mxCell id="P81za8iIwrM6wZIT5qn2-123" value="n" style="text;html=1;strokeColor=none;fillColor=none;align=center;verticalAlign=middle;whiteSpace=wrap;rounded=0;" parent="1" vertex="1">
          <mxGeometry x="-588.25" y="-579" width="35.75" height="20" as="geometry" />
        </mxCell>
        <mxCell id="P81za8iIwrM6wZIT5qn2-125" value="1" style="text;html=1;strokeColor=none;fillColor=none;align=center;verticalAlign=middle;whiteSpace=wrap;rounded=0;" parent="1" vertex="1">
          <mxGeometry x="-564" y="-511" width="41.5" height="20" as="geometry" />
        </mxCell>
        <mxCell id="P81za8iIwrM6wZIT5qn2-126" value="m" style="text;html=1;strokeColor=none;fillColor=none;align=center;verticalAlign=middle;whiteSpace=wrap;rounded=0;" parent="1" vertex="1">
          <mxGeometry x="-621.5" y="-576" width="41.5" height="20" as="geometry" />
        </mxCell>
        <mxCell id="P81za8iIwrM6wZIT5qn2-127" value="1" style="text;html=1;strokeColor=none;fillColor=none;align=center;verticalAlign=middle;whiteSpace=wrap;rounded=0;" parent="1" vertex="1">
          <mxGeometry x="-1095" y="-763.5" width="50" height="20" as="geometry" />
        </mxCell>
        <mxCell id="P81za8iIwrM6wZIT5qn2-128" value="1" style="text;html=1;strokeColor=none;fillColor=none;align=center;verticalAlign=middle;whiteSpace=wrap;rounded=0;" parent="1" vertex="1">
          <mxGeometry x="-875" y="-763.5" width="50" height="20" as="geometry" />
        </mxCell>
        <mxCell id="P81za8iIwrM6wZIT5qn2-129" value="1" style="text;html=1;strokeColor=none;fillColor=none;align=center;verticalAlign=middle;whiteSpace=wrap;rounded=0;" parent="1" vertex="1">
          <mxGeometry x="-1260" y="-1007.5" width="50" height="20" as="geometry" />
        </mxCell>
        <mxCell id="P81za8iIwrM6wZIT5qn2-130" value="m" style="text;html=1;strokeColor=none;fillColor=none;align=center;verticalAlign=middle;whiteSpace=wrap;rounded=0;" parent="1" vertex="1">
          <mxGeometry x="-825" y="-790" width="20" height="18" as="geometry" />
        </mxCell>
        <mxCell id="P81za8iIwrM6wZIT5qn2-131" value="m" style="text;html=1;strokeColor=none;fillColor=none;align=center;verticalAlign=middle;whiteSpace=wrap;rounded=0;" parent="1" vertex="1">
          <mxGeometry x="-1115" y="-730" width="50" height="20" as="geometry" />
        </mxCell>
        <mxCell id="P81za8iIwrM6wZIT5qn2-132" value="m" style="text;html=1;strokeColor=none;fillColor=none;align=center;verticalAlign=middle;whiteSpace=wrap;rounded=0;" parent="1" vertex="1">
          <mxGeometry x="-1235" y="-774.5" width="50" height="20" as="geometry" />
        </mxCell>
        <mxCell id="P81za8iIwrM6wZIT5qn2-134" value="1" style="text;html=1;strokeColor=none;fillColor=none;align=center;verticalAlign=middle;whiteSpace=wrap;rounded=0;" parent="1" vertex="1">
          <mxGeometry x="-1443" y="-1031" width="50" height="20" as="geometry" />
        </mxCell>
        <mxCell id="P81za8iIwrM6wZIT5qn2-136" value="m" style="text;html=1;strokeColor=none;fillColor=none;align=center;verticalAlign=middle;whiteSpace=wrap;rounded=0;" parent="1" vertex="1">
          <mxGeometry x="-1110" y="-791" width="35" height="20" as="geometry" />
        </mxCell>
        <mxCell id="P81za8iIwrM6wZIT5qn2-137" value="1" style="text;html=1;strokeColor=none;fillColor=none;align=center;verticalAlign=middle;whiteSpace=wrap;rounded=0;" parent="1" vertex="1">
          <mxGeometry x="-1089" y="-989.25" width="50" height="20" as="geometry" />
        </mxCell>
        <mxCell id="P81za8iIwrM6wZIT5qn2-138" value="1" style="text;html=1;strokeColor=none;fillColor=none;align=center;verticalAlign=middle;whiteSpace=wrap;rounded=0;" parent="1" vertex="1">
          <mxGeometry x="-1015" y="-1014.75" width="50" height="20" as="geometry" />
        </mxCell>
        <mxCell id="P81za8iIwrM6wZIT5qn2-139" value="1" style="text;html=1;strokeColor=none;fillColor=none;align=center;verticalAlign=middle;whiteSpace=wrap;rounded=0;" parent="1" vertex="1">
          <mxGeometry x="-1005" y="-1051" width="50" height="20" as="geometry" />
        </mxCell>
        <mxCell id="P81za8iIwrM6wZIT5qn2-140" value="" style="rounded=0;whiteSpace=wrap;html=1;fillColor=none;gradientColor=none;fillStyle=auto;" parent="1" vertex="1">
          <mxGeometry x="-333.25" y="-1160" width="86.25" height="30" as="geometry" />
        </mxCell>
        <mxCell id="P81za8iIwrM6wZIT5qn2-144" value="" style="rounded=0;whiteSpace=wrap;html=1;fillColor=none;" parent="1" vertex="1">
          <mxGeometry x="-2082.5" y="-1412.25" width="85" height="25.5" as="geometry" />
        </mxCell>
        <mxCell id="P81za8iIwrM6wZIT5qn2-148" value="" style="endArrow=none;html=1;rounded=0;exitX=0.793;exitY=0.985;exitDx=0;exitDy=0;exitPerimeter=0;entryX=0.091;entryY=0.407;entryDx=0;entryDy=0;entryPerimeter=0;" parent="1" source="Xj1IAxDOlRbnsSGXoDNu-121" target="lxu4mpjRyPGzEQz0qGZ8-48" edge="1">
          <mxGeometry width="50" height="50" relative="1" as="geometry">
            <mxPoint x="-1840" y="-1230" as="sourcePoint" />
            <mxPoint x="-1790" y="-1280" as="targetPoint" />
            <Array as="points">
              <mxPoint x="-2010" y="-1238" />
            </Array>
          </mxGeometry>
        </mxCell>
        <mxCell id="P81za8iIwrM6wZIT5qn2-150" value="" style="rhombus;whiteSpace=wrap;html=1;fillColor=none;" parent="1" vertex="1">
          <mxGeometry x="-1789.5" y="-1249" width="60" height="30" as="geometry" />
        </mxCell>
        <mxCell id="P81za8iIwrM6wZIT5qn2-151" value="" style="rhombus;whiteSpace=wrap;html=1;fillColor=none;" parent="1" vertex="1">
          <mxGeometry x="-930" y="-1164.5" width="65" height="30" as="geometry" />
        </mxCell>
        <mxCell id="P81za8iIwrM6wZIT5qn2-155" value="" style="endArrow=none;html=1;rounded=0;entryX=1;entryY=0.5;entryDx=0;entryDy=0;" parent="1" target="lxu4mpjRyPGzEQz0qGZ8-19" edge="1">
          <mxGeometry width="50" height="50" relative="1" as="geometry">
            <mxPoint x="-640" y="-1246" as="sourcePoint" />
            <mxPoint x="-740" y="-1205" as="targetPoint" />
            <Array as="points">
              <mxPoint x="-760" y="-1246" />
            </Array>
          </mxGeometry>
        </mxCell>
        <mxCell id="P81za8iIwrM6wZIT5qn2-158" value="" style="rhombus;whiteSpace=wrap;html=1;fillColor=none;" parent="1" vertex="1">
          <mxGeometry x="-947.5" y="-1262" width="65" height="30" as="geometry" />
        </mxCell>
        <mxCell id="P81za8iIwrM6wZIT5qn2-159" value="" style="endArrow=none;html=1;rounded=0;exitX=0.926;exitY=0.581;exitDx=0;exitDy=0;exitPerimeter=0;entryX=0.623;entryY=1.008;entryDx=0;entryDy=0;entryPerimeter=0;" parent="1" source="lxu4mpjRyPGzEQz0qGZ8-17" target="Xj1IAxDOlRbnsSGXoDNu-108" edge="1">
          <mxGeometry width="50" height="50" relative="1" as="geometry">
            <mxPoint x="-1021.25" y="-1282.62" as="sourcePoint" />
            <mxPoint x="-861.25" y="-1392.62" as="targetPoint" />
            <Array as="points">
              <mxPoint x="-867.25" y="-1322.62" />
            </Array>
          </mxGeometry>
        </mxCell>
        <mxCell id="P81za8iIwrM6wZIT5qn2-167" value="" style="endArrow=none;html=1;rounded=0;entryX=0.072;entryY=0.422;entryDx=0;entryDy=0;entryPerimeter=0;exitX=0.558;exitY=0.971;exitDx=0;exitDy=0;exitPerimeter=0;" parent="1" source="Xj1IAxDOlRbnsSGXoDNu-76" target="lxu4mpjRyPGzEQz0qGZ8-45" edge="1">
          <mxGeometry width="50" height="50" relative="1" as="geometry">
            <mxPoint x="-1681" y="-1330" as="sourcePoint" />
            <mxPoint x="-1260" y="-1240" as="targetPoint" />
          </mxGeometry>
        </mxCell>
        <mxCell id="P81za8iIwrM6wZIT5qn2-168" value="" style="endArrow=none;html=1;rounded=0;entryX=0.08;entryY=0.585;entryDx=0;entryDy=0;entryPerimeter=0;exitX=1.01;exitY=0.607;exitDx=0;exitDy=0;exitPerimeter=0;" parent="1" source="Xj1IAxDOlRbnsSGXoDNu-187" target="lxu4mpjRyPGzEQz0qGZ8-73" edge="1">
          <mxGeometry width="50" height="50" relative="1" as="geometry">
            <mxPoint x="-1950" y="-940" as="sourcePoint" />
            <mxPoint x="-1670" y="-890" as="targetPoint" />
          </mxGeometry>
        </mxCell>
        <mxCell id="P81za8iIwrM6wZIT5qn2-172" value="" style="endArrow=none;html=1;rounded=0;exitX=1;exitY=0.592;exitDx=0;exitDy=0;exitPerimeter=0;entryX=0.089;entryY=0.592;entryDx=0;entryDy=0;entryPerimeter=0;" parent="1" source="Xj1IAxDOlRbnsSGXoDNu-196" target="lxu4mpjRyPGzEQz0qGZ8-87" edge="1">
          <mxGeometry width="50" height="50" relative="1" as="geometry">
            <mxPoint x="-1530" y="-710" as="sourcePoint" />
            <mxPoint x="-1480" y="-760" as="targetPoint" />
          </mxGeometry>
        </mxCell>
        <mxCell id="P3l8REJZWlIveTfmPgKO-7" value="" style="endArrow=none;html=1;rounded=0;entryX=0;entryY=0.838;entryDx=0;entryDy=0;exitX=0.931;exitY=0.566;exitDx=0;exitDy=0;entryPerimeter=0;exitPerimeter=0;" parent="1" source="lxu4mpjRyPGzEQz0qGZ8-108" target="Xj1IAxDOlRbnsSGXoDNu-211" edge="1">
          <mxGeometry width="50" height="50" relative="1" as="geometry">
            <mxPoint x="-990" y="-630" as="sourcePoint" />
            <mxPoint x="-940" y="-680" as="targetPoint" />
          </mxGeometry>
        </mxCell>
        <mxCell id="P3l8REJZWlIveTfmPgKO-9" value="" style="endArrow=none;html=1;rounded=0;exitX=0.806;exitY=1.002;exitDx=0;exitDy=0;entryX=0.102;entryY=0.383;entryDx=0;entryDy=0;entryPerimeter=0;exitPerimeter=0;" parent="1" source="Xj1IAxDOlRbnsSGXoDNu-214" target="lxu4mpjRyPGzEQz0qGZ8-120" edge="1">
          <mxGeometry width="50" height="50" relative="1" as="geometry">
            <mxPoint x="-870" y="-600" as="sourcePoint" />
            <mxPoint x="-820" y="-650" as="targetPoint" />
            <Array as="points">
              <mxPoint x="-1104" y="-675" />
            </Array>
          </mxGeometry>
        </mxCell>
        <mxCell id="tLy5c0C3BX7HSO8GwHMc-7" value="m" style="text;html=1;strokeColor=none;fillColor=none;align=center;verticalAlign=middle;whiteSpace=wrap;rounded=0;" parent="1" vertex="1">
          <mxGeometry x="-2173.25" y="-553" width="41.5" height="20" as="geometry" />
        </mxCell>
        <mxCell id="tLy5c0C3BX7HSO8GwHMc-15" value="1" style="text;html=1;strokeColor=none;fillColor=none;align=center;verticalAlign=middle;whiteSpace=wrap;rounded=0;" parent="1" vertex="1">
          <mxGeometry x="-1500" y="-322" width="22.87" height="20" as="geometry" />
        </mxCell>
        <mxCell id="22WwG2nmNLPpAlSexiYf-2" value="&amp;nbsp;" style="ellipse;whiteSpace=wrap;html=1;align=center;gradientColor=default;fillColor=none;" parent="1" vertex="1">
          <mxGeometry x="-1518" y="-1193.5" width="120" height="31" as="geometry" />
        </mxCell>
        <mxCell id="22WwG2nmNLPpAlSexiYf-3" value="" style="ellipse;whiteSpace=wrap;html=1;align=center;fillColor=none;" parent="1" vertex="1">
          <mxGeometry x="-1979.75" y="-1439.37" width="106.5" height="36.25" as="geometry" />
        </mxCell>
        <mxCell id="22WwG2nmNLPpAlSexiYf-4" value="" style="ellipse;whiteSpace=wrap;html=1;align=center;fillColor=none;" parent="1" vertex="1">
          <mxGeometry x="-1335" y="-1218" width="120" height="24" as="geometry" />
        </mxCell>
        <mxCell id="22WwG2nmNLPpAlSexiYf-5" value="" style="ellipse;whiteSpace=wrap;html=1;align=center;fillColor=none;" parent="1" vertex="1">
          <mxGeometry x="-2258.25" y="-613.5" width="100" height="39" as="geometry" />
        </mxCell>
        <mxCell id="22WwG2nmNLPpAlSexiYf-6" value="" style="endArrow=none;html=1;rounded=0;exitX=0.947;exitY=0.964;exitDx=0;exitDy=0;entryX=0.049;entryY=0.564;entryDx=0;entryDy=0;entryPerimeter=0;exitPerimeter=0;" parent="1" source="P81za8iIwrM6wZIT5qn2-80" target="GRMg15ix3z7OLPMcoAcn-46" edge="1">
          <mxGeometry width="50" height="50" relative="1" as="geometry">
            <mxPoint x="-1600" y="-1260" as="sourcePoint" />
            <mxPoint x="-1550" y="-1310" as="targetPoint" />
            <Array as="points">
              <mxPoint x="-2010" y="-1480" />
            </Array>
          </mxGeometry>
        </mxCell>
        <mxCell id="22WwG2nmNLPpAlSexiYf-7" value="" style="endArrow=none;html=1;rounded=0;exitX=0.273;exitY=0.003;exitDx=0;exitDy=0;exitPerimeter=0;entryX=0.522;entryY=0.92;entryDx=0;entryDy=0;entryPerimeter=0;" parent="1" source="Xj1IAxDOlRbnsSGXoDNu-95" target="Xj1IAxDOlRbnsSGXoDNu-89" edge="1">
          <mxGeometry width="50" height="50" relative="1" as="geometry">
            <mxPoint x="-1330" y="-1310" as="sourcePoint" />
            <mxPoint x="-1280" y="-1360" as="targetPoint" />
          </mxGeometry>
        </mxCell>
        <mxCell id="22WwG2nmNLPpAlSexiYf-8" value="" style="endArrow=none;html=1;rounded=0;exitX=0.389;exitY=-0.001;exitDx=0;exitDy=0;exitPerimeter=0;entryX=0.97;entryY=0.559;entryDx=0;entryDy=0;entryPerimeter=0;" parent="1" source="lxu4mpjRyPGzEQz0qGZ8-3" target="P81za8iIwrM6wZIT5qn2-72" edge="1">
          <mxGeometry width="50" height="50" relative="1" as="geometry">
            <mxPoint x="-1110" y="-1030" as="sourcePoint" />
            <mxPoint x="-1060" y="-1080" as="targetPoint" />
          </mxGeometry>
        </mxCell>
        <mxCell id="22WwG2nmNLPpAlSexiYf-9" value="" style="endArrow=none;html=1;rounded=0;exitX=0.869;exitY=0.358;exitDx=0;exitDy=0;exitPerimeter=0;" parent="1" source="lxu4mpjRyPGzEQz0qGZ8-96" edge="1">
          <mxGeometry width="50" height="50" relative="1" as="geometry">
            <mxPoint x="-1210" y="-830" as="sourcePoint" />
            <mxPoint x="-1180" y="-740" as="targetPoint" />
            <Array as="points" />
          </mxGeometry>
        </mxCell>
        <mxCell id="22WwG2nmNLPpAlSexiYf-10" value="" style="endArrow=none;html=1;rounded=0;entryX=0.551;entryY=0.94;entryDx=0;entryDy=0;entryPerimeter=0;exitX=0.293;exitY=0.004;exitDx=0;exitDy=0;exitPerimeter=0;" parent="1" source="Xj1IAxDOlRbnsSGXoDNu-211" target="lxu4mpjRyPGzEQz0qGZ8-105" edge="1">
          <mxGeometry width="50" height="50" relative="1" as="geometry">
            <mxPoint x="-830" y="-850" as="sourcePoint" />
            <mxPoint x="-780" y="-900" as="targetPoint" />
          </mxGeometry>
        </mxCell>
        <mxCell id="22WwG2nmNLPpAlSexiYf-12" value="" style="endArrow=none;html=1;rounded=0;entryX=0;entryY=0.574;entryDx=0;entryDy=0;entryPerimeter=0;exitX=0.922;exitY=0.577;exitDx=0;exitDy=0;exitPerimeter=0;" parent="1" source="lxu4mpjRyPGzEQz0qGZ8-19" target="Xj1IAxDOlRbnsSGXoDNu-159" edge="1">
          <mxGeometry width="50" height="50" relative="1" as="geometry">
            <mxPoint x="-870" y="-1110" as="sourcePoint" />
            <mxPoint x="-820" y="-1160" as="targetPoint" />
          </mxGeometry>
        </mxCell>
        <mxCell id="22WwG2nmNLPpAlSexiYf-13" value="" style="endArrow=none;html=1;rounded=0;exitX=0.443;exitY=0;exitDx=0;exitDy=0;exitPerimeter=0;entryX=0.889;entryY=0.608;entryDx=0;entryDy=0;entryPerimeter=0;" parent="1" source="Xj1IAxDOlRbnsSGXoDNu-117" target="22WwG2nmNLPpAlSexiYf-14" edge="1">
          <mxGeometry width="50" height="50" relative="1" as="geometry">
            <mxPoint x="-600" y="-1480" as="sourcePoint" />
            <mxPoint x="-550" y="-1530" as="targetPoint" />
            <Array as="points">
              <mxPoint x="-513" y="-1579" />
            </Array>
          </mxGeometry>
        </mxCell>
        <mxCell id="22WwG2nmNLPpAlSexiYf-14" value="" style="rhombus;whiteSpace=wrap;html=1;fillColor=none;" parent="1" vertex="1">
          <mxGeometry x="-750" y="-1609.5" width="90" height="49.5" as="geometry" />
        </mxCell>
        <mxCell id="22WwG2nmNLPpAlSexiYf-17" value="" style="endArrow=none;html=1;rounded=0;exitX=0.952;exitY=0.571;exitDx=0;exitDy=0;exitPerimeter=0;entryX=1;entryY=0;entryDx=0;entryDy=0;" parent="1" edge="1">
          <mxGeometry width="50" height="50" relative="1" as="geometry">
            <mxPoint x="-1087.8400000000001" y="-1518.6599999999999" as="sourcePoint" />
            <mxPoint x="-923.25" y="-1411.87" as="targetPoint" />
            <Array as="points">
              <mxPoint x="-1089" y="-1410" />
            </Array>
          </mxGeometry>
        </mxCell>
        <mxCell id="22WwG2nmNLPpAlSexiYf-19" value="" style="endArrow=none;html=1;rounded=0;exitX=0;exitY=1;exitDx=0;exitDy=0;entryX=0.5;entryY=1;entryDx=0;entryDy=0;" parent="1" edge="1">
          <mxGeometry width="50" height="50" relative="1" as="geometry">
            <mxPoint x="-2004.75" y="-967.5" as="sourcePoint" />
            <mxPoint x="-2004" y="-1150" as="targetPoint" />
            <Array as="points" />
          </mxGeometry>
        </mxCell>
        <mxCell id="22WwG2nmNLPpAlSexiYf-21" value="" style="endArrow=none;html=1;rounded=0;entryX=0.25;entryY=1;entryDx=0;entryDy=0;exitX=0.565;exitY=0.017;exitDx=0;exitDy=0;exitPerimeter=0;" parent="1" edge="1">
          <mxGeometry width="50" height="50" relative="1" as="geometry">
            <mxPoint x="-2030.05" y="-793.5700000000002" as="sourcePoint" />
            <mxPoint x="-2027" y="-930.0000000000001" as="targetPoint" />
          </mxGeometry>
        </mxCell>
        <mxCell id="22WwG2nmNLPpAlSexiYf-23" value="" style="endArrow=none;html=1;rounded=0;exitX=0.878;exitY=0.631;exitDx=0;exitDy=0;exitPerimeter=0;" parent="1" source="P81za8iIwrM6wZIT5qn2-12" edge="1">
          <mxGeometry width="50" height="50" relative="1" as="geometry">
            <mxPoint x="-738.5" y="-350" as="sourcePoint" />
            <mxPoint x="-410" y="-310" as="targetPoint" />
            <Array as="points" />
          </mxGeometry>
        </mxCell>
        <mxCell id="22WwG2nmNLPpAlSexiYf-27" value="" style="whiteSpace=wrap;html=1;align=center;fillColor=none;" parent="1" vertex="1">
          <mxGeometry x="-403.1300000000001" y="-331.5" width="86.25" height="29" as="geometry" />
        </mxCell>
        <mxCell id="22WwG2nmNLPpAlSexiYf-31" value="" style="endArrow=none;html=1;rounded=0;entryX=0;entryY=0.5;entryDx=0;entryDy=0;" parent="1" target="lxu4mpjRyPGzEQz0qGZ8-31" edge="1">
          <mxGeometry width="50" height="50" relative="1" as="geometry">
            <mxPoint x="-830" y="-1410" as="sourcePoint" />
            <mxPoint x="-640" y="-1380" as="targetPoint" />
          </mxGeometry>
        </mxCell>
        <mxCell id="22WwG2nmNLPpAlSexiYf-32" value="" style="endArrow=none;html=1;rounded=0;exitX=1;exitY=0.75;exitDx=0;exitDy=0;" parent="1" source="Xj1IAxDOlRbnsSGXoDNu-108" edge="1">
          <mxGeometry width="50" height="50" relative="1" as="geometry">
            <mxPoint x="-840" y="-1290" as="sourcePoint" />
            <mxPoint x="-710" y="-1403" as="targetPoint" />
          </mxGeometry>
        </mxCell>
        <mxCell id="22WwG2nmNLPpAlSexiYf-34" value="" style="endArrow=none;html=1;rounded=0;entryX=0;entryY=0.5;entryDx=0;entryDy=0;exitX=0.981;exitY=0.583;exitDx=0;exitDy=0;exitPerimeter=0;" parent="1" source="P81za8iIwrM6wZIT5qn2-151" target="Xj1IAxDOlRbnsSGXoDNu-186" edge="1">
          <mxGeometry width="50" height="50" relative="1" as="geometry">
            <mxPoint x="-700" y="-1120" as="sourcePoint" />
            <mxPoint x="-650" y="-1170" as="targetPoint" />
          </mxGeometry>
        </mxCell>
        <mxCell id="22WwG2nmNLPpAlSexiYf-38" value="" style="endArrow=none;html=1;rounded=0;exitX=0.75;exitY=1;exitDx=0;exitDy=0;" parent="1" source="Xj1IAxDOlRbnsSGXoDNu-187" edge="1">
          <mxGeometry width="50" height="50" relative="1" as="geometry">
            <mxPoint x="-1870" y="-650" as="sourcePoint" />
            <mxPoint x="-580" y="-520" as="targetPoint" />
            <Array as="points">
              <mxPoint x="-1975" y="-640" />
              <mxPoint x="-1800" y="-640" />
              <mxPoint x="-1800" y="-520" />
            </Array>
          </mxGeometry>
        </mxCell>
        <mxCell id="22WwG2nmNLPpAlSexiYf-39" value="n" style="text;html=1;strokeColor=none;fillColor=none;align=center;verticalAlign=middle;whiteSpace=wrap;rounded=0;" parent="1" vertex="1">
          <mxGeometry x="-612.37" y="-559" width="23.25" height="17" as="geometry" />
        </mxCell>
        <mxCell id="22WwG2nmNLPpAlSexiYf-40" value="m" style="text;html=1;strokeColor=none;fillColor=none;align=center;verticalAlign=middle;whiteSpace=wrap;rounded=0;" parent="1" vertex="1">
          <mxGeometry x="-2008.5" y="-930" width="41.5" height="20" as="geometry" />
        </mxCell>
        <mxCell id="22WwG2nmNLPpAlSexiYf-42" value="has" style="rhombus;whiteSpace=wrap;html=1;" parent="1" vertex="1">
          <mxGeometry x="-1913.5" y="-665" width="80" height="40" as="geometry" />
        </mxCell>
        <mxCell id="22WwG2nmNLPpAlSexiYf-44" value="" style="endArrow=none;html=1;rounded=0;exitX=1;exitY=0;exitDx=0;exitDy=0;entryX=0;entryY=0.5;entryDx=0;entryDy=0;" parent="1" target="22WwG2nmNLPpAlSexiYf-42" edge="1">
          <mxGeometry width="50" height="50" relative="1" as="geometry">
            <mxPoint x="-1970.0000000000002" y="-930" as="sourcePoint" />
            <mxPoint x="-1916.5" y="-645" as="targetPoint" />
            <Array as="points">
              <mxPoint x="-1970" y="-645" />
            </Array>
          </mxGeometry>
        </mxCell>
        <mxCell id="GRMg15ix3z7OLPMcoAcn-2" value="total_quantity&amp;nbsp;" style="ellipse;whiteSpace=wrap;html=1;align=center;" vertex="1" parent="1">
          <mxGeometry x="-461.81" y="-650" width="90" height="23" as="geometry" />
        </mxCell>
        <mxCell id="GRMg15ix3z7OLPMcoAcn-3" value="reorder_quantity&amp;nbsp;" style="ellipse;whiteSpace=wrap;html=1;align=center;" vertex="1" parent="1">
          <mxGeometry x="-415" y="-618" width="110" height="30" as="geometry" />
        </mxCell>
        <mxCell id="GRMg15ix3z7OLPMcoAcn-4" value="" style="endArrow=none;html=1;rounded=0;exitX=1;exitY=0;exitDx=0;exitDy=0;entryX=0;entryY=1;entryDx=0;entryDy=0;" edge="1" parent="1" source="Xj1IAxDOlRbnsSGXoDNu-217" target="GRMg15ix3z7OLPMcoAcn-3">
          <mxGeometry width="50" height="50" relative="1" as="geometry">
            <mxPoint x="-220" y="-480" as="sourcePoint" />
            <mxPoint x="-170" y="-530" as="targetPoint" />
          </mxGeometry>
        </mxCell>
        <mxCell id="GRMg15ix3z7OLPMcoAcn-5" value="" style="endArrow=none;html=1;rounded=0;exitX=0.75;exitY=0;exitDx=0;exitDy=0;entryX=0.5;entryY=1;entryDx=0;entryDy=0;" edge="1" parent="1" source="Xj1IAxDOlRbnsSGXoDNu-217" target="GRMg15ix3z7OLPMcoAcn-2">
          <mxGeometry width="50" height="50" relative="1" as="geometry">
            <mxPoint x="-220" y="-480" as="sourcePoint" />
            <mxPoint x="-170" y="-530" as="targetPoint" />
          </mxGeometry>
        </mxCell>
        <mxCell id="GRMg15ix3z7OLPMcoAcn-6" value="Medicines" style="whiteSpace=wrap;html=1;align=center;" vertex="1" parent="1">
          <mxGeometry x="-1779" y="-193" width="100" height="40" as="geometry" />
        </mxCell>
        <mxCell id="GRMg15ix3z7OLPMcoAcn-7" value="dosage_form&amp;nbsp;" style="ellipse;whiteSpace=wrap;html=1;align=center;" vertex="1" parent="1">
          <mxGeometry x="-1879.5" y="-230" width="90" height="30" as="geometry" />
        </mxCell>
        <mxCell id="GRMg15ix3z7OLPMcoAcn-8" value="prescription_status&amp;nbsp;" style="ellipse;whiteSpace=wrap;html=1;align=center;" vertex="1" parent="1">
          <mxGeometry x="-1789" y="-248" width="110" height="30" as="geometry" />
        </mxCell>
        <mxCell id="GRMg15ix3z7OLPMcoAcn-9" value="storage_condition&amp;nbsp;" style="ellipse;whiteSpace=wrap;html=1;align=center;" vertex="1" parent="1">
          <mxGeometry x="-1720" y="-140" width="110" height="30" as="geometry" />
        </mxCell>
        <mxCell id="GRMg15ix3z7OLPMcoAcn-10" value="manufacture_date&amp;nbsp;" style="ellipse;whiteSpace=wrap;html=1;align=center;" vertex="1" parent="1">
          <mxGeometry x="-1846.5" y="-141" width="110" height="31" as="geometry" />
        </mxCell>
        <mxCell id="GRMg15ix3z7OLPMcoAcn-11" value="" style="endArrow=none;html=1;rounded=0;exitX=0.25;exitY=1;exitDx=0;exitDy=0;entryX=0.5;entryY=0;entryDx=0;entryDy=0;" edge="1" parent="1" source="GRMg15ix3z7OLPMcoAcn-6" target="GRMg15ix3z7OLPMcoAcn-10">
          <mxGeometry relative="1" as="geometry">
            <mxPoint x="-1789" y="-173" as="sourcePoint" />
            <mxPoint x="-1839" y="-167" as="targetPoint" />
          </mxGeometry>
        </mxCell>
        <mxCell id="GRMg15ix3z7OLPMcoAcn-12" value="" style="endArrow=none;html=1;rounded=0;exitX=0;exitY=0.5;exitDx=0;exitDy=0;entryX=1;entryY=0.5;entryDx=0;entryDy=0;" edge="1" parent="1" source="GRMg15ix3z7OLPMcoAcn-6" target="GRMg15ix3z7OLPMcoAcn-16">
          <mxGeometry relative="1" as="geometry">
            <mxPoint x="-1814" y="-263" as="sourcePoint" />
            <mxPoint x="-1848.5" y="-210" as="targetPoint" />
          </mxGeometry>
        </mxCell>
        <mxCell id="GRMg15ix3z7OLPMcoAcn-13" value="" style="endArrow=none;html=1;rounded=0;exitX=0;exitY=0;exitDx=0;exitDy=0;entryX=1;entryY=1;entryDx=0;entryDy=0;" edge="1" parent="1" source="GRMg15ix3z7OLPMcoAcn-6" target="GRMg15ix3z7OLPMcoAcn-7">
          <mxGeometry relative="1" as="geometry">
            <mxPoint x="-1789" y="-293" as="sourcePoint" />
            <mxPoint x="-1824" y="-237" as="targetPoint" />
          </mxGeometry>
        </mxCell>
        <mxCell id="GRMg15ix3z7OLPMcoAcn-14" value="" style="endArrow=none;html=1;rounded=0;exitX=0.5;exitY=1;exitDx=0;exitDy=0;entryX=0.5;entryY=0;entryDx=0;entryDy=0;" edge="1" parent="1" source="GRMg15ix3z7OLPMcoAcn-8" target="GRMg15ix3z7OLPMcoAcn-6">
          <mxGeometry relative="1" as="geometry">
            <mxPoint x="-1736.5" y="-269" as="sourcePoint" />
            <mxPoint x="-1728.5" y="-190" as="targetPoint" />
          </mxGeometry>
        </mxCell>
        <mxCell id="GRMg15ix3z7OLPMcoAcn-15" value="" style="endArrow=none;html=1;rounded=0;exitX=0.5;exitY=0;exitDx=0;exitDy=0;entryX=0.75;entryY=1;entryDx=0;entryDy=0;" edge="1" parent="1" source="GRMg15ix3z7OLPMcoAcn-9" target="GRMg15ix3z7OLPMcoAcn-6">
          <mxGeometry relative="1" as="geometry">
            <mxPoint x="-1664" y="-256" as="sourcePoint" />
            <mxPoint x="-1699" y="-200" as="targetPoint" />
          </mxGeometry>
        </mxCell>
        <mxCell id="GRMg15ix3z7OLPMcoAcn-16" value="expiary_date&amp;nbsp;" style="ellipse;whiteSpace=wrap;html=1;align=center;" vertex="1" parent="1">
          <mxGeometry x="-1900" y="-188" width="90" height="30" as="geometry" />
        </mxCell>
        <mxCell id="GRMg15ix3z7OLPMcoAcn-17" value="Surgical Items" style="whiteSpace=wrap;html=1;align=center;" vertex="1" parent="1">
          <mxGeometry x="-1536.5" y="-218" width="100" height="40" as="geometry" />
        </mxCell>
        <mxCell id="GRMg15ix3z7OLPMcoAcn-18" value="sterilization_method&amp;nbsp;" style="ellipse;whiteSpace=wrap;html=1;align=center;" vertex="1" parent="1">
          <mxGeometry x="-1446.5" y="-157" width="130" height="31" as="geometry" />
        </mxCell>
        <mxCell id="GRMg15ix3z7OLPMcoAcn-19" value="material&amp;nbsp;" style="ellipse;whiteSpace=wrap;html=1;align=center;" vertex="1" parent="1">
          <mxGeometry x="-1539" y="-165" width="90" height="30" as="geometry" />
        </mxCell>
        <mxCell id="GRMg15ix3z7OLPMcoAcn-20" value="" style="endArrow=none;html=1;rounded=0;exitX=0.5;exitY=1;exitDx=0;exitDy=0;entryX=0.5;entryY=0;entryDx=0;entryDy=0;" edge="1" parent="1" source="GRMg15ix3z7OLPMcoAcn-17" target="GRMg15ix3z7OLPMcoAcn-19">
          <mxGeometry relative="1" as="geometry">
            <mxPoint x="-1546.5" y="-198" as="sourcePoint" />
            <mxPoint x="-1596.5" y="-192" as="targetPoint" />
          </mxGeometry>
        </mxCell>
        <mxCell id="GRMg15ix3z7OLPMcoAcn-21" value="" style="endArrow=none;html=1;rounded=0;exitX=0;exitY=0.5;exitDx=0;exitDy=0;entryX=0.5;entryY=0;entryDx=0;entryDy=0;" edge="1" parent="1" source="GRMg15ix3z7OLPMcoAcn-17" target="GRMg15ix3z7OLPMcoAcn-23">
          <mxGeometry relative="1" as="geometry">
            <mxPoint x="-1571.5" y="-288" as="sourcePoint" />
            <mxPoint x="-1606.5" y="-232" as="targetPoint" />
          </mxGeometry>
        </mxCell>
        <mxCell id="GRMg15ix3z7OLPMcoAcn-22" value="" style="endArrow=none;html=1;rounded=0;exitX=1;exitY=1;exitDx=0;exitDy=0;entryX=0.5;entryY=0;entryDx=0;entryDy=0;" edge="1" parent="1" source="GRMg15ix3z7OLPMcoAcn-17" target="GRMg15ix3z7OLPMcoAcn-18">
          <mxGeometry relative="1" as="geometry">
            <mxPoint x="-1546.5" y="-318" as="sourcePoint" />
            <mxPoint x="-1581.5" y="-262" as="targetPoint" />
          </mxGeometry>
        </mxCell>
        <mxCell id="GRMg15ix3z7OLPMcoAcn-23" value="size&amp;nbsp;" style="ellipse;whiteSpace=wrap;html=1;align=center;" vertex="1" parent="1">
          <mxGeometry x="-1610" y="-188" width="53.5" height="28" as="geometry" />
        </mxCell>
        <mxCell id="GRMg15ix3z7OLPMcoAcn-24" value="Grocery Items" style="whiteSpace=wrap;html=1;align=center;" vertex="1" parent="1">
          <mxGeometry x="-1366.5" y="-218" width="100" height="40" as="geometry" />
        </mxCell>
        <mxCell id="GRMg15ix3z7OLPMcoAcn-25" value="category&amp;nbsp;" style="ellipse;whiteSpace=wrap;html=1;align=center;" vertex="1" parent="1">
          <mxGeometry x="-1266.5" y="-171" width="90" height="30" as="geometry" />
        </mxCell>
        <mxCell id="GRMg15ix3z7OLPMcoAcn-26" value="" style="endArrow=none;html=1;rounded=0;exitX=0.75;exitY=1;exitDx=0;exitDy=0;entryX=0.052;entryY=0.239;entryDx=0;entryDy=0;entryPerimeter=0;" edge="1" parent="1" source="GRMg15ix3z7OLPMcoAcn-24" target="GRMg15ix3z7OLPMcoAcn-25">
          <mxGeometry relative="1" as="geometry">
            <mxPoint x="-1376.5" y="-198" as="sourcePoint" />
            <mxPoint x="-1426.5" y="-192" as="targetPoint" />
          </mxGeometry>
        </mxCell>
        <mxCell id="GRMg15ix3z7OLPMcoAcn-27" value="" style="endArrow=none;html=1;rounded=0;exitX=1;exitY=0.5;exitDx=0;exitDy=0;entryX=0;entryY=0.5;entryDx=0;entryDy=0;" edge="1" parent="1" source="GRMg15ix3z7OLPMcoAcn-24" target="GRMg15ix3z7OLPMcoAcn-28">
          <mxGeometry relative="1" as="geometry">
            <mxPoint x="-1401.5" y="-288" as="sourcePoint" />
            <mxPoint x="-1436.5" y="-232" as="targetPoint" />
          </mxGeometry>
        </mxCell>
        <mxCell id="GRMg15ix3z7OLPMcoAcn-28" value="size&amp;nbsp;" style="ellipse;whiteSpace=wrap;html=1;align=center;" vertex="1" parent="1">
          <mxGeometry x="-1235.5" y="-211.5" width="59" height="27" as="geometry" />
        </mxCell>
        <mxCell id="GRMg15ix3z7OLPMcoAcn-29" value="d" style="ellipse;whiteSpace=wrap;html=1;aspect=fixed;" vertex="1" parent="1">
          <mxGeometry x="-1569" y="-297" width="30" height="30" as="geometry" />
        </mxCell>
        <mxCell id="GRMg15ix3z7OLPMcoAcn-30" value="" style="endArrow=none;html=1;rounded=0;entryX=1;entryY=0.5;entryDx=0;entryDy=0;exitX=0.25;exitY=0;exitDx=0;exitDy=0;" edge="1" parent="1" source="GRMg15ix3z7OLPMcoAcn-24" target="GRMg15ix3z7OLPMcoAcn-29">
          <mxGeometry width="50" height="50" relative="1" as="geometry">
            <mxPoint x="-1258.5" y="-178" as="sourcePoint" />
            <mxPoint x="-1531.5" y="-276" as="targetPoint" />
          </mxGeometry>
        </mxCell>
        <mxCell id="GRMg15ix3z7OLPMcoAcn-31" value="" style="endArrow=none;html=1;rounded=0;entryX=1;entryY=1;entryDx=0;entryDy=0;exitX=0.5;exitY=0;exitDx=0;exitDy=0;" edge="1" parent="1" source="GRMg15ix3z7OLPMcoAcn-17" target="GRMg15ix3z7OLPMcoAcn-29">
          <mxGeometry width="50" height="50" relative="1" as="geometry">
            <mxPoint x="-1349.5" y="-203" as="sourcePoint" />
            <mxPoint x="-1546.5" y="-267" as="targetPoint" />
          </mxGeometry>
        </mxCell>
        <mxCell id="GRMg15ix3z7OLPMcoAcn-32" value="" style="endArrow=none;html=1;rounded=0;entryX=0;entryY=0.5;entryDx=0;entryDy=0;exitX=0.75;exitY=0;exitDx=0;exitDy=0;" edge="1" parent="1" source="GRMg15ix3z7OLPMcoAcn-6" target="GRMg15ix3z7OLPMcoAcn-29">
          <mxGeometry width="50" height="50" relative="1" as="geometry">
            <mxPoint x="-1321.5" y="-198" as="sourcePoint" />
            <mxPoint x="-1518.5" y="-262" as="targetPoint" />
          </mxGeometry>
        </mxCell>
        <mxCell id="GRMg15ix3z7OLPMcoAcn-33" value="" style="endArrow=none;html=1;curved=1;" edge="1" parent="1">
          <mxGeometry width="50" height="50" relative="1" as="geometry">
            <mxPoint x="-1441.5" y="-245" as="sourcePoint" />
            <mxPoint x="-1441.5" y="-255" as="targetPoint" />
            <Array as="points">
              <mxPoint x="-1421.5" y="-245" />
            </Array>
          </mxGeometry>
        </mxCell>
        <mxCell id="GRMg15ix3z7OLPMcoAcn-34" value="" style="endArrow=none;html=1;curved=1;" edge="1" parent="1">
          <mxGeometry width="50" height="50" relative="1" as="geometry">
            <mxPoint x="-1625" y="-258.1199999999999" as="sourcePoint" />
            <mxPoint x="-1615" y="-248.1199999999999" as="targetPoint" />
            <Array as="points">
              <mxPoint x="-1631.5" y="-237" />
            </Array>
          </mxGeometry>
        </mxCell>
        <mxCell id="GRMg15ix3z7OLPMcoAcn-35" value="" style="endArrow=none;html=1;curved=1;" edge="1" parent="1">
          <mxGeometry width="50" height="50" relative="1" as="geometry">
            <mxPoint x="-1521.5" y="-240" as="sourcePoint" />
            <mxPoint x="-1511.5" y="-250" as="targetPoint" />
            <Array as="points">
              <mxPoint x="-1506.5" y="-237" />
            </Array>
          </mxGeometry>
        </mxCell>
        <mxCell id="GRMg15ix3z7OLPMcoAcn-36" value="" style="endArrow=none;html=1;rounded=0;entryX=0.401;entryY=0.979;entryDx=0;entryDy=0;exitX=0.5;exitY=0;exitDx=0;exitDy=0;entryPerimeter=0;" edge="1" parent="1" source="GRMg15ix3z7OLPMcoAcn-29" target="Xj1IAxDOlRbnsSGXoDNu-248">
          <mxGeometry width="50" height="50" relative="1" as="geometry">
            <mxPoint x="-1554" y="-290" as="sourcePoint" />
            <mxPoint x="-1210" y="-285" as="targetPoint" />
          </mxGeometry>
        </mxCell>
        <mxCell id="GRMg15ix3z7OLPMcoAcn-38" value="m" style="text;html=1;strokeColor=none;fillColor=none;align=center;verticalAlign=middle;whiteSpace=wrap;rounded=0;" vertex="1" parent="1">
          <mxGeometry x="-1682.63" y="-1403.5" width="36.5" height="20" as="geometry" />
        </mxCell>
        <mxCell id="GRMg15ix3z7OLPMcoAcn-42" value="has" style="rhombus;whiteSpace=wrap;html=1;" vertex="1" parent="1">
          <mxGeometry x="-873.75" y="-1320" width="91.25" height="48.43" as="geometry" />
        </mxCell>
        <mxCell id="GRMg15ix3z7OLPMcoAcn-43" value="" style="endArrow=none;html=1;rounded=0;entryX=0.095;entryY=0.6;entryDx=0;entryDy=0;entryPerimeter=0;" edge="1" parent="1" target="GRMg15ix3z7OLPMcoAcn-44">
          <mxGeometry width="50" height="50" relative="1" as="geometry">
            <mxPoint x="-240" y="-1140" as="sourcePoint" />
            <mxPoint x="-130" y="-1135" as="targetPoint" />
          </mxGeometry>
        </mxCell>
        <mxCell id="GRMg15ix3z7OLPMcoAcn-44" value="" style="rhombus;whiteSpace=wrap;html=1;fillColor=none;" vertex="1" parent="1">
          <mxGeometry x="-150" y="-1170" width="100" height="50" as="geometry" />
        </mxCell>
        <mxCell id="GRMg15ix3z7OLPMcoAcn-45" value="" style="endArrow=none;html=1;rounded=0;exitX=0.904;exitY=0.008;exitDx=0;exitDy=0;exitPerimeter=0;entryX=0.055;entryY=0.556;entryDx=0;entryDy=0;entryPerimeter=0;" edge="1" parent="1" source="Xj1IAxDOlRbnsSGXoDNu-76" target="P81za8iIwrM6wZIT5qn2-7">
          <mxGeometry width="50" height="50" relative="1" as="geometry">
            <mxPoint x="-1600" y="-1320" as="sourcePoint" />
            <mxPoint x="-1550" y="-1370" as="targetPoint" />
          </mxGeometry>
        </mxCell>
        <mxCell id="GRMg15ix3z7OLPMcoAcn-46" value="" style="rhombus;whiteSpace=wrap;html=1;fillColor=none;" vertex="1" parent="1">
          <mxGeometry x="-1767" y="-1510" width="96.5" height="50" as="geometry" />
        </mxCell>
        <mxCell id="GRMg15ix3z7OLPMcoAcn-53" value="" style="endArrow=none;html=1;rounded=0;exitX=0.5;exitY=0;exitDx=0;exitDy=0;" edge="1" parent="1" source="GRMg15ix3z7OLPMcoAcn-52">
          <mxGeometry width="50" height="50" relative="1" as="geometry">
            <mxPoint x="-1640" y="-350" as="sourcePoint" />
            <mxPoint x="-1700" y="-750" as="targetPoint" />
            <Array as="points" />
          </mxGeometry>
        </mxCell>
        <mxCell id="GRMg15ix3z7OLPMcoAcn-56" value="m" style="text;html=1;strokeColor=none;fillColor=none;align=center;verticalAlign=middle;whiteSpace=wrap;rounded=0;" vertex="1" parent="1">
          <mxGeometry x="-609.62" y="-537" width="34.25" height="14" as="geometry" />
        </mxCell>
        <mxCell id="GRMg15ix3z7OLPMcoAcn-58" value="" style="endArrow=none;html=1;rounded=0;entryX=0.5;entryY=1;entryDx=0;entryDy=0;exitX=0;exitY=0.25;exitDx=0;exitDy=0;" edge="1" parent="1" source="Xj1IAxDOlRbnsSGXoDNu-248" target="GRMg15ix3z7OLPMcoAcn-52">
          <mxGeometry width="50" height="50" relative="1" as="geometry">
            <mxPoint x="-1550" y="-352" as="sourcePoint" />
            <mxPoint x="-1695" y="-751" as="targetPoint" />
            <Array as="points">
              <mxPoint x="-1693" y="-350" />
            </Array>
          </mxGeometry>
        </mxCell>
        <mxCell id="GRMg15ix3z7OLPMcoAcn-52" value="include" style="rhombus;whiteSpace=wrap;html=1;" vertex="1" parent="1">
          <mxGeometry x="-1736.5" y="-369" width="73.5" height="40" as="geometry" />
        </mxCell>
        <mxCell id="GRMg15ix3z7OLPMcoAcn-59" value="" style="endArrow=none;html=1;rounded=0;exitX=1;exitY=0.5;exitDx=0;exitDy=0;entryX=0.091;entryY=1.025;entryDx=0;entryDy=0;entryPerimeter=0;" edge="1" parent="1">
          <mxGeometry width="50" height="50" relative="1" as="geometry">
            <mxPoint x="-1857" y="-536" as="sourcePoint" />
            <mxPoint x="-1726.99" y="-750" as="targetPoint" />
            <Array as="points">
              <mxPoint x="-1727" y="-536" />
            </Array>
          </mxGeometry>
        </mxCell>
        <mxCell id="GRMg15ix3z7OLPMcoAcn-61" value="" style="endArrow=none;html=1;rounded=0;entryX=0;entryY=0.5;entryDx=0;entryDy=0;exitX=1;exitY=0.75;exitDx=0;exitDy=0;" edge="1" parent="1" source="Xj1IAxDOlRbnsSGXoDNu-231" target="GRMg15ix3z7OLPMcoAcn-60">
          <mxGeometry width="50" height="50" relative="1" as="geometry">
            <mxPoint x="-2018" y="-536" as="sourcePoint" />
            <mxPoint x="-1720" y="-751" as="targetPoint" />
            <Array as="points" />
          </mxGeometry>
        </mxCell>
        <mxCell id="GRMg15ix3z7OLPMcoAcn-60" value="has" style="rhombus;whiteSpace=wrap;html=1;" vertex="1" parent="1">
          <mxGeometry x="-1923.5" y="-556" width="73.5" height="40" as="geometry" />
        </mxCell>
        <mxCell id="GRMg15ix3z7OLPMcoAcn-62" value="1" style="text;html=1;strokeColor=none;fillColor=none;align=center;verticalAlign=middle;whiteSpace=wrap;rounded=0;" vertex="1" parent="1">
          <mxGeometry x="-2030.01" y="-560" width="50" height="20" as="geometry" />
        </mxCell>
        <mxCell id="GRMg15ix3z7OLPMcoAcn-63" value="m" style="text;html=1;strokeColor=none;fillColor=none;align=center;verticalAlign=middle;whiteSpace=wrap;rounded=0;" vertex="1" parent="1">
          <mxGeometry x="-1750" y="-754.25" width="13.5" height="20" as="geometry" />
        </mxCell>
        <mxCell id="GRMg15ix3z7OLPMcoAcn-65" value="1" style="text;html=1;strokeColor=none;fillColor=none;align=center;verticalAlign=middle;whiteSpace=wrap;rounded=0;" vertex="1" parent="1">
          <mxGeometry x="-1699" y="-751" width="20" height="20" as="geometry" />
        </mxCell>
        <mxCell id="GRMg15ix3z7OLPMcoAcn-67" value="m" style="text;html=1;strokeColor=none;fillColor=none;align=center;verticalAlign=middle;whiteSpace=wrap;rounded=0;" vertex="1" parent="1">
          <mxGeometry x="-1598" y="-351.5" width="41.5" height="20" as="geometry" />
        </mxCell>
        <mxCell id="GRMg15ix3z7OLPMcoAcn-69" value="m" style="text;html=1;strokeColor=none;fillColor=none;align=center;verticalAlign=middle;whiteSpace=wrap;rounded=0;" vertex="1" parent="1">
          <mxGeometry x="-1641.5" y="-754.25" width="31.5" height="20" as="geometry" />
        </mxCell>
        <mxCell id="GRMg15ix3z7OLPMcoAcn-70" style="edgeStyle=orthogonalEdgeStyle;rounded=0;orthogonalLoop=1;jettySize=auto;html=1;exitX=0.5;exitY=1;exitDx=0;exitDy=0;" edge="1" parent="1" source="P81za8iIwrM6wZIT5qn2-15" target="P81za8iIwrM6wZIT5qn2-15">
          <mxGeometry relative="1" as="geometry" />
        </mxCell>
        <mxCell id="GRMg15ix3z7OLPMcoAcn-71" value="" style="endArrow=none;html=1;rounded=0;exitX=0.9;exitY=0.619;exitDx=0;exitDy=0;exitPerimeter=0;entryX=0.006;entryY=0.411;entryDx=0;entryDy=0;entryPerimeter=0;" edge="1" parent="1">
          <mxGeometry width="50" height="50" relative="1" as="geometry">
            <mxPoint x="-1670.35" y="-347.24" as="sourcePoint" />
            <mxPoint x="-1549.4" y="-348.55999999999995" as="targetPoint" />
          </mxGeometry>
        </mxCell>
        <mxCell id="GRMg15ix3z7OLPMcoAcn-72" value="" style="endArrow=none;html=1;rounded=0;exitX=0.889;exitY=0.441;exitDx=0;exitDy=0;exitPerimeter=0;" edge="1" parent="1">
          <mxGeometry width="50" height="50" relative="1" as="geometry">
            <mxPoint x="-1857.1585" y="-538.3599999999999" as="sourcePoint" />
            <mxPoint x="-1729" y="-750" as="targetPoint" />
            <Array as="points">
              <mxPoint x="-1731" y="-540" />
            </Array>
          </mxGeometry>
        </mxCell>
        <mxCell id="GRMg15ix3z7OLPMcoAcn-73" value="" style="endArrow=none;html=1;rounded=0;entryX=0.467;entryY=0.071;entryDx=0;entryDy=0;entryPerimeter=0;" edge="1" parent="1" target="GRMg15ix3z7OLPMcoAcn-52">
          <mxGeometry width="50" height="50" relative="1" as="geometry">
            <mxPoint x="-1702" y="-750" as="sourcePoint" />
            <mxPoint x="-1702.365" y="-361.79999999999995" as="targetPoint" />
          </mxGeometry>
        </mxCell>
        <mxCell id="GRMg15ix3z7OLPMcoAcn-74" value="" style="endArrow=none;html=1;rounded=0;exitX=0.795;exitY=0.965;exitDx=0;exitDy=0;exitPerimeter=0;entryX=0.543;entryY=0.068;entryDx=0;entryDy=0;entryPerimeter=0;" edge="1" parent="1" target="lxu4mpjRyPGzEQz0qGZ8-84">
          <mxGeometry width="50" height="50" relative="1" as="geometry">
            <mxPoint x="-1643.55" y="-752.4000000000001" as="sourcePoint" />
            <mxPoint x="-1640" y="-560" as="targetPoint" />
          </mxGeometry>
        </mxCell>
        <mxCell id="GRMg15ix3z7OLPMcoAcn-75" value="m" style="text;html=1;strokeColor=none;fillColor=none;align=center;verticalAlign=middle;whiteSpace=wrap;rounded=0;" vertex="1" parent="1">
          <mxGeometry x="-1460" y="-362" width="45" height="20" as="geometry" />
        </mxCell>
        <mxCell id="GRMg15ix3z7OLPMcoAcn-76" value="" style="endArrow=none;html=1;rounded=0;exitX=0.75;exitY=0;exitDx=0;exitDy=0;entryX=0.934;entryY=0.555;entryDx=0;entryDy=0;entryPerimeter=0;" edge="1" parent="1" source="Xj1IAxDOlRbnsSGXoDNu-214" target="lxu4mpjRyPGzEQz0qGZ8-101">
          <mxGeometry width="50" height="50" relative="1" as="geometry">
            <mxPoint x="-910" y="-800" as="sourcePoint" />
            <mxPoint x="-860" y="-850" as="targetPoint" />
          </mxGeometry>
        </mxCell>
        <mxCell id="GRMg15ix3z7OLPMcoAcn-84" value="" style="endArrow=none;dashed=1;html=1;rounded=0;exitX=0.088;exitY=0.695;exitDx=0;exitDy=0;exitPerimeter=0;" edge="1" parent="1" source="Xj1IAxDOlRbnsSGXoDNu-125">
          <mxGeometry width="50" height="50" relative="1" as="geometry">
            <mxPoint x="-2190" y="-1407.75" as="sourcePoint" />
            <mxPoint x="-2140" y="-1437" as="targetPoint" />
          </mxGeometry>
        </mxCell>
        <mxCell id="GRMg15ix3z7OLPMcoAcn-85" value="" style="endArrow=none;dashed=1;html=1;rounded=0;entryX=0.897;entryY=0.758;entryDx=0;entryDy=0;entryPerimeter=0;exitX=0.132;exitY=0.755;exitDx=0;exitDy=0;exitPerimeter=0;" edge="1" parent="1" source="Xj1IAxDOlRbnsSGXoDNu-175" target="Xj1IAxDOlRbnsSGXoDNu-175">
          <mxGeometry width="50" height="50" relative="1" as="geometry">
            <mxPoint x="-280" y="-1180" as="sourcePoint" />
            <mxPoint x="-230" y="-1180" as="targetPoint" />
          </mxGeometry>
        </mxCell>
        <mxCell id="GRMg15ix3z7OLPMcoAcn-86" value="" style="endArrow=none;dashed=1;html=1;rounded=0;exitX=0.198;exitY=0.706;exitDx=0;exitDy=0;exitPerimeter=0;entryX=0.79;entryY=0.706;entryDx=0;entryDy=0;entryPerimeter=0;" edge="1" parent="1" source="Xj1IAxDOlRbnsSGXoDNu-262" target="Xj1IAxDOlRbnsSGXoDNu-262">
          <mxGeometry width="50" height="50" relative="1" as="geometry">
            <mxPoint x="-440" y="-310" as="sourcePoint" />
            <mxPoint x="-390" y="-360" as="targetPoint" />
          </mxGeometry>
        </mxCell>
      </root>
    </mxGraphModel>
  </diagram>
</mxfile>
